%TF.GenerationSoftware,Altium Limited,Altium Designer,22.8.2 (66)*%
G04 Layer_Color=65535*
%FSLAX45Y45*%
%MOMM*%
%TF.SameCoordinates,BD556100-397B-4985-8EB5-C039F1F1876F*%
%TF.FilePolarity,Positive*%
%TF.FileFunction,Legend,Top*%
%TF.Part,Single*%
G01*
G75*
%TA.AperFunction,NonConductor*%
%ADD68C,0.25000*%
%ADD69C,0.12000*%
%ADD70C,0.12700*%
%ADD71C,0.20000*%
%ADD72C,0.15240*%
%ADD73C,0.50000*%
%ADD74C,0.30000*%
%ADD75C,0.60000*%
%ADD76C,0.25400*%
%ADD77C,0.20320*%
G36*
X7952740Y2479523D02*
Y2586583D01*
X7845680D01*
X7952740Y2479523D01*
D02*
G37*
G36*
X8064978Y3710838D02*
X7957918D01*
Y3603778D01*
X8064978Y3710838D01*
D02*
G37*
D68*
X3009700Y3644900D02*
G03*
X3009700Y3644900I-12500J0D01*
G01*
D69*
X2940134Y3110744D02*
G03*
X2940134Y3594856I21177J242056D01*
G01*
D70*
X4182500Y6214300D02*
G03*
X3869300Y6214300I-156600J250612D01*
G01*
X5553000Y1955800D02*
G03*
X5553000Y1955800I-600000J0D01*
G01*
X3869300Y6214300D02*
X4182500D01*
X853450Y4538850D02*
X1203950D01*
X853450D02*
Y5189350D01*
X1203950D01*
Y4538850D02*
Y5189350D01*
X4441400Y2861100D02*
Y3311100D01*
X3991400Y2861100D02*
X4441400D01*
X3991400D02*
Y3311100D01*
X4441400D01*
X4889500Y1257300D02*
X5016500D01*
X4953000Y2654300D02*
Y2781300D01*
X4889500Y2717800D02*
X5016500D01*
X6279900Y34500D02*
X6339900D01*
X6279900Y854500D02*
X6339900D01*
X6279900Y34500D02*
Y854500D01*
X6339900Y34500D02*
Y854500D01*
Y34500D02*
X9339900D01*
Y854500D01*
X6339900D02*
X9339900D01*
X8229700Y5075300D02*
Y6075300D01*
X7839700D02*
X8229700D01*
X7839700Y5075300D02*
Y6075300D01*
Y5075300D02*
X8229700D01*
X7857200Y6075300D02*
X8212200D01*
X7857200Y5075300D02*
X8212200D01*
X7857200Y6075300D02*
X8212200D01*
X7857200Y5075300D02*
X8212200D01*
X965200Y847500D02*
X1981200D01*
Y127500D02*
Y847500D01*
Y27500D02*
Y127500D01*
X965200Y27500D02*
X1981200D01*
X965200D02*
Y127500D01*
Y847500D01*
Y127500D02*
X1981200D01*
D71*
X4035900Y6131600D02*
G03*
X4035900Y6131600I-10000J0D01*
G01*
X1538700Y4635100D02*
G03*
X1538700Y4635100I-10000J0D01*
G01*
X4396200Y3236100D02*
G03*
X4396200Y3236100I-10000J0D01*
G01*
X2723533Y5249189D02*
G03*
X2699199Y4898649I83167J-181888D01*
G01*
X2914201D02*
G03*
X2889867Y5249189I-107501J168652D01*
G01*
X6214900Y444500D02*
G03*
X6214900Y444500I-10000J0D01*
G01*
X9065000Y6283300D02*
G03*
X9065000Y6283300I-10000J0D01*
G01*
X5263500Y4011300D02*
Y4091300D01*
X5023500Y4011300D02*
Y4091300D01*
X9240998Y3608299D02*
Y3708298D01*
X7955377Y3606698D02*
X8059517Y3710838D01*
X7954107Y3606698D02*
X7955377D01*
X7952837D02*
X7955377D01*
X9140998Y2951378D02*
X9240998D01*
Y3051399D01*
X9140998Y3708298D02*
X9240998D01*
X7956647Y2951378D02*
X8056596D01*
X7955798D02*
Y3051399D01*
X7952837Y3606698D02*
Y3710838D01*
X8059517D01*
X8801100Y3924300D02*
X8823960D01*
X8270240D02*
X8293100D01*
X8801100Y3848100D02*
Y3924300D01*
X8293100Y3848100D02*
X8801100D01*
X8293100D02*
Y4000500D01*
X8801100D01*
Y3924300D02*
Y4000500D01*
X8270240Y4279900D02*
X8293100D01*
X8801100D02*
X8823960D01*
X8293100D02*
Y4356100D01*
X8801100D01*
Y4203700D02*
Y4356100D01*
X8293100Y4203700D02*
X8801100D01*
X8293100D02*
Y4279900D01*
X9934100Y2997200D02*
Y3505200D01*
X9807100D02*
X9934100D01*
X9807100Y2997200D02*
X9934100D01*
X9807100D02*
Y3505200D01*
X9934100Y3081868D02*
X10272766D01*
X10315100Y3124200D01*
X10272766Y3166534D02*
X10315100Y3124200D01*
X9934100Y3166534D02*
X10272766D01*
X9934100Y3335866D02*
X10272766D01*
X10315100Y3378200D01*
X10272766Y3420532D02*
X10315100Y3378200D01*
X9934100Y3420532D02*
X10272766D01*
X8037200Y4850200D02*
X8117200D01*
X8037200Y4700200D02*
X8117200D01*
X3390900Y6515100D02*
Y6769100D01*
X850900Y6515100D02*
X3390900D01*
X850900D02*
Y6769100D01*
X1041400D01*
X3390900D01*
X3568700Y5996940D02*
Y6019800D01*
Y6527800D02*
Y6550660D01*
X3492500Y6019800D02*
X3568700D01*
X3492500D02*
Y6527800D01*
X3644900D01*
Y6019800D02*
Y6527800D01*
X3568700Y6019800D02*
X3644900D01*
X5118100Y5964768D02*
Y6451600D01*
Y5689600D02*
Y6451600D01*
X4610100Y5689600D02*
Y6451600D01*
Y5689600D02*
X5118100D01*
X4610100Y6451600D02*
X5118100D01*
X1806200Y5142300D02*
X1886200D01*
X1806200Y4992300D02*
X1886200D01*
X1815937Y4755656D02*
X1895937D01*
X1815937Y4605656D02*
X1895937D01*
X3441700Y2923540D02*
Y2946400D01*
Y3454400D02*
Y3477260D01*
X3365500Y2946400D02*
X3441700D01*
X3365500D02*
Y3454400D01*
X3517900D01*
Y2946400D02*
Y3454400D01*
X3441700Y2946400D02*
X3517900D01*
X2285778Y516521D02*
X4317778D01*
X2285778Y262521D02*
Y516521D01*
Y262521D02*
X4317778D01*
Y516521D01*
X9931400Y4144432D02*
X10270066D01*
X10312400Y4102100D01*
X10270066Y4059766D02*
X10312400Y4102100D01*
X9931400Y4059766D02*
X10270066D01*
X9931400Y3890434D02*
X10270066D01*
X10270066Y3890434D02*
X10312400Y3848100D01*
X10270066Y3805768D02*
X10312400Y3848100D01*
X9931400Y3805768D02*
X10270066D01*
X9804400Y3721100D02*
Y4229100D01*
Y3721100D02*
X9931400D01*
X9804400Y4229100D02*
X9931400D01*
Y3721100D02*
Y4229100D01*
X5168900Y6756400D02*
X6438900D01*
X5253568Y6883400D02*
Y7222066D01*
X5295900Y7264400D01*
X5338234Y7222066D01*
Y6883400D02*
Y7222066D01*
X5507568Y6883400D02*
Y7222066D01*
X5549900Y7264400D01*
X5592234Y7222066D01*
Y6883400D02*
Y7222066D01*
X5761568Y6883400D02*
Y7222066D01*
X5803900Y7264400D01*
X5846232Y7222066D01*
Y6883400D02*
Y7222066D01*
X6015566Y6883400D02*
Y7222066D01*
X6057900Y7264400D01*
X6100232Y7222066D01*
Y6883400D02*
Y7222066D01*
X6269566Y6883400D02*
Y7222066D01*
X6311900Y7264400D01*
X6354232Y7222066D01*
Y6883400D02*
Y7222066D01*
X6438900Y6756400D02*
Y6883400D01*
X5168900D02*
X6438900D01*
X5168900Y6756400D02*
Y6883400D01*
X8610600Y1536700D02*
X8686800D01*
Y2044700D01*
X8534400D02*
X8686800D01*
X8534400Y1536700D02*
Y2044700D01*
Y1536700D02*
X8610600D01*
Y2044700D02*
Y2067560D01*
Y1513840D02*
Y1536700D01*
X7952740Y2484984D02*
Y2591664D01*
X7848600D02*
X7952740D01*
X7193280Y2588702D02*
X7293300D01*
X7193280Y2487905D02*
Y2587854D01*
X7950200Y1303503D02*
Y1403502D01*
X7193280Y1303503D02*
X7293300D01*
X7193280D02*
Y1403502D01*
X7848600Y2589124D02*
Y2591664D01*
Y2589124D02*
Y2590394D01*
Y2589124D02*
X7952740Y2484984D01*
X7850200Y1303503D02*
X7950200D01*
X8178800Y2044700D02*
X8255000D01*
X8178800Y1536700D02*
Y2044700D01*
Y1536700D02*
X8331200D01*
Y2044700D01*
X8255000D02*
X8331200D01*
X8255000Y1513840D02*
Y1536700D01*
Y2044700D02*
Y2067560D01*
X8945000Y5003300D02*
X9324000D01*
X9726000D02*
X10565000D01*
Y6213300D01*
X9726000D02*
X10565000D01*
X8945000D02*
X9324000D01*
X8945000Y5003300D02*
Y6213300D01*
D72*
X4501240Y4119880D02*
G03*
X4501240Y4119880I-35920J0D01*
G01*
X5572826Y5232726D02*
G03*
X5474970Y5033010I154874J-199716D01*
G01*
Y4314190D02*
G03*
X5572826Y4114474I252730J0D01*
G01*
X5980430Y5033010D02*
G03*
X5882574Y5232726I-252730J0D01*
G01*
X5735320Y5524500D02*
G03*
X5735320Y5524500I-7620J0D01*
G01*
X5882574Y4114474D02*
G03*
X5980430Y4314190I-154874J199716D01*
G01*
X3851000Y4054200D02*
Y4734200D01*
X4531000D01*
Y4054200D02*
Y4734200D01*
X3851000Y4054200D02*
X4531000D01*
X5474970Y4301490D02*
Y5045710D01*
X5980430Y4301490D02*
Y5045710D01*
D73*
X4249800Y1778000D02*
G03*
X4749800Y1278000I500000J0D01*
G01*
X5129191Y1270766D02*
G03*
X5629191Y1770766I0J500000D01*
G01*
X5630800Y2209800D02*
G03*
X5130800Y2709800I-500000J0D01*
G01*
X4741800D02*
G03*
X4241800Y2209800I0J-500000D01*
G01*
X2384915Y1664664D02*
Y6174665D01*
X84915Y1664664D02*
Y6174665D01*
X2384915D01*
X84915Y1664664D02*
X2384915D01*
D74*
X2755900Y3581400D02*
X2794000Y3619500D01*
X2755900Y3557200D02*
Y3581400D01*
Y3557200D02*
X2830900Y3632200D01*
X2833300D01*
X2755900Y3482200D02*
Y3632200D01*
X2758300D02*
X2908300D01*
X2755900Y3060700D02*
Y3210700D01*
X2758300Y3060700D02*
X2908300D01*
X3276600D02*
Y3210700D01*
X3124200Y3060700D02*
X3274200D01*
X3276600Y3482200D02*
Y3632200D01*
X3124200D02*
X3274200D01*
X4687483Y3860800D02*
X4724400D01*
X4687483D02*
X4737100Y3910417D01*
Y3948100D01*
X4663016Y3874016D02*
X4737100Y3948100D01*
X4610100Y3848100D02*
X4737100Y3975100D01*
X3644900Y3848100D02*
Y4048100D01*
Y3848100D02*
X3844900D01*
X4737100D02*
Y4048100D01*
X4537100Y3848100D02*
X4737100D01*
X3644900Y4740300D02*
Y4940300D01*
X3844900D01*
X4737100Y4740300D02*
Y4940300D01*
X4537100D02*
X4737100D01*
X1477683Y4501728D02*
Y4651728D01*
X1473200Y4495800D02*
X1477683Y4500283D01*
X1323200Y4495800D02*
X1473200D01*
X581959Y4499486D02*
Y4649486D01*
Y4498041D02*
X586441Y4493559D01*
X736441D01*
X581959Y5078714D02*
Y5228714D01*
Y5230159D02*
X586441Y5234641D01*
X736441D01*
X1475441Y5078714D02*
Y5228714D01*
X1470959Y5234641D02*
X1475441Y5230159D01*
X1320959Y5234641D02*
X1470959D01*
X3736200Y2819400D02*
X3886200D01*
X3733800D02*
Y2959100D01*
X4549000Y2819400D02*
X4699000D01*
X4701400D02*
Y2959100D01*
X4549000Y3352800D02*
X4699000D01*
X4701400Y3213100D02*
Y3352800D01*
X3733800D02*
X3883800D01*
X3731400Y3213100D02*
Y3352800D01*
X5892800Y5577700D02*
X6042800D01*
X6045200Y5425300D02*
Y5575300D01*
X5412600Y5577700D02*
X5562600D01*
X5410200Y5425300D02*
Y5575300D01*
X5412600Y3769500D02*
X5562600D01*
X5410200Y3771900D02*
Y3921900D01*
X5892800Y3770700D02*
X6042800D01*
X6045200Y3773100D02*
Y3923100D01*
X8441100Y5930900D02*
Y6130900D01*
X8241100Y6134100D02*
X8441100D01*
X7628300Y5930900D02*
Y6130900D01*
Y6134100D02*
X7828300D01*
X7628300Y5019700D02*
Y5219700D01*
Y5016500D02*
X7828300D01*
X8441100Y5019700D02*
Y5219700D01*
X8241100Y5016500D02*
X8441100D01*
D75*
X4700699Y3874016D02*
X4712291Y3885609D01*
X4663016Y3874016D02*
X4700699D01*
D76*
X4292550Y4292624D02*
Y4419583D01*
X4267159Y4444975D01*
X4216375D01*
X4190983Y4419583D01*
Y4292624D01*
X4140200Y4444975D02*
X4089416D01*
X4114808D01*
Y4292624D01*
X4140200Y4318016D01*
X820912Y5443689D02*
Y5596040D01*
X871695Y5545256D01*
X922479Y5596040D01*
Y5443689D01*
X5213660Y3712987D02*
X5239052Y3738379D01*
Y3789163D01*
X5213660Y3814554D01*
X5112093D01*
X5086701Y3789163D01*
Y3738379D01*
X5112093Y3712987D01*
X5086701Y3560637D02*
Y3662204D01*
X5188268Y3560637D01*
X5213660D01*
X5239052Y3586028D01*
Y3636812D01*
X5213660Y3662204D01*
X8207709Y3276515D02*
Y3378082D01*
X8182317Y3403474D01*
X8131533D01*
X8106141Y3378082D01*
Y3276515D01*
X8131533Y3251123D01*
X8182317D01*
X8156925Y3301907D02*
X8207709Y3251123D01*
X8182317D02*
X8207709Y3276515D01*
X8360059Y3251123D02*
X8258492D01*
X8360059Y3352690D01*
Y3378082D01*
X8334667Y3403474D01*
X8283884D01*
X8258492Y3378082D01*
X9080525Y4013159D02*
X9232875D01*
Y3936983D01*
X9207483Y3911592D01*
X9156700D01*
X9131308Y3936983D01*
Y4013159D01*
Y3962375D02*
X9080525Y3911592D01*
X9232875Y3759241D02*
Y3860808D01*
X9156700D01*
X9182092Y3810025D01*
Y3784633D01*
X9156700Y3759241D01*
X9105917D01*
X9080525Y3784633D01*
Y3835416D01*
X9105917Y3860808D01*
X9118625Y4394159D02*
X9270975D01*
Y4317983D01*
X9245583Y4292592D01*
X9194800D01*
X9169408Y4317983D01*
Y4394159D01*
Y4343375D02*
X9118625Y4292592D01*
Y4165633D02*
X9270975D01*
X9194800Y4241808D01*
Y4140241D01*
X9664741Y2794025D02*
Y2946375D01*
X9740917D01*
X9766308Y2920983D01*
Y2870200D01*
X9740917Y2844808D01*
X9664741D01*
X9893267Y2794025D02*
Y2946375D01*
X9817092Y2870200D01*
X9918659D01*
X2766060Y3898851D02*
Y3771892D01*
X2791452Y3746500D01*
X2842235D01*
X2867627Y3771892D01*
Y3898851D01*
X3019978Y3746500D02*
X2918411D01*
X3019978Y3848067D01*
Y3873459D01*
X2994586Y3898851D01*
X2943803D01*
X2918411Y3873459D01*
X5354384Y4553091D02*
X5379776Y4578483D01*
Y4629267D01*
X5354384Y4654659D01*
X5252817D01*
X5227425Y4629267D01*
Y4578483D01*
X5252817Y4553091D01*
X5227425Y4426133D02*
X5379776D01*
X5303600Y4502308D01*
Y4400741D01*
X7670808Y4838683D02*
X7645417Y4864075D01*
X7594633D01*
X7569241Y4838683D01*
Y4737117D01*
X7594633Y4711725D01*
X7645417D01*
X7670808Y4737117D01*
X7823159Y4864075D02*
X7721592D01*
Y4787900D01*
X7772375Y4813292D01*
X7797767D01*
X7823159Y4787900D01*
Y4737117D01*
X7797767Y4711725D01*
X7746984D01*
X7721592Y4737117D01*
X596933Y6578625D02*
Y6730975D01*
X673108D01*
X698500Y6705583D01*
Y6654800D01*
X673108Y6629408D01*
X596933D01*
X749284Y6578625D02*
X800067D01*
X774676D01*
Y6730975D01*
X749284Y6705583D01*
X3644875Y6794541D02*
X3492525D01*
Y6870717D01*
X3517917Y6896108D01*
X3568700D01*
X3594092Y6870717D01*
Y6794541D01*
Y6845325D02*
X3644875Y6896108D01*
X3619483Y6946892D02*
X3644875Y6972284D01*
Y7023067D01*
X3619483Y7048459D01*
X3517917D01*
X3492525Y7023067D01*
Y6972284D01*
X3517917Y6946892D01*
X3543308D01*
X3568700Y6972284D01*
Y7048459D01*
X4559275Y5943641D02*
X4406925D01*
Y6019817D01*
X4432317Y6045208D01*
X4483100D01*
X4508492Y6019817D01*
Y5943641D01*
X4406925Y6197559D02*
X4432317Y6146775D01*
X4483100Y6095992D01*
X4533883D01*
X4559275Y6121384D01*
Y6172167D01*
X4533883Y6197559D01*
X4508492D01*
X4483100Y6172167D01*
Y6095992D01*
X4356133Y6553175D02*
Y6400825D01*
X4432308D01*
X4457700Y6426217D01*
Y6527783D01*
X4432308Y6553175D01*
X4356133D01*
X4508484Y6400825D02*
X4559267D01*
X4533876D01*
Y6553175D01*
X4508484Y6527783D01*
X2108217Y5054608D02*
X2082825Y5029217D01*
Y4978433D01*
X2108217Y4953041D01*
X2209783D01*
X2235175Y4978433D01*
Y5029217D01*
X2209783Y5054608D01*
X2082825Y5206959D02*
X2108217Y5156175D01*
X2159000Y5105392D01*
X2209783D01*
X2235175Y5130784D01*
Y5181567D01*
X2209783Y5206959D01*
X2184392D01*
X2159000Y5181567D01*
Y5105392D01*
X2108217Y4673608D02*
X2082825Y4648217D01*
Y4597433D01*
X2108217Y4572041D01*
X2209783D01*
X2235175Y4597433D01*
Y4648217D01*
X2209783Y4673608D01*
X2082825Y4724392D02*
Y4825959D01*
X2108217D01*
X2209783Y4724392D01*
X2235175D01*
X939825Y4775241D02*
X1066783D01*
X1092175Y4800633D01*
Y4851417D01*
X1066783Y4876808D01*
X939825D01*
X1092175Y5003767D02*
X939825D01*
X1016000Y4927592D01*
Y5029159D01*
X4241800Y3022616D02*
X4267192Y2997224D01*
X4317975D01*
X4343367Y3022616D01*
Y3048008D01*
X4317975Y3073399D01*
X4267192D01*
X4241800Y3098791D01*
Y3124183D01*
X4267192Y3149575D01*
X4317975D01*
X4343367Y3124183D01*
X4191016Y3149575D02*
X4140233D01*
X4165624D01*
Y2997224D01*
X4191016Y3022616D01*
X3365525Y3327359D02*
X3517875D01*
Y3251183D01*
X3492483Y3225792D01*
X3441700D01*
X3416308Y3251183D01*
Y3327359D01*
Y3276575D02*
X3365525Y3225792D01*
X3517875Y3073441D02*
X3492483Y3124225D01*
X3441700Y3175008D01*
X3390917D01*
X3365525Y3149616D01*
Y3098833D01*
X3390917Y3073441D01*
X3416308D01*
X3441700Y3098833D01*
Y3175008D01*
X5372083Y4965692D02*
X5397475Y4991083D01*
Y5041867D01*
X5372083Y5067259D01*
X5270517D01*
X5245125Y5041867D01*
Y4991083D01*
X5270517Y4965692D01*
X5372083Y4914908D02*
X5397475Y4889516D01*
Y4838733D01*
X5372083Y4813341D01*
X5346692D01*
X5321300Y4838733D01*
Y4864125D01*
Y4838733D01*
X5295908Y4813341D01*
X5270517D01*
X5245125Y4838733D01*
Y4889516D01*
X5270517Y4914908D01*
X5130742Y1879624D02*
Y2031975D01*
X5029175D01*
X4876824Y1905016D02*
X4902216Y1879624D01*
X4953000D01*
X4978392Y1905016D01*
Y1930408D01*
X4953000Y1955799D01*
X4902216D01*
X4876824Y1981191D01*
Y2006583D01*
X4902216Y2031975D01*
X4953000D01*
X4978392Y2006583D01*
X4826041Y2031975D02*
X4775257D01*
X4800649D01*
Y1879624D01*
X4826041Y1905016D01*
X1955619Y326045D02*
Y478396D01*
X2031795D01*
X2057186Y453004D01*
Y402221D01*
X2031795Y376829D01*
X1955619D01*
X2209537Y326045D02*
X2107970D01*
X2209537Y427613D01*
Y453004D01*
X2184145Y478396D01*
X2133362D01*
X2107970Y453004D01*
X5420360Y5821631D02*
Y5796239D01*
X5471143Y5745455D01*
X5521927Y5796239D01*
Y5821631D01*
X5471143Y5745455D02*
Y5669280D01*
X5572711D02*
X5623494D01*
X5598103D01*
Y5821631D01*
X5572711Y5796239D01*
X7637780Y6377891D02*
Y6250932D01*
X7663172Y6225540D01*
X7713955D01*
X7739347Y6250932D01*
Y6377891D01*
X7790131Y6352499D02*
X7815523Y6377891D01*
X7866306D01*
X7891698Y6352499D01*
Y6327107D01*
X7866306Y6301715D01*
X7840914D01*
X7866306D01*
X7891698Y6276323D01*
Y6250932D01*
X7866306Y6225540D01*
X7815523D01*
X7790131Y6250932D01*
X8194040Y2329180D02*
Y2481531D01*
X8270215D01*
X8295607Y2456139D01*
Y2405355D01*
X8270215Y2379963D01*
X8194040D01*
X8244823D02*
X8295607Y2329180D01*
X8346391Y2456139D02*
X8371783Y2481531D01*
X8422566D01*
X8447958Y2456139D01*
Y2430747D01*
X8422566Y2405355D01*
X8447958Y2379963D01*
Y2354572D01*
X8422566Y2329180D01*
X8371783D01*
X8346391Y2354572D01*
Y2379963D01*
X8371783Y2405355D01*
X8346391Y2430747D01*
Y2456139D01*
X8371783Y2405355D02*
X8422566D01*
X8549640Y2329180D02*
Y2481531D01*
X8625815D01*
X8651207Y2456139D01*
Y2405355D01*
X8625815Y2379963D01*
X8549640D01*
X8600423D02*
X8651207Y2329180D01*
X8701991Y2481531D02*
X8803558D01*
Y2456139D01*
X8701991Y2354572D01*
Y2329180D01*
X7310087Y2702552D02*
Y2804119D01*
X7284695Y2829511D01*
X7233912D01*
X7208520Y2804119D01*
Y2702552D01*
X7233912Y2677160D01*
X7284695D01*
X7259303Y2727943D02*
X7310087Y2677160D01*
X7284695D02*
X7310087Y2702552D01*
X7360871Y2804119D02*
X7386263Y2829511D01*
X7437046D01*
X7462438Y2804119D01*
Y2778727D01*
X7437046Y2753335D01*
X7411654D01*
X7437046D01*
X7462438Y2727943D01*
Y2702552D01*
X7437046Y2677160D01*
X7386263D01*
X7360871Y2702552D01*
X9616440Y4315460D02*
Y4467811D01*
X9692615D01*
X9718007Y4442419D01*
Y4391635D01*
X9692615Y4366243D01*
X9616440D01*
X9768791Y4442419D02*
X9794183Y4467811D01*
X9844966D01*
X9870358Y4442419D01*
Y4417027D01*
X9844966Y4391635D01*
X9819574D01*
X9844966D01*
X9870358Y4366243D01*
Y4340852D01*
X9844966Y4315460D01*
X9794183D01*
X9768791Y4340852D01*
X929640Y950580D02*
Y1102931D01*
X1005815D01*
X1031207Y1077539D01*
Y1026755D01*
X1005815Y1001364D01*
X929640D01*
X1081991Y1102931D02*
X1183558D01*
Y1077539D01*
X1081991Y975972D01*
Y950580D01*
X5184140Y7350760D02*
Y7503111D01*
X5260315D01*
X5285707Y7477719D01*
Y7426935D01*
X5260315Y7401543D01*
X5184140D01*
X5438058Y7503111D02*
X5336491D01*
Y7426935D01*
X5387274Y7452327D01*
X5412666D01*
X5438058Y7426935D01*
Y7376152D01*
X5412666Y7350760D01*
X5361883D01*
X5336491Y7376152D01*
X6311867Y1109931D02*
X6261083D01*
X6286475D01*
Y982972D01*
X6261083Y957580D01*
X6235692D01*
X6210300Y982972D01*
X6362651Y957580D02*
X6413434D01*
X6388043D01*
Y1109931D01*
X6362651Y1084539D01*
X9044907Y6631891D02*
X8994123D01*
X9019515D01*
Y6504932D01*
X8994123Y6479540D01*
X8968732D01*
X8943340Y6504932D01*
X9197258Y6479540D02*
X9095691D01*
X9197258Y6581107D01*
Y6606499D01*
X9171866Y6631891D01*
X9121083D01*
X9095691Y6606499D01*
X2722847Y5598119D02*
X2697455Y5623511D01*
X2646672D01*
X2621280Y5598119D01*
Y5496552D01*
X2646672Y5471160D01*
X2697455D01*
X2722847Y5496552D01*
X2773631Y5471160D02*
X2824414D01*
X2799023D01*
Y5623511D01*
X2773631Y5598119D01*
D77*
X5041900Y5613400D02*
Y5655720D01*
Y5634560D01*
X4914941D01*
X4936101Y5613400D01*
X4787900Y5647239D02*
Y5562600D01*
X4703261Y5647239D01*
X4682101D01*
X4660941Y5626079D01*
Y5583760D01*
X4682101Y5562600D01*
X4914941Y6561639D02*
Y6477000D01*
X4978421D01*
X4957261Y6519320D01*
Y6540479D01*
X4978421Y6561639D01*
X5020740D01*
X5041900Y6540479D01*
Y6498160D01*
X5020740Y6477000D01*
X4660941Y6561639D02*
X4682101Y6519320D01*
X4724421Y6477000D01*
X4766740D01*
X4787900Y6498160D01*
Y6540479D01*
X4766740Y6561639D01*
X4745580D01*
X4724421Y6540479D01*
Y6477000D01*
%TF.MD5,27e988faa3ac24ec7bb55a10734fb7be*%
M02*
