%TF.GenerationSoftware,Altium Limited,Altium Designer,22.8.2 (66)*%
G04 Layer_Color=255*
%FSLAX45Y45*%
%MOMM*%
%TF.SameCoordinates,BD556100-397B-4985-8EB5-C039F1F1876F*%
%TF.FilePolarity,Positive*%
%TF.FileFunction,Pads,Top*%
%TF.Part,Single*%
G01*
G75*
%TA.AperFunction,SMDPad,CuDef*%
%ADD10R,2.60000X1.10000*%
%ADD11R,1.73000X0.96000*%
%ADD12R,6.49000X5.63000*%
%ADD13R,0.90000X0.80000*%
%ADD14R,1.10000X1.70000*%
%ADD15R,1.50000X0.40000*%
%ADD16R,0.40000X1.50000*%
G04:AMPARAMS|DCode=17|XSize=1.31mm|YSize=0.93mm|CornerRadius=0.06975mm|HoleSize=0mm|Usage=FLASHONLY|Rotation=180.000|XOffset=0mm|YOffset=0mm|HoleType=Round|Shape=RoundedRectangle|*
%AMROUNDEDRECTD17*
21,1,1.31000,0.79050,0,0,180.0*
21,1,1.17050,0.93000,0,0,180.0*
1,1,0.13950,-0.58525,0.39525*
1,1,0.13950,0.58525,0.39525*
1,1,0.13950,0.58525,-0.39525*
1,1,0.13950,-0.58525,-0.39525*
%
%ADD17ROUNDEDRECTD17*%
G04:AMPARAMS|DCode=18|XSize=1.31mm|YSize=3.24mm|CornerRadius=0.09825mm|HoleSize=0mm|Usage=FLASHONLY|Rotation=180.000|XOffset=0mm|YOffset=0mm|HoleType=Round|Shape=RoundedRectangle|*
%AMROUNDEDRECTD18*
21,1,1.31000,3.04350,0,0,180.0*
21,1,1.11350,3.24000,0,0,180.0*
1,1,0.19650,-0.55675,1.52175*
1,1,0.19650,0.55675,1.52175*
1,1,0.19650,0.55675,-1.52175*
1,1,0.19650,-0.55675,-1.52175*
%
%ADD18ROUNDEDRECTD18*%
%ADD19R,1.60000X1.40000*%
%ADD20R,2.43200X5.91180*%
%ADD21R,5.63000X6.49000*%
%ADD22R,0.96000X1.73000*%
G04:AMPARAMS|DCode=23|XSize=1.31mm|YSize=0.62mm|CornerRadius=0.0775mm|HoleSize=0mm|Usage=FLASHONLY|Rotation=180.000|XOffset=0mm|YOffset=0mm|HoleType=Round|Shape=RoundedRectangle|*
%AMROUNDEDRECTD23*
21,1,1.31000,0.46500,0,0,180.0*
21,1,1.15500,0.62000,0,0,180.0*
1,1,0.15500,-0.57750,0.23250*
1,1,0.15500,0.57750,0.23250*
1,1,0.15500,0.57750,-0.23250*
1,1,0.15500,-0.57750,-0.23250*
%
%ADD23ROUNDEDRECTD23*%
%TA.AperFunction,ComponentPad*%
%ADD26C,2.20000*%
%ADD27C,3.00000*%
%ADD28C,1.40000*%
%ADD29R,1.50000X1.50000*%
%ADD30C,1.50000*%
%ADD31O,2.22000X1.00000*%
%ADD32R,1.50000X1.50000*%
%ADD33C,1.81500*%
%ADD34R,1.81500X1.81500*%
%ADD35C,1.35800*%
%TA.AperFunction,ViaPad*%
%ADD36C,4.00000*%
%TA.AperFunction,ComponentPad*%
%ADD37C,1.35000*%
%ADD38R,1.35000X1.35000*%
%ADD39C,1.80000*%
%ADD40R,1.80000X1.80000*%
%ADD41R,1.65000X1.65000*%
%ADD42C,1.65000*%
%ADD43C,3.31600*%
%ADD44C,1.40800*%
%ADD45R,1.40800X1.40800*%
D10*
X5143500Y4186300D02*
D03*
Y3916300D02*
D03*
D11*
X8128000Y3555797D02*
D03*
Y3098800D02*
D03*
D12*
X8830000Y3327298D02*
D03*
D13*
X5135902Y4473175D02*
D03*
Y4613175D02*
D03*
X5130800Y5035700D02*
D03*
Y4895700D02*
D03*
D14*
X7942200Y4775200D02*
D03*
X8212200D02*
D03*
X1711200Y5067300D02*
D03*
X1981200D02*
D03*
X1720937Y4680656D02*
D03*
X1990937D02*
D03*
D15*
X4621000Y4674200D02*
D03*
Y4594200D02*
D03*
Y4514200D02*
D03*
Y4434200D02*
D03*
Y4354200D02*
D03*
Y4274200D02*
D03*
Y4194200D02*
D03*
Y4114200D02*
D03*
X3761000Y4674200D02*
D03*
Y4594200D02*
D03*
Y4514200D02*
D03*
Y4434200D02*
D03*
Y4354200D02*
D03*
Y4274200D02*
D03*
Y4194200D02*
D03*
Y4114200D02*
D03*
D16*
X4471000Y3964200D02*
D03*
X4391000D02*
D03*
X4311000D02*
D03*
X4231000D02*
D03*
X4151000D02*
D03*
X4071000D02*
D03*
X3991000D02*
D03*
X3911000D02*
D03*
X4471000Y4824200D02*
D03*
X4391000D02*
D03*
X4311000D02*
D03*
X4231000D02*
D03*
X4151000D02*
D03*
X4071000D02*
D03*
X3991000D02*
D03*
X3911000D02*
D03*
D17*
X1363200Y4635100D02*
D03*
Y4864100D02*
D03*
Y5093100D02*
D03*
D18*
X694200Y4864100D02*
D03*
D19*
X4576400Y2936100D02*
D03*
Y3236100D02*
D03*
X3856400D02*
D03*
Y2936100D02*
D03*
D20*
X5727700Y4164810D02*
D03*
Y5182390D02*
D03*
D21*
X7569200Y1714500D02*
D03*
D22*
X7340702Y2416500D02*
D03*
X7797698D02*
D03*
D23*
X7759700Y5130800D02*
D03*
Y5257800D02*
D03*
Y5384800D02*
D03*
Y5511800D02*
D03*
Y5638800D02*
D03*
Y5765800D02*
D03*
Y5892800D02*
D03*
Y6019800D02*
D03*
X8309700D02*
D03*
Y5892800D02*
D03*
Y5765800D02*
D03*
Y5638800D02*
D03*
Y5511800D02*
D03*
Y5384800D02*
D03*
Y5257800D02*
D03*
Y5130800D02*
D03*
D26*
X332000Y1898300D02*
D03*
X2132000D02*
D03*
X332000Y5948300D02*
D03*
X2132000D02*
D03*
D27*
X2032000Y5448300D02*
D03*
X432000Y2398300D02*
D03*
D28*
X8166100Y3924300D02*
D03*
X8928100D02*
D03*
Y4279900D02*
D03*
X8166100D02*
D03*
X3568700Y6654800D02*
D03*
Y5892800D02*
D03*
X3441700Y3581400D02*
D03*
Y2819400D02*
D03*
X8610600Y1409700D02*
D03*
Y2171700D02*
D03*
X8255000D02*
D03*
Y1409700D02*
D03*
D29*
X9680100Y3124200D02*
D03*
X4991100Y5816600D02*
D03*
X9677400Y3848100D02*
D03*
D30*
X9680100Y3378200D02*
D03*
X1231900Y6642100D02*
D03*
X1739900D02*
D03*
X1993900D02*
D03*
X2247900D02*
D03*
X2501900D02*
D03*
X2755900D02*
D03*
X3009900D02*
D03*
X3263900D02*
D03*
X1485900D02*
D03*
X4737100Y6324600D02*
D03*
X4991100D02*
D03*
X4737100Y6070600D02*
D03*
X4991100D02*
D03*
X4737100Y5816600D02*
D03*
X4190778Y389521D02*
D03*
X3936778D02*
D03*
X3682778D02*
D03*
X3428778D02*
D03*
X3174778D02*
D03*
X2920778D02*
D03*
X2666778D02*
D03*
X9677400Y4102100D02*
D03*
X5295900Y6629400D02*
D03*
X5549900D02*
D03*
X5803900D02*
D03*
X6057900D02*
D03*
D31*
X2908475Y3479800D02*
D03*
Y3225800D02*
D03*
Y3352800D02*
D03*
D32*
X977900Y6642100D02*
D03*
X2412778Y389521D02*
D03*
X6311900Y6629400D02*
D03*
D33*
X4025900Y6591300D02*
D03*
D34*
Y6337300D02*
D03*
D35*
X4953000Y1575800D02*
D03*
Y2335800D02*
D03*
D36*
X300000Y6700000D02*
D03*
X9700000D02*
D03*
Y300000D02*
D03*
X300000D02*
D03*
D37*
X2806701Y5317300D02*
D03*
D38*
X2806699Y4817300D02*
D03*
D39*
X9089900Y444500D02*
D03*
X8589900D02*
D03*
X8089900D02*
D03*
X7589900D02*
D03*
X7089900D02*
D03*
D40*
X6589900D02*
D03*
D41*
X1219200Y437500D02*
D03*
D42*
X1727200D02*
D03*
D43*
X9525000Y6210300D02*
D03*
Y5006300D02*
D03*
D44*
X9255000Y5733300D02*
D03*
Y5483300D02*
D03*
X9055000D02*
D03*
D45*
Y5733300D02*
D03*
%TF.MD5,7880065bed1e605dd8899755637be2fc*%
M02*
