%TF.GenerationSoftware,Altium Limited,Altium Designer,22.8.2 (66)*%
G04 Layer_Color=1930808*
%FSLAX45Y45*%
%MOMM*%
%TF.SameCoordinates,BD556100-397B-4985-8EB5-C039F1F1876F*%
%TF.FilePolarity,Positive*%
%TF.FileFunction,Other,Mechanical_15*%
%TF.Part,Single*%
G01*
G75*
%TA.AperFunction,NonConductor*%
%ADD71C,0.20000*%
%ADD72C,0.15240*%
%ADD92C,0.10000*%
%ADD95C,0.05000*%
G36*
X5462270Y3843820D02*
Y5503380D01*
X5993130D01*
Y3843820D01*
X5462270D01*
D02*
G37*
D71*
X8103078Y3002178D02*
X9098758D01*
X8103078D02*
Y3657498D01*
X9098758Y3002178D02*
Y3657498D01*
X9027297D02*
X9098758D01*
X8367197D02*
X9027297D01*
X8103078D02*
X8367197D01*
X7899400Y2177303D02*
Y2441423D01*
Y1517203D02*
Y2177303D01*
Y1445743D02*
Y1517203D01*
X7244080Y1445743D02*
X7899400D01*
X7244080Y2441423D02*
X7899400D01*
X7244080Y1445743D02*
Y2441423D01*
D72*
X5462270Y3843820D02*
Y5503380D01*
Y3843820D02*
X5993130D01*
Y5503380D01*
X5462270D02*
X5993130D01*
D92*
X5003500Y4251300D02*
X5283500D01*
X5003500Y3851300D02*
X5283500D01*
Y4251300D01*
X5003500Y3851300D02*
Y4251300D01*
X5143500Y4001300D02*
Y4101300D01*
X5093500Y4051300D02*
X5193500D01*
X5088402Y4543175D02*
X5183402D01*
X5135902Y4495675D02*
Y4590675D01*
X5080902Y4423175D02*
Y4663175D01*
X5190902Y4423175D02*
Y4663175D01*
X5080902Y4423175D02*
X5190902D01*
X5080902Y4663175D02*
X5190902D01*
X7877200Y4680200D02*
Y4870200D01*
X8277200Y4680200D02*
Y4870200D01*
X7877200D02*
X8277200D01*
X7877200Y4680200D02*
X8277200D01*
X8027200Y4775200D02*
X8127200D01*
X8077200Y4725200D02*
Y4825200D01*
X1646200Y4972300D02*
Y5162300D01*
X2046200Y4972300D02*
Y5162300D01*
X1646200D02*
X2046200D01*
X1646200Y4972300D02*
X2046200D01*
X1796200Y5067300D02*
X1896200D01*
X1846200Y5017300D02*
Y5117300D01*
X1655936Y4585656D02*
Y4775656D01*
X2055937Y4585656D02*
Y4775656D01*
X1655936D02*
X2055937D01*
X1655936Y4585656D02*
X2055937D01*
X1805937Y4680656D02*
X1905936D01*
X1855937Y4630656D02*
Y4730656D01*
X5083300Y4965700D02*
X5178300D01*
X5130800Y4918200D02*
Y5013200D01*
X5185800Y4845700D02*
Y5085700D01*
X5075800Y4845700D02*
Y5085700D01*
X5185800D01*
X5075800Y4845700D02*
X5185800D01*
D95*
X2941883Y3079665D02*
G03*
X2941883Y3625935I14314J273135D01*
G01*
X4191101Y6190018D02*
G03*
X3860699Y6190018I-165201J274941D01*
G01*
X5578000Y1955800D02*
G03*
X5578000Y1955800I-625000J0D01*
G01*
X2784500Y3625800D02*
X2939500D01*
X2784500Y3079800D02*
X2939500D01*
X2784500D02*
Y3625800D01*
X3861900Y6189300D02*
X4189900D01*
X3641000Y4944200D02*
X4741000D01*
X3641000Y3844200D02*
Y4944200D01*
Y3844200D02*
X4741000D01*
Y4944200D01*
X603700Y4513850D02*
X1453700D01*
Y5214350D01*
X603700D02*
X1453700D01*
X603700Y4513850D02*
Y5214350D01*
X4681400Y2836100D02*
Y3336100D01*
X3751400D02*
X4681400D01*
X3751400Y2836100D02*
Y3336100D01*
Y2836100D02*
X4681400D01*
X6254900Y879500D02*
X9364900D01*
Y9500D02*
Y879500D01*
X6254900Y9500D02*
X9364900D01*
X6254900D02*
Y879500D01*
X7669200Y5050300D02*
X8400200D01*
X7669200D02*
Y6100300D01*
X8400200D01*
Y5050300D02*
Y6100300D01*
X940200Y872500D02*
X2006200D01*
Y2500D02*
Y872500D01*
X940200Y2500D02*
X2006200D01*
X940200D02*
Y872500D01*
X8920000Y4978300D02*
X9334000D01*
Y4815300D02*
Y4978300D01*
Y4815300D02*
X9716000D01*
Y4978300D01*
X10590000D01*
Y6238300D01*
X9716000D02*
X10590000D01*
X9716000D02*
Y6401300D01*
X9334000D02*
X9716000D01*
X9334000Y6238300D02*
Y6401300D01*
X8920000Y6238300D02*
X9334000D01*
X8920000Y4978300D02*
Y6238300D01*
%TF.MD5,61eac6cee91d3136846b501c57a58728*%
M02*
