%TF.GenerationSoftware,Altium Limited,Altium Designer,22.8.2 (66)*%
G04 Layer_Color=8388736*
%FSLAX45Y45*%
%MOMM*%
%TF.SameCoordinates,BD556100-397B-4985-8EB5-C039F1F1876F*%
%TF.FilePolarity,Negative*%
%TF.FileFunction,Soldermask,Top*%
%TF.Part,Single*%
G01*
G75*
%TA.AperFunction,SMDPad,CuDef*%
%ADD20R,2.43200X5.91180*%
%TA.AperFunction,ComponentPad*%
%ADD47C,2.40320*%
%ADD48C,3.20320*%
%ADD49C,1.60320*%
%ADD50R,1.70320X1.70320*%
%ADD51C,1.70320*%
%ADD52O,2.42320X1.20320*%
%ADD53R,1.70320X1.70320*%
%ADD54C,2.01820*%
%ADD55R,2.01820X2.01820*%
%ADD56C,1.56120*%
%TA.AperFunction,ViaPad*%
%ADD57C,4.20320*%
%TA.AperFunction,ComponentPad*%
%ADD58C,1.55320*%
%ADD59R,1.55320X1.55320*%
%ADD60C,2.00320*%
%ADD61R,2.00320X2.00320*%
%ADD62R,1.85320X1.85320*%
%ADD63C,1.85320*%
%ADD64C,3.51920*%
%ADD65C,1.61120*%
%ADD66R,1.61120X1.61120*%
%TA.AperFunction,ViaPad*%
%ADD67C,1.40320*%
%TA.AperFunction,SMDPad,CuDef*%
%ADD78R,2.80320X1.30320*%
%ADD79R,1.93320X1.16320*%
%ADD80R,6.69320X5.83320*%
%ADD81R,1.10320X1.00320*%
%ADD82R,1.30320X1.90320*%
%ADD83R,1.70320X0.60320*%
%ADD84R,0.60320X1.70320*%
G04:AMPARAMS|DCode=85|XSize=1.5132mm|YSize=1.1332mm|CornerRadius=0.17135mm|HoleSize=0mm|Usage=FLASHONLY|Rotation=180.000|XOffset=0mm|YOffset=0mm|HoleType=Round|Shape=RoundedRectangle|*
%AMROUNDEDRECTD85*
21,1,1.51320,0.79050,0,0,180.0*
21,1,1.17050,1.13320,0,0,180.0*
1,1,0.34270,-0.58525,0.39525*
1,1,0.34270,0.58525,0.39525*
1,1,0.34270,0.58525,-0.39525*
1,1,0.34270,-0.58525,-0.39525*
%
%ADD85ROUNDEDRECTD85*%
G04:AMPARAMS|DCode=86|XSize=1.5132mm|YSize=3.4432mm|CornerRadius=0.19985mm|HoleSize=0mm|Usage=FLASHONLY|Rotation=180.000|XOffset=0mm|YOffset=0mm|HoleType=Round|Shape=RoundedRectangle|*
%AMROUNDEDRECTD86*
21,1,1.51320,3.04350,0,0,180.0*
21,1,1.11350,3.44320,0,0,180.0*
1,1,0.39970,-0.55675,1.52175*
1,1,0.39970,0.55675,1.52175*
1,1,0.39970,0.55675,-1.52175*
1,1,0.39970,-0.55675,-1.52175*
%
%ADD86ROUNDEDRECTD86*%
%ADD87R,1.80320X1.60320*%
%ADD88R,5.83320X6.69320*%
%ADD89R,1.16320X1.93320*%
G04:AMPARAMS|DCode=90|XSize=1.5132mm|YSize=0.8232mm|CornerRadius=0.1791mm|HoleSize=0mm|Usage=FLASHONLY|Rotation=180.000|XOffset=0mm|YOffset=0mm|HoleType=Round|Shape=RoundedRectangle|*
%AMROUNDEDRECTD90*
21,1,1.51320,0.46500,0,0,180.0*
21,1,1.15500,0.82320,0,0,180.0*
1,1,0.35820,-0.57750,0.23250*
1,1,0.35820,0.57750,0.23250*
1,1,0.35820,0.57750,-0.23250*
1,1,0.35820,-0.57750,-0.23250*
%
%ADD90ROUNDEDRECTD90*%
D20*
X5727700Y4164810D02*
D03*
Y5182390D02*
D03*
D47*
X332000Y1898300D02*
D03*
X2132000D02*
D03*
X332000Y5948300D02*
D03*
X2132000D02*
D03*
D48*
X2032000Y5448300D02*
D03*
X432000Y2398300D02*
D03*
D49*
X8166100Y3924300D02*
D03*
X8928100D02*
D03*
Y4279900D02*
D03*
X8166100D02*
D03*
X3568700Y6654800D02*
D03*
Y5892800D02*
D03*
X3441700Y3581400D02*
D03*
Y2819400D02*
D03*
X8610600Y1409700D02*
D03*
Y2171700D02*
D03*
X8255000D02*
D03*
Y1409700D02*
D03*
D50*
X9680100Y3124200D02*
D03*
X4991100Y5816600D02*
D03*
X9677400Y3848100D02*
D03*
D51*
X9680100Y3378200D02*
D03*
X1231900Y6642100D02*
D03*
X1739900D02*
D03*
X1993900D02*
D03*
X2247900D02*
D03*
X2501900D02*
D03*
X2755900D02*
D03*
X3009900D02*
D03*
X3263900D02*
D03*
X1485900D02*
D03*
X4737100Y6324600D02*
D03*
X4991100D02*
D03*
X4737100Y6070600D02*
D03*
X4991100D02*
D03*
X4737100Y5816600D02*
D03*
X4190778Y389521D02*
D03*
X3936778D02*
D03*
X3682778D02*
D03*
X3428778D02*
D03*
X3174778D02*
D03*
X2920778D02*
D03*
X2666778D02*
D03*
X9677400Y4102100D02*
D03*
X5295900Y6629400D02*
D03*
X5549900D02*
D03*
X5803900D02*
D03*
X6057900D02*
D03*
D52*
X2908475Y3479800D02*
D03*
Y3225800D02*
D03*
Y3352800D02*
D03*
D53*
X977900Y6642100D02*
D03*
X2412778Y389521D02*
D03*
X6311900Y6629400D02*
D03*
D54*
X4025900Y6591300D02*
D03*
D55*
Y6337300D02*
D03*
D56*
X4953000Y1575800D02*
D03*
Y2335800D02*
D03*
D57*
X300000Y6700000D02*
D03*
X9700000D02*
D03*
Y300000D02*
D03*
X300000D02*
D03*
D58*
X2806701Y5317300D02*
D03*
D59*
X2806699Y4817300D02*
D03*
D60*
X9089900Y444500D02*
D03*
X8589900D02*
D03*
X8089900D02*
D03*
X7589900D02*
D03*
X7089900D02*
D03*
D61*
X6589900D02*
D03*
D62*
X1219200Y437500D02*
D03*
D63*
X1727200D02*
D03*
D64*
X9525000Y6210300D02*
D03*
Y5006300D02*
D03*
D65*
X9255000Y5733300D02*
D03*
Y5483300D02*
D03*
X9055000D02*
D03*
D66*
Y5733300D02*
D03*
D67*
X2641600Y4521200D02*
D03*
X1358900Y5448300D02*
D03*
X8039100Y2184400D02*
D03*
X9258300Y4711700D02*
D03*
X9372600Y6502400D02*
D03*
X8788400Y6083300D02*
D03*
X9436100Y3378200D02*
D03*
X1536700Y1219200D02*
D03*
X1714500D02*
D03*
X1900710Y1217899D02*
D03*
X1905000Y1041400D02*
D03*
X1714500D02*
D03*
X1534687Y1042382D02*
D03*
X2665240Y738360D02*
D03*
X4953000Y1181100D02*
D03*
X8788400Y4978400D02*
D03*
X8789800Y5185785D02*
D03*
X4925840Y3202160D02*
D03*
X4951240Y6707360D02*
D03*
X5549900Y6375400D02*
D03*
X5803900D02*
D03*
X3340100Y4673600D02*
D03*
X3162300Y3746500D02*
D03*
X3517900Y4673600D02*
D03*
X4432300Y5143500D02*
D03*
X4254500D02*
D03*
X4076700D02*
D03*
X3111500Y5257800D02*
D03*
Y5918200D02*
D03*
Y5524500D02*
D03*
Y5727700D02*
D03*
X9092475Y1120111D02*
D03*
X3632200Y3238500D02*
D03*
X4348300Y3713300D02*
D03*
X4508500Y3619500D02*
D03*
X4622800Y3467100D02*
D03*
X8788400Y5397500D02*
D03*
X8775700Y5600700D02*
D03*
X3022600Y4610100D02*
D03*
X977900Y6261100D02*
D03*
X4572000Y736600D02*
D03*
X4356100D02*
D03*
X3937000D02*
D03*
X3683000D02*
D03*
X3429000D02*
D03*
X7340600Y1016000D02*
D03*
D78*
X5143500Y4186300D02*
D03*
Y3916300D02*
D03*
D79*
X8128000Y3555797D02*
D03*
Y3098800D02*
D03*
D80*
X8830000Y3327298D02*
D03*
D81*
X5135902Y4473175D02*
D03*
Y4613175D02*
D03*
X5130800Y5035700D02*
D03*
Y4895700D02*
D03*
D82*
X7942200Y4775200D02*
D03*
X8212200D02*
D03*
X1711200Y5067300D02*
D03*
X1981200D02*
D03*
X1720937Y4680656D02*
D03*
X1990937D02*
D03*
D83*
X4621000Y4674200D02*
D03*
Y4594200D02*
D03*
Y4514200D02*
D03*
Y4434200D02*
D03*
Y4354200D02*
D03*
Y4274200D02*
D03*
Y4194200D02*
D03*
Y4114200D02*
D03*
X3761000Y4674200D02*
D03*
Y4594200D02*
D03*
Y4514200D02*
D03*
Y4434200D02*
D03*
Y4354200D02*
D03*
Y4274200D02*
D03*
Y4194200D02*
D03*
Y4114200D02*
D03*
D84*
X4471000Y3964200D02*
D03*
X4391000D02*
D03*
X4311000D02*
D03*
X4231000D02*
D03*
X4151000D02*
D03*
X4071000D02*
D03*
X3991000D02*
D03*
X3911000D02*
D03*
X4471000Y4824200D02*
D03*
X4391000D02*
D03*
X4311000D02*
D03*
X4231000D02*
D03*
X4151000D02*
D03*
X4071000D02*
D03*
X3991000D02*
D03*
X3911000D02*
D03*
D85*
X1363200Y4635100D02*
D03*
Y4864100D02*
D03*
Y5093100D02*
D03*
D86*
X694200Y4864100D02*
D03*
D87*
X4576400Y2936100D02*
D03*
Y3236100D02*
D03*
X3856400D02*
D03*
Y2936100D02*
D03*
D88*
X7569200Y1714500D02*
D03*
D89*
X7340702Y2416500D02*
D03*
X7797698D02*
D03*
D90*
X7759700Y5130800D02*
D03*
Y5257800D02*
D03*
Y5384800D02*
D03*
Y5511800D02*
D03*
Y5638800D02*
D03*
Y5765800D02*
D03*
Y5892800D02*
D03*
Y6019800D02*
D03*
X8309700D02*
D03*
Y5892800D02*
D03*
Y5765800D02*
D03*
Y5638800D02*
D03*
Y5511800D02*
D03*
Y5384800D02*
D03*
Y5257800D02*
D03*
Y5130800D02*
D03*
%TF.MD5,c388c8a34e697f49a4ed557850427a8c*%
M02*
