%TF.GenerationSoftware,Altium Limited,Altium Designer,22.8.2 (66)*%
G04 Layer_Physical_Order=1*
G04 Layer_Color=255*
%FSLAX45Y45*%
%MOMM*%
%TF.SameCoordinates,BD556100-397B-4985-8EB5-C039F1F1876F*%
%TF.FilePolarity,Positive*%
%TF.FileFunction,Copper,L1,Top,Signal*%
%TF.Part,Single*%
G01*
G75*
%TA.AperFunction,SMDPad,CuDef*%
%ADD10R,2.60000X1.10000*%
%ADD11R,1.73000X0.96000*%
%ADD12R,6.49000X5.63000*%
%ADD13R,0.90000X0.80000*%
%ADD14R,1.10000X1.70000*%
%ADD15R,1.50000X0.40000*%
%ADD16R,0.40000X1.50000*%
G04:AMPARAMS|DCode=17|XSize=1.31mm|YSize=0.93mm|CornerRadius=0.06975mm|HoleSize=0mm|Usage=FLASHONLY|Rotation=180.000|XOffset=0mm|YOffset=0mm|HoleType=Round|Shape=RoundedRectangle|*
%AMROUNDEDRECTD17*
21,1,1.31000,0.79050,0,0,180.0*
21,1,1.17050,0.93000,0,0,180.0*
1,1,0.13950,-0.58525,0.39525*
1,1,0.13950,0.58525,0.39525*
1,1,0.13950,0.58525,-0.39525*
1,1,0.13950,-0.58525,-0.39525*
%
%ADD17ROUNDEDRECTD17*%
G04:AMPARAMS|DCode=18|XSize=1.31mm|YSize=3.24mm|CornerRadius=0.09825mm|HoleSize=0mm|Usage=FLASHONLY|Rotation=180.000|XOffset=0mm|YOffset=0mm|HoleType=Round|Shape=RoundedRectangle|*
%AMROUNDEDRECTD18*
21,1,1.31000,3.04350,0,0,180.0*
21,1,1.11350,3.24000,0,0,180.0*
1,1,0.19650,-0.55675,1.52175*
1,1,0.19650,0.55675,1.52175*
1,1,0.19650,0.55675,-1.52175*
1,1,0.19650,-0.55675,-1.52175*
%
%ADD18ROUNDEDRECTD18*%
%ADD19R,1.60000X1.40000*%
%ADD20R,2.43200X5.91180*%
%ADD21R,5.63000X6.49000*%
%ADD22R,0.96000X1.73000*%
G04:AMPARAMS|DCode=23|XSize=1.31mm|YSize=0.62mm|CornerRadius=0.0775mm|HoleSize=0mm|Usage=FLASHONLY|Rotation=180.000|XOffset=0mm|YOffset=0mm|HoleType=Round|Shape=RoundedRectangle|*
%AMROUNDEDRECTD23*
21,1,1.31000,0.46500,0,0,180.0*
21,1,1.15500,0.62000,0,0,180.0*
1,1,0.15500,-0.57750,0.23250*
1,1,0.15500,0.57750,0.23250*
1,1,0.15500,0.57750,-0.23250*
1,1,0.15500,-0.57750,-0.23250*
%
%ADD23ROUNDEDRECTD23*%
%TA.AperFunction,Conductor*%
%ADD24C,0.40000*%
%ADD25C,1.00000*%
%TA.AperFunction,ComponentPad*%
%ADD26C,2.20000*%
%ADD27C,3.00000*%
%ADD28C,1.40000*%
%ADD29R,1.50000X1.50000*%
%ADD30C,1.50000*%
%ADD31O,2.22000X1.00000*%
%ADD32R,1.50000X1.50000*%
%ADD33C,1.81500*%
%ADD34R,1.81500X1.81500*%
%ADD35C,1.35800*%
%TA.AperFunction,ViaPad*%
%ADD36C,4.00000*%
%TA.AperFunction,ComponentPad*%
%ADD37C,1.35000*%
%ADD38R,1.35000X1.35000*%
%ADD39C,1.80000*%
%ADD40R,1.80000X1.80000*%
%ADD41R,1.65000X1.65000*%
%ADD42C,1.65000*%
%ADD43C,3.31600*%
%ADD44C,1.40800*%
%ADD45R,1.40800X1.40800*%
%TA.AperFunction,ViaPad*%
%ADD46C,1.20000*%
G36*
X25400Y6985000D02*
X9982200D01*
Y25400D01*
X9995867Y11733D01*
X9991006Y0D01*
X0D01*
Y6993806D01*
X11733Y6998667D01*
X25400Y6985000D01*
D02*
G37*
%LPC*%
G36*
X1245118Y6742500D02*
X1244600D01*
Y6654800D01*
X1332300D01*
Y6655318D01*
X1325458Y6680853D01*
X1312240Y6703747D01*
X1293547Y6722440D01*
X1270653Y6735658D01*
X1245118Y6742500D01*
D02*
G37*
G36*
X1219200D02*
X1218682D01*
X1193147Y6735658D01*
X1170253Y6722440D01*
X1151560Y6703747D01*
X1138342Y6680853D01*
X1131500Y6655318D01*
Y6654800D01*
X1219200D01*
Y6742500D01*
D02*
G37*
G36*
X5309118Y6729800D02*
X5308600D01*
Y6642100D01*
X5396300D01*
Y6642618D01*
X5389458Y6668153D01*
X5376240Y6691047D01*
X5357547Y6709740D01*
X5334653Y6722958D01*
X5309118Y6729800D01*
D02*
G37*
G36*
X5283200D02*
X5282682D01*
X5257147Y6722958D01*
X5234253Y6709740D01*
X5215560Y6691047D01*
X5202342Y6668153D01*
X5195500Y6642618D01*
Y6642100D01*
X5283200D01*
Y6729800D01*
D02*
G37*
G36*
X803100Y6919990D02*
X785386Y6916466D01*
X770368Y6906432D01*
X716568Y6852632D01*
X706534Y6837614D01*
X703010Y6819900D01*
X703011Y6819899D01*
Y5806505D01*
X453737Y5557232D01*
X443702Y5542214D01*
X440179Y5524500D01*
X440179Y5524499D01*
Y4491933D01*
X440179Y4491932D01*
X443702Y4474217D01*
X453737Y4459200D01*
X671468Y4241469D01*
X671468Y4241468D01*
X686486Y4231434D01*
X704200Y4227911D01*
X2620487D01*
X2625747Y4215211D01*
X2304068Y3893532D01*
X2294034Y3878514D01*
X2290510Y3860800D01*
X2290511Y3860799D01*
Y2669184D01*
X2290510Y2669183D01*
X2294034Y2651469D01*
X2304068Y2636451D01*
X3382711Y1557809D01*
Y808486D01*
X3376563Y804937D01*
X3360663Y789037D01*
X3349420Y769563D01*
X3343600Y747843D01*
Y725357D01*
X3349420Y703637D01*
X3360663Y684163D01*
X3376563Y668263D01*
X3396037Y657020D01*
X3417757Y651200D01*
X3440243D01*
X3461963Y657020D01*
X3481437Y668263D01*
X3497337Y684163D01*
X3508580Y703637D01*
X3514400Y725357D01*
Y747843D01*
X3508580Y769563D01*
X3497337Y789037D01*
X3481437Y804937D01*
X3475289Y808486D01*
Y1576983D01*
X3473352Y1586724D01*
X3485056Y1592980D01*
X3636711Y1441326D01*
Y808486D01*
X3630563Y804937D01*
X3614663Y789037D01*
X3603420Y769563D01*
X3597600Y747843D01*
Y725357D01*
X3603420Y703637D01*
X3614663Y684163D01*
X3630563Y668263D01*
X3650037Y657020D01*
X3671757Y651200D01*
X3694243D01*
X3715963Y657020D01*
X3735437Y668263D01*
X3751337Y684163D01*
X3762580Y703637D01*
X3768400Y725357D01*
Y747843D01*
X3762580Y769563D01*
X3751337Y789037D01*
X3735437Y804937D01*
X3729289Y808486D01*
Y1460499D01*
X3729290Y1460500D01*
X3726810Y1472966D01*
X3738514Y1479222D01*
X3890711Y1327026D01*
Y808486D01*
X3884563Y804937D01*
X3868663Y789037D01*
X3857420Y769563D01*
X3851600Y747843D01*
Y725357D01*
X3857420Y703637D01*
X3868663Y684163D01*
X3884563Y668263D01*
X3904037Y657020D01*
X3925757Y651200D01*
X3948243D01*
X3969963Y657020D01*
X3989437Y668263D01*
X4005337Y684163D01*
X4016580Y703637D01*
X4022400Y725357D01*
Y747843D01*
X4016580Y769563D01*
X4005337Y789037D01*
X3989437Y804937D01*
X3983289Y808486D01*
Y1346199D01*
X3983290Y1346200D01*
X3979766Y1363914D01*
X3969732Y1378932D01*
X3969731Y1378932D01*
X2586289Y2762374D01*
Y3409826D01*
X3094374Y3917911D01*
X3865600D01*
Y3863800D01*
X3944710D01*
Y3489474D01*
X3854326Y3399089D01*
X3028995D01*
X3023251Y3406576D01*
X3018854Y3409950D01*
Y3422650D01*
X3023251Y3426024D01*
X3035337Y3441775D01*
X3042934Y3460117D01*
X3043854Y3467100D01*
X2773096D01*
X2774016Y3460117D01*
X2781613Y3441775D01*
X2793699Y3426024D01*
X2798096Y3422650D01*
Y3409950D01*
X2793699Y3406576D01*
X2781613Y3390825D01*
X2774016Y3372483D01*
X2771424Y3352800D01*
X2774016Y3333117D01*
X2781613Y3314775D01*
X2793699Y3299024D01*
X2798096Y3295650D01*
Y3282950D01*
X2793699Y3279576D01*
X2781613Y3263825D01*
X2774016Y3245483D01*
X2771424Y3225800D01*
X2774016Y3206117D01*
X2781613Y3187775D01*
X2793699Y3172024D01*
X2809450Y3159938D01*
X2827791Y3152341D01*
X2847475Y3149749D01*
X2969475D01*
X2989159Y3152341D01*
X3007500Y3159938D01*
X3023251Y3172024D01*
X3035337Y3187775D01*
X3042934Y3206117D01*
X3045526Y3225800D01*
X3042934Y3245483D01*
X3035337Y3263825D01*
X3023251Y3279576D01*
X3018854Y3282950D01*
Y3295650D01*
X3023251Y3299024D01*
X3028995Y3306511D01*
X3562843D01*
X3567704Y3294777D01*
X3563863Y3290937D01*
X3552620Y3271463D01*
X3546800Y3249743D01*
Y3227257D01*
X3552620Y3205537D01*
X3563863Y3186063D01*
X3579763Y3170163D01*
X3599237Y3158920D01*
X3620957Y3153100D01*
X3643443D01*
X3665163Y3158920D01*
X3684637Y3170163D01*
X3700537Y3186063D01*
X3704086Y3192211D01*
X3751000D01*
Y3140700D01*
X3961800D01*
Y3331500D01*
X3934257D01*
X3929397Y3343233D01*
X4012011Y3425847D01*
X4024711Y3420587D01*
Y1021701D01*
X4024710Y1021700D01*
X4028234Y1003986D01*
X4038268Y988968D01*
X4272537Y754700D01*
X4270700Y747843D01*
Y725357D01*
X4276520Y703637D01*
X4287763Y684163D01*
X4303663Y668263D01*
X4323137Y657020D01*
X4344857Y651200D01*
X4367343D01*
X4389063Y657020D01*
X4408537Y668263D01*
X4424437Y684163D01*
X4435680Y703637D01*
X4441500Y725357D01*
Y747843D01*
X4435680Y769563D01*
X4424437Y789037D01*
X4408537Y804937D01*
X4389063Y816180D01*
X4367343Y822000D01*
X4344857D01*
X4338000Y820163D01*
X4117289Y1040874D01*
Y2936687D01*
X4129989Y2941947D01*
X4386011Y2685926D01*
Y876301D01*
X4386010Y876300D01*
X4389534Y858586D01*
X4399568Y843568D01*
X4488437Y754700D01*
X4486600Y747843D01*
Y725357D01*
X4492420Y703637D01*
X4503663Y684163D01*
X4519563Y668263D01*
X4539037Y657020D01*
X4560757Y651200D01*
X4583243D01*
X4604963Y657020D01*
X4624437Y668263D01*
X4640337Y684163D01*
X4651580Y703637D01*
X4657400Y725357D01*
Y747843D01*
X4651580Y769563D01*
X4640337Y789037D01*
X4624437Y804937D01*
X4604963Y816180D01*
X4583243Y822000D01*
X4560757D01*
X4553900Y820163D01*
X4478589Y895474D01*
Y2705100D01*
X4475066Y2722814D01*
X4465032Y2737832D01*
X4465031Y2737832D01*
X4197290Y3005574D01*
Y3521786D01*
X4209990Y3527047D01*
X4471000Y3266037D01*
Y3140700D01*
X4681800D01*
X4690811Y3131793D01*
Y3040407D01*
X4681800Y3031500D01*
X4678110Y3031500D01*
X4589101D01*
Y2936100D01*
Y2840700D01*
X4678110D01*
X4681800Y2840700D01*
X4690811Y2831793D01*
Y2247901D01*
X4690810Y2247900D01*
X4694334Y2230186D01*
X4704368Y2215168D01*
X4818668Y2100869D01*
X4818668Y2100868D01*
X4833686Y2090834D01*
X4851400Y2087310D01*
X4851401Y2087311D01*
X6216526D01*
X7259721Y1044116D01*
X7255200Y1027243D01*
Y1004757D01*
X7261020Y983037D01*
X7272263Y963563D01*
X7288163Y947663D01*
X7307637Y936420D01*
X7329357Y930600D01*
X7351843D01*
X7373563Y936420D01*
X7393037Y947663D01*
X7408937Y963563D01*
X7420180Y983037D01*
X7426000Y1004757D01*
Y1027243D01*
X7420180Y1048963D01*
X7408937Y1068437D01*
X7393037Y1084337D01*
X7373563Y1095580D01*
X7351843Y1101400D01*
X7333364D01*
X6268432Y2166332D01*
X6253414Y2176366D01*
X6235700Y2179890D01*
X6235699Y2179889D01*
X4870574D01*
X4783389Y2267074D01*
Y3682999D01*
X4783390Y3683000D01*
X4779866Y3700714D01*
X4769832Y3715732D01*
X4769831Y3715732D01*
X4667289Y3818274D01*
Y4068800D01*
X4721400D01*
Y4147910D01*
X4740126D01*
X4885188Y4002849D01*
Y3277301D01*
X4873403Y3270497D01*
X4857503Y3254597D01*
X4846260Y3235123D01*
X4840440Y3213403D01*
Y3190917D01*
X4846260Y3169197D01*
X4857503Y3149723D01*
X4873403Y3133823D01*
X4892877Y3122580D01*
X4914597Y3116760D01*
X4937083D01*
X4958803Y3122580D01*
X4978277Y3133823D01*
X4994177Y3149723D01*
X5005420Y3169197D01*
X5011240Y3190917D01*
Y3213403D01*
X5005420Y3235123D01*
X4994177Y3254597D01*
X4978277Y3270497D01*
X4977767Y3270792D01*
Y3830187D01*
X4988100Y3835900D01*
X4990467Y3835900D01*
X5130800D01*
Y3916300D01*
Y3996700D01*
X4990467D01*
X4988100Y3996700D01*
X4977767Y4002413D01*
Y4022022D01*
X4977767Y4022023D01*
X4974243Y4039737D01*
X4964209Y4054755D01*
X4964208Y4054755D01*
X4792032Y4226932D01*
X4777014Y4236966D01*
X4759300Y4240490D01*
X4759299Y4240489D01*
X4721400D01*
Y4261500D01*
X4620999D01*
X4520600D01*
Y4228800D01*
Y4148800D01*
Y4075560D01*
X4517563Y4067637D01*
X4509640Y4064600D01*
X3872360D01*
X3864437Y4067637D01*
X3861400Y4075560D01*
Y4148800D01*
Y4228800D01*
Y4308800D01*
Y4341500D01*
X3761000D01*
Y4366900D01*
X3861400D01*
Y4388800D01*
Y4468800D01*
Y4547911D01*
X4009926D01*
X4158268Y4399569D01*
X4158268Y4399568D01*
X4173286Y4389534D01*
X4191000Y4386010D01*
X4191001Y4386011D01*
X4428297D01*
X4436810Y4377631D01*
X4440334Y4359917D01*
X4450368Y4344900D01*
X4473799Y4321469D01*
X4473800Y4321468D01*
X4488817Y4311434D01*
X4506531Y4307911D01*
X4520600D01*
Y4286900D01*
X4620999D01*
X4721400D01*
Y4308800D01*
Y4388800D01*
Y4421500D01*
X4620999D01*
Y4446900D01*
X4721400D01*
Y4467911D01*
X4736826D01*
X4988100Y4216636D01*
Y4105900D01*
X5298900D01*
Y4266700D01*
X5068057D01*
X5066232Y4269431D01*
X4800453Y4535211D01*
X4805713Y4547911D01*
X4911699D01*
X4911700Y4547910D01*
X4929414Y4551434D01*
X4944432Y4561468D01*
X4949849Y4566885D01*
X5065502D01*
Y4551275D01*
X5065502Y4547775D01*
Y4538575D01*
X5065502Y4535075D01*
Y4485875D01*
X5206302D01*
Y4535075D01*
X5206302Y4538575D01*
Y4547775D01*
X5206302Y4551275D01*
Y4566885D01*
X5255440D01*
X5536799Y4285526D01*
X5536800Y4285525D01*
X5551817Y4275491D01*
X5569532Y4271967D01*
X5580700D01*
Y3843820D01*
X5874700D01*
Y4485800D01*
X5580700D01*
Y4389145D01*
X5568967Y4384285D01*
X5307345Y4645907D01*
X5292328Y4655941D01*
X5274614Y4659465D01*
X5274612Y4659464D01*
X5206302D01*
Y4678575D01*
X5065502D01*
Y4659464D01*
X4930675D01*
X4912960Y4655941D01*
X4897943Y4645907D01*
X4897943Y4645906D01*
X4892526Y4640490D01*
X4812814D01*
X4807553Y4653190D01*
X5003774Y4849411D01*
X5060400D01*
Y4830300D01*
X5201200D01*
Y4849411D01*
X5237604D01*
X5237605Y4849410D01*
X5255319Y4852934D01*
X5270337Y4862968D01*
X5543468Y5136100D01*
X5580700D01*
Y4861400D01*
X5874700D01*
Y5503380D01*
X5580700D01*
Y5228679D01*
X5524296D01*
X5524295Y5228680D01*
X5506581Y5225156D01*
X5491563Y5215122D01*
X5491563Y5215121D01*
X5218431Y4941990D01*
X5201200D01*
Y4957600D01*
X5201200Y4961100D01*
Y4970300D01*
X5201200Y4973800D01*
Y5023001D01*
X5130800D01*
X5060400D01*
Y4973800D01*
X5060400Y4970300D01*
Y4961100D01*
X5060400Y4957600D01*
Y4941990D01*
X4984601D01*
X4984600Y4941990D01*
X4966886Y4938466D01*
X4951868Y4928432D01*
X4951868Y4928431D01*
X4743926Y4720489D01*
X4621000D01*
X4616528Y4719600D01*
X4531610Y4719600D01*
X4529330Y4719600D01*
X4526588Y4719896D01*
X4519437Y4722637D01*
X4516696Y4729788D01*
X4516400Y4732530D01*
X4516400Y4734810D01*
Y4777910D01*
X4620999D01*
X4621000Y4777910D01*
X4638714Y4781434D01*
X4653732Y4791468D01*
X5696931Y5834668D01*
X5696932Y5834668D01*
X5706966Y5849686D01*
X5710490Y5867400D01*
X5710489Y5867401D01*
Y6216526D01*
X5785800Y6291837D01*
X5792657Y6290000D01*
X5815143D01*
X5836863Y6295820D01*
X5856337Y6307063D01*
X5872237Y6322963D01*
X5883480Y6342437D01*
X5889300Y6364157D01*
Y6386643D01*
X5883480Y6408363D01*
X5872237Y6427837D01*
X5856337Y6443737D01*
X5836863Y6454980D01*
X5815143Y6460800D01*
X5792657D01*
X5770937Y6454980D01*
X5751463Y6443737D01*
X5735563Y6427837D01*
X5724320Y6408363D01*
X5718500Y6386643D01*
Y6364157D01*
X5720337Y6357300D01*
X5631468Y6268432D01*
X5621434Y6253414D01*
X5617910Y6235700D01*
X5617911Y6235699D01*
Y5886574D01*
X4601826Y4870489D01*
X4516400D01*
Y4924600D01*
X4485956D01*
X4481096Y4936333D01*
X4527674Y4982911D01*
X4673599D01*
X4673600Y4982910D01*
X4691314Y4986434D01*
X4706332Y4996468D01*
X5582631Y5872768D01*
X5582632Y5872768D01*
X5592666Y5887786D01*
X5596190Y5905500D01*
X5596189Y5905501D01*
Y6303514D01*
X5602337Y6307063D01*
X5618237Y6322963D01*
X5629480Y6342437D01*
X5635300Y6364157D01*
Y6386643D01*
X5629480Y6408363D01*
X5618237Y6427837D01*
X5602337Y6443737D01*
X5582863Y6454980D01*
X5561143Y6460800D01*
X5538657D01*
X5516937Y6454980D01*
X5497463Y6443737D01*
X5481563Y6427837D01*
X5470320Y6408363D01*
X5464500Y6386643D01*
Y6364157D01*
X5470320Y6342437D01*
X5481563Y6322963D01*
X5497463Y6307063D01*
X5503611Y6303514D01*
Y5924674D01*
X4654426Y5075489D01*
X4508500D01*
X4501664Y5074130D01*
X4495408Y5085834D01*
X4500637Y5091063D01*
X4511880Y5110537D01*
X4517700Y5132257D01*
Y5154743D01*
X4511880Y5176463D01*
X4500637Y5195937D01*
X4484737Y5211837D01*
X4465263Y5223080D01*
X4443543Y5228900D01*
X4421057D01*
X4399337Y5223080D01*
X4379863Y5211837D01*
X4363963Y5195937D01*
X4352720Y5176463D01*
X4349974Y5166215D01*
X4336826D01*
X4334080Y5176463D01*
X4322837Y5195937D01*
X4306937Y5211837D01*
X4287463Y5223080D01*
X4265743Y5228900D01*
X4243257D01*
X4221537Y5223080D01*
X4202063Y5211837D01*
X4186163Y5195937D01*
X4174920Y5176463D01*
X4172174Y5166215D01*
X4159026D01*
X4156280Y5176463D01*
X4145037Y5195937D01*
X4129137Y5211837D01*
X4109663Y5223080D01*
X4087943Y5228900D01*
X4065457D01*
X4043737Y5223080D01*
X4024263Y5211837D01*
X4008363Y5195937D01*
X3997120Y5176463D01*
X3991300Y5154743D01*
Y5132257D01*
X3994198Y5121443D01*
X3982811Y5114869D01*
X3195595Y5902086D01*
X3196900Y5906957D01*
Y5929443D01*
X3191080Y5951163D01*
X3179837Y5970637D01*
X3163937Y5986537D01*
X3144463Y5997780D01*
X3122743Y6003600D01*
X3100257D01*
X3078537Y5997780D01*
X3059063Y5986537D01*
X3043163Y5970637D01*
X3031920Y5951163D01*
X3026100Y5929443D01*
Y5906957D01*
X3031920Y5885237D01*
X3043163Y5865763D01*
X3059063Y5849863D01*
X3078537Y5838620D01*
X3100257Y5832800D01*
X3122743D01*
X3131585Y5835169D01*
X3147007Y5819746D01*
X3140433Y5808360D01*
X3122743Y5813100D01*
X3100257D01*
X3078537Y5807280D01*
X3059063Y5796037D01*
X3043163Y5780137D01*
X3031920Y5760663D01*
X3026100Y5738943D01*
Y5716457D01*
X3031920Y5694737D01*
X3043163Y5675263D01*
X3059063Y5659363D01*
X3078537Y5648120D01*
X3100257Y5642300D01*
X3122743D01*
X3144463Y5648120D01*
X3163937Y5659363D01*
X3166758Y5662184D01*
X3891719Y4937223D01*
X3886859Y4925490D01*
X3775974D01*
X3195063Y5506401D01*
X3196900Y5513257D01*
Y5535743D01*
X3191080Y5557463D01*
X3179837Y5576937D01*
X3163937Y5592837D01*
X3144463Y5604080D01*
X3122743Y5609900D01*
X3100257D01*
X3078537Y5604080D01*
X3059063Y5592837D01*
X3043163Y5576937D01*
X3031920Y5557463D01*
X3026100Y5535743D01*
Y5513257D01*
X3031920Y5491537D01*
X3043163Y5472063D01*
X3059063Y5456163D01*
X3078537Y5444920D01*
X3100257Y5439100D01*
X3122743D01*
X3129599Y5440937D01*
X3724068Y4846469D01*
X3724068Y4846468D01*
X3739086Y4836434D01*
X3756800Y4832910D01*
X3756801Y4832911D01*
X3864711D01*
Y4824200D01*
X3865600Y4819728D01*
X3865600Y4734810D01*
X3865600Y4732530D01*
X3865304Y4729788D01*
X3862563Y4722637D01*
X3855412Y4719896D01*
X3852670Y4719600D01*
X3850390Y4719600D01*
X3765472D01*
X3761000Y4720489D01*
X3725174D01*
X3196900Y5248763D01*
Y5269043D01*
X3191080Y5290763D01*
X3179837Y5310237D01*
X3163937Y5326137D01*
X3144463Y5337380D01*
X3122743Y5343200D01*
X3100257D01*
X3078537Y5337380D01*
X3059063Y5326137D01*
X3043163Y5310237D01*
X3031920Y5290763D01*
X3026100Y5269043D01*
Y5246557D01*
X3031920Y5224837D01*
X3043163Y5205363D01*
X3059063Y5189463D01*
X3078537Y5178220D01*
X3100257Y5172400D01*
X3122743D01*
X3138196Y5176541D01*
X3547510Y4767226D01*
X3540936Y4755840D01*
X3529143Y4759000D01*
X3506657D01*
X3484937Y4753180D01*
X3465463Y4741937D01*
X3449563Y4726037D01*
X3438320Y4706563D01*
X3435574Y4696315D01*
X3422426D01*
X3419680Y4706563D01*
X3408437Y4726037D01*
X3392537Y4741937D01*
X3373063Y4753180D01*
X3351343Y4759000D01*
X3328857D01*
X3307137Y4753180D01*
X3287663Y4741937D01*
X3271763Y4726037D01*
X3260520Y4706563D01*
X3254700Y4684843D01*
Y4662357D01*
X3260520Y4640637D01*
X3271763Y4621163D01*
X3287663Y4605263D01*
X3307137Y4594020D01*
X3328857Y4588200D01*
X3347336D01*
X3442347Y4493189D01*
X3437087Y4480489D01*
X3208974D01*
X3104324Y4585139D01*
X3108000Y4598857D01*
Y4621343D01*
X3102180Y4643063D01*
X3090937Y4662537D01*
X3075037Y4678437D01*
X3055563Y4689680D01*
X3033843Y4695500D01*
X3011357D01*
X2989637Y4689680D01*
X2970163Y4678437D01*
X2954263Y4662537D01*
X2943020Y4643063D01*
X2937200Y4621343D01*
Y4598857D01*
X2943020Y4577137D01*
X2954263Y4557663D01*
X2970163Y4541763D01*
X2989637Y4530520D01*
X3011357Y4524700D01*
X3033836D01*
X3145347Y4413190D01*
X3140086Y4400490D01*
X2789674D01*
X2714133Y4476031D01*
X2721180Y4488237D01*
X2726609Y4508500D01*
X2556591D01*
X2562020Y4488237D01*
X2573263Y4468763D01*
X2589163Y4452863D01*
X2608637Y4441620D01*
X2620903Y4438333D01*
X2726047Y4333189D01*
X2720787Y4320489D01*
X723374D01*
X532758Y4511106D01*
Y5505326D01*
X782031Y5754599D01*
X782032Y5754600D01*
X792066Y5769617D01*
X795590Y5787332D01*
X795589Y5787333D01*
Y6800726D01*
X822274Y6827411D01*
X4783317D01*
X4792410Y6819900D01*
X4795934Y6802186D01*
X4805968Y6787168D01*
X4867677Y6725460D01*
X4865840Y6718603D01*
Y6696117D01*
X4871660Y6674397D01*
X4882903Y6654923D01*
X4898803Y6639023D01*
X4918277Y6627780D01*
X4939997Y6621960D01*
X4962483D01*
X4984203Y6627780D01*
X5003677Y6639023D01*
X5019577Y6654923D01*
X5030820Y6674397D01*
X5036640Y6696117D01*
Y6718603D01*
X5030820Y6740323D01*
X5019577Y6759797D01*
X5003677Y6775697D01*
X4984203Y6786940D01*
X4962483Y6792760D01*
X4939997D01*
X4933140Y6790923D01*
X4884989Y6839074D01*
Y6873700D01*
X4881466Y6891414D01*
X4871432Y6906432D01*
X4856414Y6916466D01*
X4838700Y6919989D01*
X803101D01*
X803100Y6919990D01*
D02*
G37*
G36*
X3581260Y6750200D02*
X3556140D01*
X3531877Y6743698D01*
X3510123Y6731139D01*
X3492361Y6713377D01*
X3479802Y6691623D01*
X3473300Y6667360D01*
Y6642240D01*
X3479802Y6617977D01*
X3492361Y6596223D01*
X3510123Y6578461D01*
X3531877Y6565902D01*
X3556140Y6559400D01*
X3581260D01*
X3605523Y6565902D01*
X3627277Y6578461D01*
X3645039Y6596223D01*
X3657598Y6617977D01*
X3664100Y6642240D01*
Y6667360D01*
X3657598Y6691623D01*
X3645039Y6713377D01*
X3627277Y6731139D01*
X3605523Y6743698D01*
X3581260Y6750200D01*
D02*
G37*
G36*
X3277118Y6742500D02*
X3250682D01*
X3225147Y6735658D01*
X3202253Y6722440D01*
X3183560Y6703747D01*
X3170342Y6680853D01*
X3163500Y6655318D01*
Y6628882D01*
X3170342Y6603347D01*
X3183560Y6580453D01*
X3202253Y6561760D01*
X3225147Y6548542D01*
X3250682Y6541700D01*
X3277118D01*
X3302653Y6548542D01*
X3325547Y6561760D01*
X3344240Y6580453D01*
X3357458Y6603347D01*
X3364300Y6628882D01*
Y6655318D01*
X3357458Y6680853D01*
X3344240Y6703747D01*
X3325547Y6722440D01*
X3302653Y6735658D01*
X3277118Y6742500D01*
D02*
G37*
G36*
X3023118D02*
X2996682D01*
X2971147Y6735658D01*
X2948253Y6722440D01*
X2929560Y6703747D01*
X2916342Y6680853D01*
X2909500Y6655318D01*
Y6628882D01*
X2916342Y6603347D01*
X2929560Y6580453D01*
X2948253Y6561760D01*
X2971147Y6548542D01*
X2996682Y6541700D01*
X3023118D01*
X3048653Y6548542D01*
X3071547Y6561760D01*
X3090240Y6580453D01*
X3103458Y6603347D01*
X3110300Y6628882D01*
Y6655318D01*
X3103458Y6680853D01*
X3090240Y6703747D01*
X3071547Y6722440D01*
X3048653Y6735658D01*
X3023118Y6742500D01*
D02*
G37*
G36*
X2769118D02*
X2742682D01*
X2717147Y6735658D01*
X2694253Y6722440D01*
X2675560Y6703747D01*
X2662342Y6680853D01*
X2655500Y6655318D01*
Y6628882D01*
X2662342Y6603347D01*
X2675560Y6580453D01*
X2694253Y6561760D01*
X2717147Y6548542D01*
X2742682Y6541700D01*
X2769118D01*
X2794653Y6548542D01*
X2817547Y6561760D01*
X2836240Y6580453D01*
X2849458Y6603347D01*
X2856300Y6628882D01*
Y6655318D01*
X2849458Y6680853D01*
X2836240Y6703747D01*
X2817547Y6722440D01*
X2794653Y6735658D01*
X2769118Y6742500D01*
D02*
G37*
G36*
X2515118D02*
X2488682D01*
X2463147Y6735658D01*
X2440253Y6722440D01*
X2421560Y6703747D01*
X2408342Y6680853D01*
X2401500Y6655318D01*
Y6628882D01*
X2408342Y6603347D01*
X2421560Y6580453D01*
X2440253Y6561760D01*
X2463147Y6548542D01*
X2488682Y6541700D01*
X2515118D01*
X2540653Y6548542D01*
X2563547Y6561760D01*
X2582240Y6580453D01*
X2595458Y6603347D01*
X2602300Y6628882D01*
Y6655318D01*
X2595458Y6680853D01*
X2582240Y6703747D01*
X2563547Y6722440D01*
X2540653Y6735658D01*
X2515118Y6742500D01*
D02*
G37*
G36*
X2261118D02*
X2234682D01*
X2209147Y6735658D01*
X2186253Y6722440D01*
X2167560Y6703747D01*
X2154342Y6680853D01*
X2147500Y6655318D01*
Y6628882D01*
X2154342Y6603347D01*
X2167560Y6580453D01*
X2186253Y6561760D01*
X2209147Y6548542D01*
X2234682Y6541700D01*
X2261118D01*
X2286653Y6548542D01*
X2309547Y6561760D01*
X2328240Y6580453D01*
X2341458Y6603347D01*
X2348300Y6628882D01*
Y6655318D01*
X2341458Y6680853D01*
X2328240Y6703747D01*
X2309547Y6722440D01*
X2286653Y6735658D01*
X2261118Y6742500D01*
D02*
G37*
G36*
X2007118D02*
X1980682D01*
X1955147Y6735658D01*
X1932253Y6722440D01*
X1913560Y6703747D01*
X1900342Y6680853D01*
X1893500Y6655318D01*
Y6628882D01*
X1900342Y6603347D01*
X1913560Y6580453D01*
X1932253Y6561760D01*
X1955147Y6548542D01*
X1980682Y6541700D01*
X2007118D01*
X2032653Y6548542D01*
X2055547Y6561760D01*
X2074240Y6580453D01*
X2087458Y6603347D01*
X2094300Y6628882D01*
Y6655318D01*
X2087458Y6680853D01*
X2074240Y6703747D01*
X2055547Y6722440D01*
X2032653Y6735658D01*
X2007118Y6742500D01*
D02*
G37*
G36*
X1753118D02*
X1726682D01*
X1701147Y6735658D01*
X1678253Y6722440D01*
X1659560Y6703747D01*
X1646342Y6680853D01*
X1639500Y6655318D01*
Y6628882D01*
X1646342Y6603347D01*
X1659560Y6580453D01*
X1678253Y6561760D01*
X1701147Y6548542D01*
X1726682Y6541700D01*
X1753118D01*
X1778653Y6548542D01*
X1801547Y6561760D01*
X1820240Y6580453D01*
X1833458Y6603347D01*
X1840300Y6628882D01*
Y6655318D01*
X1833458Y6680853D01*
X1820240Y6703747D01*
X1801547Y6722440D01*
X1778653Y6735658D01*
X1753118Y6742500D01*
D02*
G37*
G36*
X1499118D02*
X1472682D01*
X1447147Y6735658D01*
X1424253Y6722440D01*
X1405560Y6703747D01*
X1392342Y6680853D01*
X1385500Y6655318D01*
Y6628882D01*
X1392342Y6603347D01*
X1405560Y6580453D01*
X1424253Y6561760D01*
X1447147Y6548542D01*
X1472682Y6541700D01*
X1499118D01*
X1524653Y6548542D01*
X1547547Y6561760D01*
X1566240Y6580453D01*
X1579458Y6603347D01*
X1586300Y6628882D01*
Y6655318D01*
X1579458Y6680853D01*
X1566240Y6703747D01*
X1547547Y6722440D01*
X1524653Y6735658D01*
X1499118Y6742500D01*
D02*
G37*
G36*
X1332300Y6629400D02*
X1244600D01*
Y6541700D01*
X1245118D01*
X1270653Y6548542D01*
X1293547Y6561760D01*
X1312240Y6580453D01*
X1325458Y6603347D01*
X1332300Y6628882D01*
Y6629400D01*
D02*
G37*
G36*
X1219200D02*
X1131500D01*
Y6628882D01*
X1138342Y6603347D01*
X1151560Y6580453D01*
X1170253Y6561760D01*
X1193147Y6548542D01*
X1218682Y6541700D01*
X1219200D01*
Y6629400D01*
D02*
G37*
G36*
X1078300Y6742500D02*
X877500D01*
Y6541700D01*
X1078300D01*
Y6742500D01*
D02*
G37*
G36*
X6412300Y6729800D02*
X6211500D01*
Y6529000D01*
X6412300D01*
Y6729800D01*
D02*
G37*
G36*
X6071118D02*
X6044682D01*
X6019147Y6722958D01*
X5996253Y6709740D01*
X5977560Y6691047D01*
X5964342Y6668153D01*
X5957500Y6642618D01*
Y6616182D01*
X5964342Y6590647D01*
X5977560Y6567753D01*
X5996253Y6549060D01*
X6019147Y6535842D01*
X6044682Y6529000D01*
X6071118D01*
X6096653Y6535842D01*
X6119547Y6549060D01*
X6138240Y6567753D01*
X6151458Y6590647D01*
X6158300Y6616182D01*
Y6642618D01*
X6151458Y6668153D01*
X6138240Y6691047D01*
X6119547Y6709740D01*
X6096653Y6722958D01*
X6071118Y6729800D01*
D02*
G37*
G36*
X5817118D02*
X5790682D01*
X5765147Y6722958D01*
X5742253Y6709740D01*
X5723560Y6691047D01*
X5710342Y6668153D01*
X5703500Y6642618D01*
Y6616182D01*
X5710342Y6590647D01*
X5723560Y6567753D01*
X5742253Y6549060D01*
X5765147Y6535842D01*
X5790682Y6529000D01*
X5817118D01*
X5842653Y6535842D01*
X5865547Y6549060D01*
X5884240Y6567753D01*
X5897458Y6590647D01*
X5904300Y6616182D01*
Y6642618D01*
X5897458Y6668153D01*
X5884240Y6691047D01*
X5865547Y6709740D01*
X5842653Y6722958D01*
X5817118Y6729800D01*
D02*
G37*
G36*
X5563118D02*
X5536682D01*
X5511147Y6722958D01*
X5488253Y6709740D01*
X5469560Y6691047D01*
X5456342Y6668153D01*
X5449500Y6642618D01*
Y6616182D01*
X5456342Y6590647D01*
X5469560Y6567753D01*
X5488253Y6549060D01*
X5511147Y6535842D01*
X5536682Y6529000D01*
X5563118D01*
X5588653Y6535842D01*
X5611547Y6549060D01*
X5630240Y6567753D01*
X5643458Y6590647D01*
X5650300Y6616182D01*
Y6642618D01*
X5643458Y6668153D01*
X5630240Y6691047D01*
X5611547Y6709740D01*
X5588653Y6722958D01*
X5563118Y6729800D01*
D02*
G37*
G36*
X5396300Y6616700D02*
X5308600D01*
Y6529000D01*
X5309118D01*
X5334653Y6535842D01*
X5357547Y6549060D01*
X5376240Y6567753D01*
X5389458Y6590647D01*
X5396300Y6616182D01*
Y6616700D01*
D02*
G37*
G36*
X5283200D02*
X5195500D01*
Y6616182D01*
X5202342Y6590647D01*
X5215560Y6567753D01*
X5234253Y6549060D01*
X5257147Y6535842D01*
X5282682Y6529000D01*
X5283200D01*
Y6616700D01*
D02*
G37*
G36*
X9385300Y6587409D02*
Y6515100D01*
X9457609D01*
X9452180Y6535363D01*
X9440937Y6554837D01*
X9425037Y6570737D01*
X9405563Y6581980D01*
X9385300Y6587409D01*
D02*
G37*
G36*
X9359900D02*
X9339637Y6581980D01*
X9320163Y6570737D01*
X9304263Y6554837D01*
X9293020Y6535363D01*
X9287591Y6515100D01*
X9359900D01*
Y6587409D01*
D02*
G37*
G36*
X4041191Y6707450D02*
X4010609D01*
X3981068Y6699534D01*
X3954582Y6684243D01*
X3932957Y6662618D01*
X3917666Y6636132D01*
X3909750Y6606591D01*
Y6576009D01*
X3917666Y6546468D01*
X3932957Y6519982D01*
X3954582Y6498357D01*
X3981068Y6483066D01*
X4010609Y6475150D01*
X4041191D01*
X4070732Y6483066D01*
X4097218Y6498357D01*
X4118843Y6519982D01*
X4134134Y6546468D01*
X4142050Y6576009D01*
Y6606591D01*
X4134134Y6636132D01*
X4118843Y6662618D01*
X4097218Y6684243D01*
X4070732Y6699534D01*
X4041191Y6707450D01*
D02*
G37*
G36*
X9722200Y6925400D02*
X9677800D01*
X9634253Y6916738D01*
X9593233Y6899747D01*
X9556316Y6875080D01*
X9524920Y6843684D01*
X9500253Y6806767D01*
X9483262Y6765747D01*
X9474600Y6722200D01*
Y6677800D01*
X9483262Y6634253D01*
X9500253Y6593233D01*
X9524920Y6556316D01*
X9556316Y6524920D01*
X9593233Y6500253D01*
X9634253Y6483262D01*
X9677800Y6474600D01*
X9722200D01*
X9765747Y6483262D01*
X9806767Y6500253D01*
X9843684Y6524920D01*
X9875080Y6556316D01*
X9899747Y6593233D01*
X9916738Y6634253D01*
X9925400Y6677800D01*
Y6722200D01*
X9916738Y6765747D01*
X9899747Y6806767D01*
X9875080Y6843684D01*
X9843684Y6875080D01*
X9806767Y6899747D01*
X9765747Y6916738D01*
X9722200Y6925400D01*
D02*
G37*
G36*
X322200D02*
X277800D01*
X234253Y6916738D01*
X193233Y6899747D01*
X156316Y6875080D01*
X124920Y6843684D01*
X100253Y6806767D01*
X83262Y6765747D01*
X74600Y6722200D01*
Y6677800D01*
X83262Y6634253D01*
X100253Y6593233D01*
X124920Y6556316D01*
X156316Y6524920D01*
X193233Y6500253D01*
X234253Y6483262D01*
X277800Y6474600D01*
X322200D01*
X365747Y6483262D01*
X406767Y6500253D01*
X443684Y6524920D01*
X475080Y6556316D01*
X499747Y6593233D01*
X516738Y6634253D01*
X525400Y6677800D01*
Y6722200D01*
X516738Y6765747D01*
X499747Y6806767D01*
X475080Y6843684D01*
X443684Y6875080D01*
X406767Y6899747D01*
X365747Y6916738D01*
X322200Y6925400D01*
D02*
G37*
G36*
X9457609Y6489700D02*
X9385300D01*
Y6417391D01*
X9405563Y6422820D01*
X9425037Y6434063D01*
X9440937Y6449963D01*
X9452180Y6469437D01*
X9457609Y6489700D01*
D02*
G37*
G36*
X9359900D02*
X9287591D01*
X9293020Y6469437D01*
X9304263Y6449963D01*
X9320163Y6434063D01*
X9339637Y6422820D01*
X9359900Y6417391D01*
Y6489700D01*
D02*
G37*
G36*
X4750318Y6425000D02*
X4749800D01*
Y6337300D01*
X4837500D01*
Y6337818D01*
X4830658Y6363353D01*
X4817440Y6386247D01*
X4798747Y6404940D01*
X4775853Y6418158D01*
X4750318Y6425000D01*
D02*
G37*
G36*
X4724400D02*
X4723882D01*
X4698347Y6418158D01*
X4675453Y6404940D01*
X4656760Y6386247D01*
X4643542Y6363353D01*
X4636700Y6337818D01*
Y6337300D01*
X4724400D01*
Y6425000D01*
D02*
G37*
G36*
X5004318D02*
X4977882D01*
X4952347Y6418158D01*
X4929453Y6404940D01*
X4910760Y6386247D01*
X4897542Y6363353D01*
X4890700Y6337818D01*
Y6311382D01*
X4897542Y6285847D01*
X4910760Y6262953D01*
X4929453Y6244260D01*
X4952347Y6231042D01*
X4977882Y6224200D01*
X5004318D01*
X5029853Y6231042D01*
X5052747Y6244260D01*
X5071440Y6262953D01*
X5084658Y6285847D01*
X5091500Y6311382D01*
Y6337818D01*
X5084658Y6363353D01*
X5071440Y6386247D01*
X5052747Y6404940D01*
X5029853Y6418158D01*
X5004318Y6425000D01*
D02*
G37*
G36*
X4837500Y6311900D02*
X4749800D01*
Y6224200D01*
X4750318D01*
X4775853Y6231042D01*
X4798747Y6244260D01*
X4817440Y6262953D01*
X4830658Y6285847D01*
X4837500Y6311382D01*
Y6311900D01*
D02*
G37*
G36*
X4724400D02*
X4636700D01*
Y6311382D01*
X4643542Y6285847D01*
X4656760Y6262953D01*
X4675453Y6244260D01*
X4698347Y6231042D01*
X4723882Y6224200D01*
X4724400D01*
Y6311900D01*
D02*
G37*
G36*
X9543832Y6401500D02*
X9537700D01*
Y6223000D01*
X9716200D01*
Y6229132D01*
X9708852Y6266071D01*
X9694439Y6300867D01*
X9673515Y6332183D01*
X9646883Y6358815D01*
X9615567Y6379739D01*
X9580771Y6394152D01*
X9543832Y6401500D01*
D02*
G37*
G36*
X9512300D02*
X9506168D01*
X9469229Y6394152D01*
X9434433Y6379739D01*
X9403117Y6358815D01*
X9376485Y6332183D01*
X9355561Y6300867D01*
X9341148Y6266071D01*
X9333800Y6229132D01*
Y6223000D01*
X9512300D01*
Y6401500D01*
D02*
G37*
G36*
X4142050Y6453450D02*
X3909750D01*
Y6221150D01*
X4142050D01*
Y6453450D01*
D02*
G37*
G36*
X8801100Y6168309D02*
Y6096000D01*
X8873409D01*
X8867980Y6116263D01*
X8856737Y6135737D01*
X8840837Y6151637D01*
X8821363Y6162880D01*
X8801100Y6168309D01*
D02*
G37*
G36*
X8775700D02*
X8755437Y6162880D01*
X8735963Y6151637D01*
X8720063Y6135737D01*
X8708820Y6116263D01*
X8703391Y6096000D01*
X8775700D01*
Y6168309D01*
D02*
G37*
G36*
X9716200Y6197600D02*
X9537700D01*
Y6019100D01*
X9543832D01*
X9580771Y6026448D01*
X9615567Y6040861D01*
X9646883Y6061785D01*
X9673515Y6088417D01*
X9694439Y6119733D01*
X9708852Y6154529D01*
X9716200Y6191468D01*
Y6197600D01*
D02*
G37*
G36*
X9512300D02*
X9333800D01*
Y6191468D01*
X9341148Y6154529D01*
X9355561Y6119733D01*
X9376485Y6088417D01*
X9403117Y6061785D01*
X9434433Y6040861D01*
X9469229Y6026448D01*
X9506168Y6019100D01*
X9512300D01*
Y6197600D01*
D02*
G37*
G36*
X8873409Y6070600D02*
X8801100D01*
Y5998291D01*
X8821363Y6003720D01*
X8840837Y6014963D01*
X8856737Y6030863D01*
X8867980Y6050337D01*
X8873409Y6070600D01*
D02*
G37*
G36*
X8775700D02*
X8703391D01*
X8708820Y6050337D01*
X8720063Y6030863D01*
X8735963Y6014963D01*
X8755437Y6003720D01*
X8775700Y5998291D01*
Y6070600D01*
D02*
G37*
G36*
X5004318Y6171000D02*
X4977882D01*
X4952347Y6164158D01*
X4929453Y6150940D01*
X4910760Y6132247D01*
X4897542Y6109353D01*
X4890700Y6083818D01*
Y6057382D01*
X4897542Y6031847D01*
X4910760Y6008953D01*
X4929453Y5990260D01*
X4952347Y5977042D01*
X4977882Y5970200D01*
X5004318D01*
X5029853Y5977042D01*
X5052747Y5990260D01*
X5071440Y6008953D01*
X5084658Y6031847D01*
X5091500Y6057382D01*
Y6083818D01*
X5084658Y6109353D01*
X5071440Y6132247D01*
X5052747Y6150940D01*
X5029853Y6164158D01*
X5004318Y6171000D01*
D02*
G37*
G36*
X4750318D02*
X4723882D01*
X4698347Y6164158D01*
X4675453Y6150940D01*
X4656760Y6132247D01*
X4643542Y6109353D01*
X4636700Y6083818D01*
Y6057382D01*
X4643542Y6031847D01*
X4656760Y6008953D01*
X4675453Y5990260D01*
X4698347Y5977042D01*
X4723882Y5970200D01*
X4750318D01*
X4775853Y5977042D01*
X4798747Y5990260D01*
X4817440Y6008953D01*
X4830658Y6031847D01*
X4837500Y6057382D01*
Y6083818D01*
X4830658Y6109353D01*
X4817440Y6132247D01*
X4798747Y6150940D01*
X4775853Y6164158D01*
X4750318Y6171000D01*
D02*
G37*
G36*
X8367450Y6076849D02*
X8251950D01*
X8239016Y6074277D01*
X8228050Y6066950D01*
X8220723Y6055984D01*
X8218150Y6043050D01*
Y5996550D01*
X8220723Y5983616D01*
X8228050Y5972650D01*
X8239016Y5965323D01*
X8251950Y5962751D01*
X8367450D01*
X8380384Y5965323D01*
X8391350Y5972650D01*
X8398677Y5983616D01*
X8401249Y5996550D01*
Y6043050D01*
X8398677Y6055984D01*
X8391350Y6066950D01*
X8380384Y6074277D01*
X8367450Y6076849D01*
D02*
G37*
G36*
X7817450D02*
X7701950D01*
X7689016Y6074277D01*
X7678050Y6066950D01*
X7670723Y6055984D01*
X7668151Y6043050D01*
Y5996550D01*
X7670723Y5983616D01*
X7678050Y5972650D01*
X7689016Y5965323D01*
X7701950Y5962751D01*
X7817450D01*
X7830384Y5965323D01*
X7841350Y5972650D01*
X7848677Y5983616D01*
X7851249Y5996550D01*
Y6043050D01*
X7848677Y6055984D01*
X7841350Y6066950D01*
X7830384Y6074277D01*
X7817450Y6076849D01*
D02*
G37*
G36*
X2149826Y6083700D02*
X2144700D01*
Y5961000D01*
X2267400D01*
Y5966126D01*
X2258173Y6000563D01*
X2240347Y6031438D01*
X2215138Y6056647D01*
X2184263Y6074473D01*
X2149826Y6083700D01*
D02*
G37*
G36*
X2119300D02*
X2114174D01*
X2079738Y6074473D01*
X2048863Y6056647D01*
X2023653Y6031438D01*
X2005827Y6000563D01*
X1996600Y5966126D01*
Y5961000D01*
X2119300D01*
Y6083700D01*
D02*
G37*
G36*
X3581400Y5988162D02*
Y5905500D01*
X3664062D01*
X3657598Y5929623D01*
X3645039Y5951377D01*
X3627277Y5969139D01*
X3605523Y5981698D01*
X3581400Y5988162D01*
D02*
G37*
G36*
X3556000D02*
X3531877Y5981698D01*
X3510123Y5969139D01*
X3492361Y5951377D01*
X3479802Y5929623D01*
X3473338Y5905500D01*
X3556000D01*
Y5988162D01*
D02*
G37*
G36*
X8367450Y5949849D02*
X8251950D01*
X8239016Y5947277D01*
X8228050Y5939950D01*
X8220723Y5928984D01*
X8218150Y5916050D01*
Y5869550D01*
X8220723Y5856616D01*
X8228050Y5845650D01*
X8239016Y5838323D01*
X8251950Y5835751D01*
X8367450D01*
X8380384Y5838323D01*
X8391350Y5845650D01*
X8398677Y5856616D01*
X8401249Y5869550D01*
Y5916050D01*
X8398677Y5928984D01*
X8391350Y5939950D01*
X8380384Y5947277D01*
X8367450Y5949849D01*
D02*
G37*
G36*
X7817450D02*
X7701950D01*
X7689016Y5947277D01*
X7678050Y5939950D01*
X7670723Y5928984D01*
X7668151Y5916050D01*
Y5869550D01*
X7670723Y5856616D01*
X7678050Y5845650D01*
X7689016Y5838323D01*
X7701950Y5835751D01*
X7817450D01*
X7830384Y5838323D01*
X7841350Y5845650D01*
X7848677Y5856616D01*
X7851249Y5869550D01*
Y5916050D01*
X7848677Y5928984D01*
X7841350Y5939950D01*
X7830384Y5947277D01*
X7817450Y5949849D01*
D02*
G37*
G36*
X2267400Y5935600D02*
X2144700D01*
Y5812900D01*
X2149826D01*
X2184263Y5822127D01*
X2215138Y5839953D01*
X2240347Y5865163D01*
X2258173Y5896037D01*
X2267400Y5930474D01*
Y5935600D01*
D02*
G37*
G36*
X2119300D02*
X1996600D01*
Y5930474D01*
X2005827Y5896037D01*
X2023653Y5865163D01*
X2048863Y5839953D01*
X2079738Y5822127D01*
X2114174Y5812900D01*
X2119300D01*
Y5935600D01*
D02*
G37*
G36*
X349826Y6083700D02*
X314174D01*
X279738Y6074473D01*
X248863Y6056647D01*
X223653Y6031438D01*
X205827Y6000563D01*
X196600Y5966126D01*
Y5930474D01*
X205827Y5896037D01*
X223653Y5865163D01*
X248863Y5839953D01*
X279738Y5822127D01*
X314174Y5812900D01*
X349826D01*
X384263Y5822127D01*
X415138Y5839953D01*
X440347Y5865163D01*
X458173Y5896037D01*
X467400Y5930474D01*
Y5966126D01*
X458173Y6000563D01*
X440347Y6031438D01*
X415138Y6056647D01*
X384263Y6074473D01*
X349826Y6083700D01*
D02*
G37*
G36*
X3664062Y5880100D02*
X3581400D01*
Y5797438D01*
X3605523Y5803902D01*
X3627277Y5816461D01*
X3645039Y5834223D01*
X3657598Y5855977D01*
X3664062Y5880100D01*
D02*
G37*
G36*
X3556000D02*
X3473338D01*
X3479802Y5855977D01*
X3492361Y5834223D01*
X3510123Y5816461D01*
X3531877Y5803902D01*
X3556000Y5797438D01*
Y5880100D01*
D02*
G37*
G36*
X9267700Y5829076D02*
Y5746000D01*
X9350776D01*
X9344271Y5770277D01*
X9331659Y5792123D01*
X9313823Y5809959D01*
X9291977Y5822571D01*
X9267700Y5829076D01*
D02*
G37*
G36*
X5091500Y5917000D02*
X4890700D01*
Y5716200D01*
X5091500D01*
Y5917000D01*
D02*
G37*
G36*
X4750318D02*
X4723882D01*
X4698347Y5910158D01*
X4675453Y5896940D01*
X4656760Y5878247D01*
X4643542Y5855353D01*
X4636700Y5829818D01*
Y5803382D01*
X4643542Y5777847D01*
X4656760Y5754953D01*
X4675453Y5736260D01*
X4698347Y5723042D01*
X4723882Y5716200D01*
X4750318D01*
X4775853Y5723042D01*
X4798747Y5736260D01*
X4817440Y5754953D01*
X4830658Y5777847D01*
X4837500Y5803382D01*
Y5829818D01*
X4830658Y5855353D01*
X4817440Y5878247D01*
X4798747Y5896940D01*
X4775853Y5910158D01*
X4750318Y5917000D01*
D02*
G37*
G36*
X7817450Y5822849D02*
X7701950D01*
X7689016Y5820277D01*
X7678050Y5812950D01*
X7670723Y5801984D01*
X7668151Y5789050D01*
Y5742550D01*
X7670723Y5729616D01*
X7678050Y5718650D01*
X7689016Y5711323D01*
X7701950Y5708751D01*
X7817450D01*
X7830384Y5711323D01*
X7841350Y5718650D01*
X7848677Y5729616D01*
X7851249Y5742550D01*
Y5789050D01*
X7848677Y5801984D01*
X7841350Y5812950D01*
X7830384Y5820277D01*
X7817450Y5822849D01*
D02*
G37*
G36*
X9350777Y5720600D02*
X9267700D01*
Y5637524D01*
X9291977Y5644029D01*
X9313823Y5656641D01*
X9331659Y5674477D01*
X9344271Y5696323D01*
X9350777Y5720600D01*
D02*
G37*
G36*
X9150800Y5829100D02*
X8959200D01*
Y5637500D01*
X9150800D01*
Y5702969D01*
X9163500Y5704641D01*
X9165729Y5696323D01*
X9178341Y5674477D01*
X9196177Y5656641D01*
X9218023Y5644029D01*
X9242300Y5637523D01*
Y5733300D01*
Y5829076D01*
X9218023Y5822571D01*
X9196177Y5809959D01*
X9178341Y5792123D01*
X9165729Y5770277D01*
X9163500Y5761959D01*
X9150800Y5763631D01*
Y5829100D01*
D02*
G37*
G36*
X8367450Y5822849D02*
X8251950D01*
X8239016Y5820277D01*
X8228050Y5812950D01*
X8220723Y5801984D01*
X8218150Y5789050D01*
Y5742550D01*
X8220723Y5729616D01*
X8228050Y5718650D01*
X8239016Y5711323D01*
X8251950Y5708751D01*
X8367450D01*
X8380384Y5711323D01*
X8391350Y5718650D01*
X8391925Y5719511D01*
X8578726D01*
X8690300Y5607937D01*
Y5591724D01*
X8679717Y5584346D01*
X8592532Y5671532D01*
X8577514Y5681566D01*
X8559800Y5685090D01*
X8559799Y5685089D01*
X8391925D01*
X8391350Y5685950D01*
X8380384Y5693277D01*
X8367450Y5695849D01*
X8251950D01*
X8239016Y5693277D01*
X8228050Y5685950D01*
X8220723Y5674984D01*
X8218150Y5662050D01*
Y5615550D01*
X8220723Y5602616D01*
X8228050Y5591650D01*
X8239016Y5584323D01*
X8251950Y5581751D01*
X8367450D01*
X8380384Y5584323D01*
X8391350Y5591650D01*
X8391925Y5592511D01*
X8540626D01*
X8707521Y5425616D01*
X8703000Y5408743D01*
Y5386257D01*
X8708820Y5364537D01*
X8720063Y5345063D01*
X8735963Y5329163D01*
X8755437Y5317920D01*
X8777157Y5312100D01*
X8799643D01*
X8821363Y5317920D01*
X8840837Y5329163D01*
X8856737Y5345063D01*
X8867980Y5364537D01*
X8873800Y5386257D01*
Y5408743D01*
X8867980Y5430463D01*
X8856737Y5449937D01*
X8840837Y5465837D01*
X8821363Y5477080D01*
X8799643Y5482900D01*
X8781163D01*
X8759346Y5504717D01*
X8766724Y5515300D01*
X8786943D01*
X8808663Y5521120D01*
X8828137Y5532363D01*
X8844037Y5548263D01*
X8855280Y5567737D01*
X8861100Y5589457D01*
Y5611943D01*
X8855280Y5633663D01*
X8844037Y5653137D01*
X8828137Y5669037D01*
X8808663Y5680280D01*
X8786943Y5686100D01*
X8764457D01*
X8747584Y5681579D01*
X8630632Y5798532D01*
X8615614Y5808566D01*
X8597900Y5812090D01*
X8597899Y5812089D01*
X8391925D01*
X8391350Y5812950D01*
X8380384Y5820277D01*
X8367450Y5822849D01*
D02*
G37*
G36*
X7817450Y5695849D02*
X7701950D01*
X7689016Y5693277D01*
X7678050Y5685950D01*
X7670723Y5674984D01*
X7668151Y5662050D01*
Y5615550D01*
X7670723Y5602616D01*
X7678050Y5591650D01*
X7689016Y5584323D01*
X7701950Y5581751D01*
X7817450D01*
X7830384Y5584323D01*
X7841350Y5591650D01*
X7848677Y5602616D01*
X7851249Y5615550D01*
Y5662050D01*
X7848677Y5674984D01*
X7841350Y5685950D01*
X7830384Y5693277D01*
X7817450Y5695849D01*
D02*
G37*
G36*
X9267612Y5579100D02*
X9242388D01*
X9218023Y5572571D01*
X9196177Y5559959D01*
X9178341Y5542123D01*
X9165729Y5520277D01*
X9161574Y5504772D01*
X9148426D01*
X9144271Y5520277D01*
X9131659Y5542123D01*
X9113823Y5559959D01*
X9091977Y5572571D01*
X9067612Y5579100D01*
X9042388D01*
X9018023Y5572571D01*
X8996177Y5559959D01*
X8978341Y5542123D01*
X8965729Y5520277D01*
X8959200Y5495912D01*
Y5470688D01*
X8965729Y5446323D01*
X8978341Y5424477D01*
X8996177Y5406641D01*
X9018023Y5394029D01*
X9042388Y5387500D01*
X9067612D01*
X9091977Y5394029D01*
X9113823Y5406641D01*
X9131659Y5424477D01*
X9144271Y5446323D01*
X9148426Y5461828D01*
X9161574D01*
X9165729Y5446323D01*
X9178341Y5424477D01*
X9196177Y5406641D01*
X9218023Y5394029D01*
X9242388Y5387500D01*
X9267612D01*
X9291977Y5394029D01*
X9313823Y5406641D01*
X9331659Y5424477D01*
X9344271Y5446323D01*
X9350800Y5470688D01*
Y5495912D01*
X9344271Y5520277D01*
X9331659Y5542123D01*
X9313823Y5559959D01*
X9291977Y5572571D01*
X9267612Y5579100D01*
D02*
G37*
G36*
X7817450Y5568849D02*
X7701950D01*
X7689016Y5566277D01*
X7678050Y5558950D01*
X7670723Y5547984D01*
X7668151Y5535050D01*
Y5488550D01*
X7670723Y5475616D01*
X7678050Y5464650D01*
X7689016Y5457323D01*
X7701950Y5454751D01*
X7817450D01*
X7830384Y5457323D01*
X7841350Y5464650D01*
X7848677Y5475616D01*
X7851249Y5488550D01*
Y5535050D01*
X7848677Y5547984D01*
X7841350Y5558950D01*
X7830384Y5566277D01*
X7817450Y5568849D01*
D02*
G37*
G36*
X2819401Y5410074D02*
Y5330000D01*
X2899475D01*
X2893270Y5353158D01*
X2881039Y5374342D01*
X2863743Y5391638D01*
X2842558Y5403869D01*
X2819401Y5410074D01*
D02*
G37*
G36*
X2794001D02*
X2770843Y5403869D01*
X2749658Y5391638D01*
X2732362Y5374342D01*
X2720131Y5353158D01*
X2713926Y5330000D01*
X2794001D01*
Y5410074D01*
D02*
G37*
G36*
X7817450Y5441849D02*
X7701950D01*
X7689016Y5439277D01*
X7678050Y5431950D01*
X7670723Y5420984D01*
X7668151Y5408050D01*
Y5361550D01*
X7670723Y5348616D01*
X7678050Y5337650D01*
X7689016Y5330323D01*
X7701950Y5327751D01*
X7817450D01*
X7830384Y5330323D01*
X7841350Y5337650D01*
X7848677Y5348616D01*
X7851249Y5361550D01*
Y5408050D01*
X7848677Y5420984D01*
X7841350Y5431950D01*
X7830384Y5439277D01*
X7817450Y5441849D01*
D02*
G37*
G36*
X2049275Y5623700D02*
X2014725D01*
X1980838Y5616959D01*
X1948917Y5603737D01*
X1920189Y5584542D01*
X1895758Y5560111D01*
X1876563Y5531383D01*
X1863341Y5499462D01*
X1856600Y5465575D01*
Y5431025D01*
X1863341Y5397138D01*
X1876563Y5365217D01*
X1895758Y5336489D01*
X1920189Y5312058D01*
X1948917Y5292863D01*
X1980838Y5279641D01*
X2014725Y5272900D01*
X2049275D01*
X2083162Y5279641D01*
X2115083Y5292863D01*
X2143811Y5312058D01*
X2168242Y5336489D01*
X2187437Y5365217D01*
X2200659Y5397138D01*
X2207400Y5431025D01*
Y5465575D01*
X2200659Y5499462D01*
X2187437Y5531383D01*
X2168242Y5560111D01*
X2143811Y5584542D01*
X2115083Y5603737D01*
X2083162Y5616959D01*
X2049275Y5623700D01*
D02*
G37*
G36*
X2899475Y5304600D02*
X2819401D01*
Y5224526D01*
X2842558Y5230731D01*
X2863743Y5242962D01*
X2881039Y5260258D01*
X2893270Y5281442D01*
X2899475Y5304600D01*
D02*
G37*
G36*
X2794001D02*
X2713926D01*
X2720131Y5281442D01*
X2732362Y5260258D01*
X2749658Y5242962D01*
X2770843Y5230731D01*
X2794001Y5224526D01*
Y5304600D01*
D02*
G37*
G36*
X7817450Y5314849D02*
X7701950D01*
X7689016Y5312277D01*
X7678050Y5304950D01*
X7670723Y5293984D01*
X7668151Y5281050D01*
Y5234550D01*
X7670723Y5221616D01*
X7678050Y5210650D01*
X7689016Y5203323D01*
X7701950Y5200751D01*
X7817450D01*
X7830384Y5203323D01*
X7841350Y5210650D01*
X7848677Y5221616D01*
X7851249Y5234550D01*
Y5281050D01*
X7848677Y5293984D01*
X7841350Y5304950D01*
X7830384Y5312277D01*
X7817450Y5314849D01*
D02*
G37*
G36*
X8367450Y5187849D02*
X8322400D01*
Y5143500D01*
X8401249D01*
Y5154050D01*
X8398677Y5166984D01*
X8391350Y5177950D01*
X8380384Y5185277D01*
X8367450Y5187849D01*
D02*
G37*
G36*
X8297000D02*
X8251950D01*
X8239016Y5185277D01*
X8228050Y5177950D01*
X8220723Y5166984D01*
X8218150Y5154050D01*
Y5143500D01*
X8297000D01*
Y5187849D01*
D02*
G37*
G36*
X8367450Y5568849D02*
X8251950D01*
X8239016Y5566277D01*
X8228050Y5558950D01*
X8220723Y5547984D01*
X8218150Y5535050D01*
Y5520214D01*
X7909468Y5211532D01*
X7899434Y5196514D01*
X7895910Y5178800D01*
X7895911Y5178799D01*
Y4885600D01*
X7861800D01*
Y4664800D01*
X8022600D01*
Y4885600D01*
X7988489D01*
Y5159626D01*
X8206417Y5377554D01*
X8218150Y5372694D01*
Y5361550D01*
X8220723Y5348616D01*
X8228050Y5337650D01*
X8239016Y5330323D01*
X8251950Y5327751D01*
X8367450D01*
X8380384Y5330323D01*
X8391350Y5337650D01*
X8391925Y5338511D01*
X8571611D01*
X8706237Y5203884D01*
X8704400Y5197028D01*
Y5174542D01*
X8710220Y5152822D01*
X8721463Y5133348D01*
X8737363Y5117448D01*
X8756837Y5106205D01*
X8778557Y5100385D01*
X8801043D01*
X8822763Y5106205D01*
X8842237Y5117448D01*
X8858137Y5133348D01*
X8869380Y5152822D01*
X8875200Y5174542D01*
Y5197028D01*
X8869380Y5218748D01*
X8858137Y5238222D01*
X8842237Y5254122D01*
X8822763Y5265365D01*
X8801043Y5271185D01*
X8778557D01*
X8771701Y5269348D01*
X8623517Y5417532D01*
X8608499Y5427566D01*
X8590785Y5431090D01*
X8590784Y5431089D01*
X8391925D01*
X8391350Y5431950D01*
X8380384Y5439277D01*
X8367450Y5441849D01*
X8302363D01*
X8295574Y5454549D01*
X8295709Y5454751D01*
X8367450D01*
X8380384Y5457323D01*
X8391350Y5464650D01*
X8398677Y5475616D01*
X8401249Y5488550D01*
Y5535050D01*
X8398677Y5547984D01*
X8391350Y5558950D01*
X8380384Y5566277D01*
X8367450Y5568849D01*
D02*
G37*
G36*
X2061600Y5177700D02*
X1993900D01*
Y5080000D01*
X2061600D01*
Y5177700D01*
D02*
G37*
G36*
X1968500D02*
X1900800D01*
Y5080000D01*
X1968500D01*
Y5177700D01*
D02*
G37*
G36*
X8401249Y5118100D02*
X8322400D01*
Y5073751D01*
X8367450D01*
X8380384Y5076323D01*
X8391350Y5083650D01*
X8398677Y5094616D01*
X8401249Y5107550D01*
Y5118100D01*
D02*
G37*
G36*
X8297000D02*
X8218150D01*
Y5107550D01*
X8220723Y5094616D01*
X8228050Y5083650D01*
X8239016Y5076323D01*
X8251950Y5073751D01*
X8297000D01*
Y5118100D01*
D02*
G37*
G36*
X7817450Y5187849D02*
X7701950D01*
X7689016Y5185277D01*
X7678050Y5177950D01*
X7670723Y5166984D01*
X7668151Y5154050D01*
Y5107550D01*
X7670723Y5094616D01*
X7678050Y5083650D01*
X7689016Y5076323D01*
X7701950Y5073751D01*
X7817450D01*
X7830384Y5076323D01*
X7841350Y5083650D01*
X7848677Y5094616D01*
X7851249Y5107550D01*
Y5154050D01*
X7848677Y5166984D01*
X7841350Y5177950D01*
X7830384Y5185277D01*
X7817450Y5187849D01*
D02*
G37*
G36*
X5201200Y5101100D02*
X5143500D01*
Y5048401D01*
X5201200D01*
Y5101100D01*
D02*
G37*
G36*
X5118100D02*
X5060400D01*
Y5048401D01*
X5118100D01*
Y5101100D01*
D02*
G37*
G36*
X9543832Y5197500D02*
X9537700D01*
Y5019000D01*
X9716200D01*
Y5025131D01*
X9708852Y5062071D01*
X9694439Y5096867D01*
X9673515Y5128183D01*
X9646883Y5154815D01*
X9615567Y5175739D01*
X9580771Y5190152D01*
X9543832Y5197500D01*
D02*
G37*
G36*
X9512300D02*
X9506168D01*
X9469229Y5190152D01*
X9434433Y5175739D01*
X9403117Y5154815D01*
X9376485Y5128183D01*
X9355561Y5096867D01*
X9341148Y5062071D01*
X9333800Y5025131D01*
Y5019000D01*
X9512300D01*
Y5197500D01*
D02*
G37*
G36*
X2061600Y5054600D02*
X1993900D01*
Y4956900D01*
X2061600D01*
Y5054600D01*
D02*
G37*
G36*
X1968500D02*
X1900800D01*
Y4956900D01*
X1968500D01*
Y5054600D01*
D02*
G37*
G36*
X1370143Y5533700D02*
X1347657D01*
X1325937Y5527880D01*
X1306463Y5516637D01*
X1290563Y5500737D01*
X1279320Y5481263D01*
X1273500Y5459543D01*
Y5437057D01*
X1279320Y5415337D01*
X1290563Y5395863D01*
X1306463Y5379963D01*
X1314761Y5375173D01*
Y5165634D01*
X1304675D01*
X1292043Y5163122D01*
X1281334Y5155966D01*
X1274178Y5145257D01*
X1271666Y5132625D01*
Y5053575D01*
X1274178Y5040943D01*
X1281334Y5030234D01*
X1292043Y5023078D01*
X1304675Y5020566D01*
X1421725D01*
X1434357Y5023078D01*
X1445066Y5030234D01*
X1452222Y5040943D01*
X1453389Y5046811D01*
X1630800D01*
Y4956900D01*
X1791600D01*
Y5177700D01*
X1630800D01*
Y5139390D01*
X1453389D01*
X1452222Y5145257D01*
X1445066Y5155966D01*
X1434357Y5163122D01*
X1421725Y5165634D01*
X1407340D01*
Y5377655D01*
X1411337Y5379963D01*
X1427237Y5395863D01*
X1438480Y5415337D01*
X1444300Y5437057D01*
Y5459543D01*
X1438480Y5481263D01*
X1427237Y5500737D01*
X1411337Y5516637D01*
X1391863Y5527880D01*
X1370143Y5533700D01*
D02*
G37*
G36*
X8367450Y5314849D02*
X8251950D01*
X8239016Y5312277D01*
X8228050Y5304950D01*
X8220723Y5293984D01*
X8218150Y5281050D01*
Y5234550D01*
X8220723Y5221616D01*
X8228050Y5210650D01*
X8239016Y5203323D01*
X8251950Y5200751D01*
X8367450D01*
X8380384Y5203323D01*
X8391350Y5210650D01*
X8391925Y5211511D01*
X8489826D01*
X8704837Y4996500D01*
X8703000Y4989643D01*
Y4967157D01*
X8708820Y4945437D01*
X8720063Y4925963D01*
X8735963Y4910063D01*
X8755437Y4898820D01*
X8777157Y4893000D01*
X8799643D01*
X8821363Y4898820D01*
X8840837Y4910063D01*
X8856737Y4925963D01*
X8867980Y4945437D01*
X8873800Y4967157D01*
Y4989643D01*
X8867980Y5011363D01*
X8856737Y5030837D01*
X8840837Y5046737D01*
X8821363Y5057980D01*
X8799643Y5063800D01*
X8777157D01*
X8770300Y5061963D01*
X8541732Y5290532D01*
X8526714Y5300566D01*
X8509000Y5304090D01*
X8508999Y5304089D01*
X8391925D01*
X8391350Y5304950D01*
X8380384Y5312277D01*
X8367450Y5314849D01*
D02*
G37*
G36*
X9716200Y4993600D02*
X9537700D01*
Y4815100D01*
X9543832D01*
X9580771Y4822448D01*
X9615567Y4836861D01*
X9646883Y4857785D01*
X9673515Y4884417D01*
X9694439Y4915733D01*
X9708852Y4950529D01*
X9716200Y4987468D01*
Y4993600D01*
D02*
G37*
G36*
X9512300D02*
X9333800D01*
Y4987468D01*
X9341148Y4950529D01*
X9355561Y4915733D01*
X9376485Y4884417D01*
X9403117Y4857785D01*
X9434433Y4836861D01*
X9469229Y4822448D01*
X9506168Y4815100D01*
X9512300D01*
Y4993600D01*
D02*
G37*
G36*
X8292600Y4885600D02*
X8224900D01*
Y4787900D01*
X8292600D01*
Y4885600D01*
D02*
G37*
G36*
X8199500D02*
X8131800D01*
Y4787900D01*
X8199500D01*
Y4885600D01*
D02*
G37*
G36*
X9271000Y4796709D02*
Y4724400D01*
X9343309D01*
X9337880Y4744663D01*
X9326637Y4764137D01*
X9310737Y4780037D01*
X9291263Y4791280D01*
X9271000Y4796709D01*
D02*
G37*
G36*
X9245600D02*
X9225337Y4791280D01*
X9205863Y4780037D01*
X9189963Y4764137D01*
X9178720Y4744663D01*
X9173291Y4724400D01*
X9245600D01*
Y4796709D01*
D02*
G37*
G36*
X2899599Y4910200D02*
X2713800D01*
Y4724400D01*
X2899599D01*
Y4910200D01*
D02*
G37*
G36*
X2071336Y4791056D02*
X2003637D01*
Y4693356D01*
X2071336D01*
Y4791056D01*
D02*
G37*
G36*
X1978237D02*
X1910537D01*
Y4693356D01*
X1978237D01*
Y4791056D01*
D02*
G37*
G36*
X749875Y5052190D02*
X638525D01*
X624781Y5049456D01*
X613129Y5041671D01*
X605344Y5030019D01*
X602610Y5016275D01*
Y4711925D01*
X605344Y4698181D01*
X613129Y4686529D01*
X624781Y4678744D01*
X638525Y4676010D01*
X749875D01*
X763619Y4678744D01*
X775271Y4686529D01*
X783056Y4698181D01*
X785790Y4711925D01*
Y5016275D01*
X783056Y5030019D01*
X775271Y5041671D01*
X763619Y5049456D01*
X749875Y5052190D01*
D02*
G37*
G36*
X8292600Y4762500D02*
X8224900D01*
Y4664800D01*
X8292600D01*
Y4762500D01*
D02*
G37*
G36*
X8199500D02*
X8131800D01*
Y4664800D01*
X8199500D01*
Y4762500D01*
D02*
G37*
G36*
X1421725Y4707634D02*
X1375900D01*
Y4647799D01*
X1454734D01*
Y4674625D01*
X1452222Y4687257D01*
X1445066Y4697966D01*
X1434357Y4705122D01*
X1421725Y4707634D01*
D02*
G37*
G36*
X1350500D02*
X1304675D01*
X1292043Y4705122D01*
X1281334Y4697966D01*
X1274178Y4687257D01*
X1271666Y4674625D01*
Y4647799D01*
X1350500D01*
Y4707634D01*
D02*
G37*
G36*
X9343309Y4699000D02*
X9271000D01*
Y4626691D01*
X9291263Y4632120D01*
X9310737Y4643363D01*
X9326637Y4659263D01*
X9337880Y4678737D01*
X9343309Y4699000D01*
D02*
G37*
G36*
X9245600D02*
X9173291D01*
X9178720Y4678737D01*
X9189963Y4659263D01*
X9205863Y4643363D01*
X9225337Y4632120D01*
X9245600Y4626691D01*
Y4699000D01*
D02*
G37*
G36*
X2071336Y4667956D02*
X2003637D01*
Y4570256D01*
X2071336D01*
Y4667956D01*
D02*
G37*
G36*
X1978237D02*
X1910537D01*
Y4570256D01*
X1978237D01*
Y4667956D01*
D02*
G37*
G36*
X989143Y6346500D02*
X966657D01*
X944937Y6340680D01*
X925463Y6329437D01*
X909563Y6313537D01*
X898320Y6294063D01*
X892500Y6272343D01*
Y6249857D01*
X898320Y6228137D01*
X909563Y6208663D01*
X925463Y6192763D01*
X931611Y6189214D01*
Y5230401D01*
X931610Y5230400D01*
X935134Y5212686D01*
X945168Y5197668D01*
X1271666Y4871171D01*
Y4824575D01*
X1274178Y4811943D01*
X1281334Y4801234D01*
X1292043Y4794078D01*
X1304675Y4791566D01*
X1421725D01*
X1434357Y4794078D01*
X1445066Y4801234D01*
X1452222Y4811943D01*
X1453389Y4817811D01*
X1548319D01*
X1640537Y4725593D01*
Y4570256D01*
X1801337D01*
Y4791056D01*
X1706000D01*
X1600224Y4896832D01*
X1585207Y4906866D01*
X1567493Y4910390D01*
X1567491Y4910389D01*
X1453389D01*
X1452222Y4916257D01*
X1445066Y4926966D01*
X1434357Y4934122D01*
X1421725Y4936634D01*
X1337129D01*
X1024189Y5249574D01*
Y6189214D01*
X1030337Y6192763D01*
X1046237Y6208663D01*
X1057480Y6228137D01*
X1063300Y6249857D01*
Y6272343D01*
X1057480Y6294063D01*
X1046237Y6313537D01*
X1030337Y6329437D01*
X1010863Y6340680D01*
X989143Y6346500D01*
D02*
G37*
G36*
X1454734Y4622399D02*
X1375900D01*
Y4562566D01*
X1421725D01*
X1434357Y4565078D01*
X1445066Y4572234D01*
X1452222Y4582943D01*
X1454734Y4595575D01*
Y4622399D01*
D02*
G37*
G36*
X1350500D02*
X1271666D01*
Y4595575D01*
X1274178Y4582943D01*
X1281334Y4572234D01*
X1292043Y4565078D01*
X1304675Y4562566D01*
X1350500D01*
Y4622399D01*
D02*
G37*
G36*
X2654300Y4606209D02*
Y4533900D01*
X2726609D01*
X2721180Y4554163D01*
X2709937Y4573637D01*
X2694037Y4589537D01*
X2674563Y4600780D01*
X2654300Y4606209D01*
D02*
G37*
G36*
X2628900D02*
X2608637Y4600780D01*
X2589163Y4589537D01*
X2573263Y4573637D01*
X2562020Y4554163D01*
X2556591Y4533900D01*
X2628900D01*
Y4606209D01*
D02*
G37*
G36*
X5206302Y4460475D02*
X5148602D01*
Y4407775D01*
X5206302D01*
Y4460475D01*
D02*
G37*
G36*
X5123202D02*
X5065502D01*
Y4407775D01*
X5123202D01*
Y4460475D01*
D02*
G37*
G36*
X8178660Y4375300D02*
X8153540D01*
X8129277Y4368798D01*
X8107523Y4356239D01*
X8089761Y4338477D01*
X8077202Y4316723D01*
X8070700Y4292460D01*
Y4267340D01*
X8077202Y4243077D01*
X8089761Y4221323D01*
X8107523Y4203561D01*
X8129277Y4191002D01*
X8153540Y4184500D01*
X8178660D01*
X8202923Y4191002D01*
X8224677Y4203561D01*
X8242439Y4221323D01*
X8254998Y4243077D01*
X8261500Y4267340D01*
Y4292460D01*
X8254998Y4316723D01*
X8242439Y4338477D01*
X8224677Y4356239D01*
X8202923Y4368798D01*
X8178660Y4375300D01*
D02*
G37*
G36*
X9690618Y4202500D02*
X9664182D01*
X9638647Y4195658D01*
X9615753Y4182440D01*
X9597060Y4163747D01*
X9583842Y4140853D01*
X9577000Y4115318D01*
Y4088882D01*
X9583842Y4063347D01*
X9597060Y4040453D01*
X9615753Y4021760D01*
X9638647Y4008542D01*
X9664182Y4001700D01*
X9690618D01*
X9716153Y4008542D01*
X9739047Y4021760D01*
X9757740Y4040453D01*
X9770958Y4063347D01*
X9777800Y4088882D01*
Y4115318D01*
X9770958Y4140853D01*
X9757740Y4163747D01*
X9739047Y4182440D01*
X9716153Y4195658D01*
X9690618Y4202500D01*
D02*
G37*
G36*
X8178800Y4019662D02*
Y3937000D01*
X8261462D01*
X8254998Y3961123D01*
X8242439Y3982877D01*
X8224677Y4000639D01*
X8202923Y4013198D01*
X8178800Y4019662D01*
D02*
G37*
G36*
X8153400D02*
X8129277Y4013198D01*
X8107523Y4000639D01*
X8089761Y3982877D01*
X8077202Y3961123D01*
X8070738Y3937000D01*
X8153400D01*
Y4019662D01*
D02*
G37*
G36*
X5156200Y3996700D02*
Y3929000D01*
X5298900D01*
Y3996700D01*
X5156200D01*
D02*
G37*
G36*
X5298900Y3903600D02*
X5156200D01*
Y3835900D01*
X5298900D01*
Y3903600D01*
D02*
G37*
G36*
X8261462Y3911600D02*
X8178800D01*
Y3828938D01*
X8202923Y3835402D01*
X8224677Y3847961D01*
X8242439Y3865723D01*
X8254998Y3887477D01*
X8261462Y3911600D01*
D02*
G37*
G36*
X8153400D02*
X8070738D01*
X8077202Y3887477D01*
X8089761Y3865723D01*
X8107523Y3847961D01*
X8129277Y3835402D01*
X8153400Y3828938D01*
Y3911600D01*
D02*
G37*
G36*
X8940660Y4375300D02*
X8915540D01*
X8891277Y4368798D01*
X8869523Y4356239D01*
X8851761Y4338477D01*
X8839202Y4316723D01*
X8832700Y4292460D01*
Y4267340D01*
X8839202Y4243077D01*
X8851761Y4221323D01*
X8852049Y4221035D01*
Y4000351D01*
X8531003D01*
X8511320Y3997759D01*
X8500575Y3993309D01*
X8492978Y3990162D01*
X8477227Y3978076D01*
X8130999Y3631847D01*
X8128000D01*
X8108317Y3629256D01*
X8108173Y3629197D01*
X8016100D01*
Y3482397D01*
X8108173D01*
X8108317Y3482337D01*
X8128000Y3479746D01*
X8162500D01*
X8182183Y3482337D01*
X8182327Y3482397D01*
X8239900D01*
Y3525645D01*
X8562504Y3848249D01*
X8869235D01*
X8869523Y3847961D01*
X8891277Y3835402D01*
X8915540Y3828900D01*
X8940660D01*
X8964923Y3835402D01*
X8986677Y3847961D01*
X9004439Y3865723D01*
X9016998Y3887477D01*
X9023500Y3911740D01*
Y3936860D01*
X9016998Y3961123D01*
X9004439Y3982877D01*
X9004151Y3983165D01*
Y4221035D01*
X9004439Y4221323D01*
X9016998Y4243077D01*
X9023500Y4267340D01*
Y4292460D01*
X9016998Y4316723D01*
X9004439Y4338477D01*
X8986677Y4356239D01*
X8964923Y4368798D01*
X8940660Y4375300D01*
D02*
G37*
G36*
X3175000Y3831509D02*
Y3759200D01*
X3247309D01*
X3241880Y3779463D01*
X3230637Y3798937D01*
X3214737Y3814837D01*
X3195263Y3826080D01*
X3175000Y3831509D01*
D02*
G37*
G36*
X3149600D02*
X3129337Y3826080D01*
X3109863Y3814837D01*
X3093963Y3798937D01*
X3082720Y3779463D01*
X3077291Y3759200D01*
X3149600D01*
Y3831509D01*
D02*
G37*
G36*
X9777800Y3948500D02*
X9577000D01*
Y3747700D01*
X9777800D01*
Y3948500D01*
D02*
G37*
G36*
X3247309Y3733800D02*
X3175000D01*
Y3661491D01*
X3195263Y3666920D01*
X3214737Y3678163D01*
X3230637Y3694063D01*
X3241880Y3713537D01*
X3247309Y3733800D01*
D02*
G37*
G36*
X3149600D02*
X3077291D01*
X3082720Y3713537D01*
X3093963Y3694063D01*
X3109863Y3678163D01*
X3129337Y3666920D01*
X3149600Y3661491D01*
Y3733800D01*
D02*
G37*
G36*
X2969475Y3555851D02*
X2921175D01*
Y3492500D01*
X3043854D01*
X3042934Y3499483D01*
X3035337Y3517825D01*
X3023251Y3533576D01*
X3007500Y3545662D01*
X2989159Y3553259D01*
X2969475Y3555851D01*
D02*
G37*
G36*
X2895775D02*
X2847475D01*
X2827791Y3553259D01*
X2809450Y3545662D01*
X2793699Y3533576D01*
X2781613Y3517825D01*
X2774016Y3499483D01*
X2773096Y3492500D01*
X2895775D01*
Y3555851D01*
D02*
G37*
G36*
X3454260Y3676800D02*
X3429140D01*
X3404877Y3670298D01*
X3383123Y3657739D01*
X3365361Y3639977D01*
X3352802Y3618223D01*
X3346300Y3593960D01*
Y3568840D01*
X3352802Y3544577D01*
X3365361Y3522823D01*
X3383123Y3505061D01*
X3404877Y3492502D01*
X3429140Y3486000D01*
X3454260D01*
X3478523Y3492502D01*
X3500277Y3505061D01*
X3518039Y3522823D01*
X3530598Y3544577D01*
X3537100Y3568840D01*
Y3593960D01*
X3530598Y3618223D01*
X3518039Y3639977D01*
X3500277Y3657739D01*
X3478523Y3670298D01*
X3454260Y3676800D01*
D02*
G37*
G36*
X9179900Y3634198D02*
X8480100D01*
Y3020399D01*
X9179900D01*
Y3302149D01*
X9397024D01*
X9403137Y3298620D01*
X9424857Y3292800D01*
X9447343D01*
X9469063Y3298620D01*
X9488537Y3309863D01*
X9504437Y3325763D01*
X9515680Y3345237D01*
X9521500Y3366957D01*
Y3389443D01*
X9515680Y3411163D01*
X9504437Y3430637D01*
X9488537Y3446537D01*
X9469063Y3457780D01*
X9447343Y3463600D01*
X9424857D01*
X9403137Y3457780D01*
X9397024Y3454251D01*
X9179900D01*
Y3634198D01*
D02*
G37*
G36*
X9693318Y3478600D02*
X9666882D01*
X9641347Y3471758D01*
X9618453Y3458540D01*
X9599760Y3439847D01*
X9586542Y3416953D01*
X9579700Y3391418D01*
Y3364982D01*
X9586542Y3339447D01*
X9599760Y3316553D01*
X9618453Y3297860D01*
X9641347Y3284642D01*
X9666882Y3277800D01*
X9693318D01*
X9718853Y3284642D01*
X9741747Y3297860D01*
X9760440Y3316553D01*
X9773658Y3339447D01*
X9780500Y3364982D01*
Y3391418D01*
X9773658Y3416953D01*
X9760440Y3439847D01*
X9741747Y3458540D01*
X9718853Y3471758D01*
X9693318Y3478600D01*
D02*
G37*
G36*
X8239900Y3172200D02*
X8140700D01*
Y3111500D01*
X8239900D01*
Y3172200D01*
D02*
G37*
G36*
X8115300D02*
X8016100D01*
Y3111500D01*
X8115300D01*
Y3172200D01*
D02*
G37*
G36*
X8239900Y3086100D02*
X8140700D01*
Y3025400D01*
X8239900D01*
Y3086100D01*
D02*
G37*
G36*
X8115300D02*
X8016100D01*
Y3025400D01*
X8115300D01*
Y3086100D01*
D02*
G37*
G36*
X9780500Y3224600D02*
X9579700D01*
Y3023800D01*
X9780500D01*
Y3224600D01*
D02*
G37*
G36*
X3961800Y3031500D02*
X3869100D01*
Y2948800D01*
X3961800D01*
Y3031500D01*
D02*
G37*
G36*
X3843700D02*
X3751000D01*
Y2948800D01*
X3843700D01*
Y3031500D01*
D02*
G37*
G36*
X4563701D02*
X4471000D01*
Y2948800D01*
X4563701D01*
Y3031500D01*
D02*
G37*
G36*
X3961800Y2923400D02*
X3869100D01*
Y2840700D01*
X3961800D01*
Y2923400D01*
D02*
G37*
G36*
X3843700D02*
X3751000D01*
Y2840700D01*
X3843700D01*
Y2923400D01*
D02*
G37*
G36*
X4563701D02*
X4471000D01*
Y2840700D01*
X4563701D01*
Y2923400D01*
D02*
G37*
G36*
X3454260Y2914800D02*
X3429140D01*
X3404877Y2908298D01*
X3383123Y2895739D01*
X3365361Y2877977D01*
X3352802Y2856223D01*
X3346300Y2831960D01*
Y2806840D01*
X3352802Y2782577D01*
X3365361Y2760823D01*
X3383123Y2743061D01*
X3404877Y2730502D01*
X3429140Y2724000D01*
X3454260D01*
X3478523Y2730502D01*
X3500277Y2743061D01*
X3518039Y2760823D01*
X3530598Y2782577D01*
X3537100Y2806840D01*
Y2831960D01*
X3530598Y2856223D01*
X3518039Y2877977D01*
X3500277Y2895739D01*
X3478523Y2908298D01*
X3454260Y2914800D01*
D02*
G37*
G36*
X7414102Y2528400D02*
X7353402D01*
Y2429200D01*
X7414102D01*
Y2528400D01*
D02*
G37*
G36*
X7328002D02*
X7267302D01*
Y2429200D01*
X7328002D01*
Y2528400D01*
D02*
G37*
G36*
X7414102Y2403800D02*
X7353402D01*
Y2304600D01*
X7414102D01*
Y2403800D01*
D02*
G37*
G36*
X7328002D02*
X7267302D01*
Y2304600D01*
X7328002D01*
Y2403800D01*
D02*
G37*
G36*
X4965283Y2429100D02*
X4940717D01*
X4916987Y2422742D01*
X4895712Y2410459D01*
X4878341Y2393088D01*
X4866058Y2371813D01*
X4859700Y2348083D01*
Y2323517D01*
X4866058Y2299787D01*
X4878341Y2278512D01*
X4895712Y2261141D01*
X4916987Y2248858D01*
X4940717Y2242500D01*
X4965283D01*
X4989013Y2248858D01*
X5010288Y2261141D01*
X5027659Y2278512D01*
X5039942Y2299787D01*
X5046300Y2323517D01*
Y2348083D01*
X5039942Y2371813D01*
X5027659Y2393088D01*
X5010288Y2410459D01*
X4989013Y2422742D01*
X4965283Y2429100D01*
D02*
G37*
G36*
X449275Y2573700D02*
X414725D01*
X380838Y2566959D01*
X348917Y2553737D01*
X320189Y2534542D01*
X295758Y2510111D01*
X276563Y2481383D01*
X263341Y2449462D01*
X256600Y2415575D01*
Y2381025D01*
X263341Y2347138D01*
X276563Y2315217D01*
X295758Y2286489D01*
X320189Y2262058D01*
X348917Y2242863D01*
X380838Y2229641D01*
X414725Y2222900D01*
X449275D01*
X483162Y2229641D01*
X515083Y2242863D01*
X543811Y2262058D01*
X568242Y2286489D01*
X587437Y2315217D01*
X600659Y2347138D01*
X607400Y2381025D01*
Y2415575D01*
X600659Y2449462D01*
X587437Y2481383D01*
X568242Y2510111D01*
X543811Y2534542D01*
X515083Y2553737D01*
X483162Y2566959D01*
X449275Y2573700D01*
D02*
G37*
G36*
X7871098Y2528400D02*
X7724298D01*
Y2436327D01*
X7724239Y2436184D01*
X7721648Y2416500D01*
Y2382000D01*
X7724239Y2362317D01*
X7724298Y2362173D01*
Y2304600D01*
X7794755D01*
X7799698Y2303949D01*
X7802697D01*
X7965408Y2141239D01*
X7970763Y2131963D01*
X7986663Y2116063D01*
X8006137Y2104820D01*
X8008386Y2104218D01*
X8022815Y2098241D01*
X8042499Y2095649D01*
X8062182Y2098241D01*
X8080524Y2105838D01*
X8096274Y2117924D01*
X8105762Y2130288D01*
X8107437Y2131963D01*
X8118680Y2151437D01*
X8124500Y2173157D01*
Y2195643D01*
X8118680Y2217363D01*
X8107437Y2236837D01*
X8091537Y2252737D01*
X8072063Y2263980D01*
X8052539Y2269212D01*
X7887974Y2433776D01*
X7872224Y2445862D01*
X7871098Y2446328D01*
Y2528400D01*
D02*
G37*
G36*
X8623160Y2267100D02*
X8598040D01*
X8573777Y2260598D01*
X8552023Y2248039D01*
X8534261Y2230277D01*
X8521702Y2208523D01*
X8515200Y2184260D01*
Y2159140D01*
X8521702Y2134877D01*
X8534261Y2113123D01*
X8552023Y2095361D01*
X8573777Y2082802D01*
X8598040Y2076300D01*
X8623160D01*
X8647423Y2082802D01*
X8669177Y2095361D01*
X8686939Y2113123D01*
X8699498Y2134877D01*
X8706000Y2159140D01*
Y2184260D01*
X8699498Y2208523D01*
X8686939Y2230277D01*
X8669177Y2248039D01*
X8647423Y2260598D01*
X8623160Y2267100D01*
D02*
G37*
G36*
X8267560D02*
X8242440D01*
X8218177Y2260598D01*
X8196423Y2248039D01*
X8178661Y2230277D01*
X8166102Y2208523D01*
X8159600Y2184260D01*
Y2159140D01*
X8166102Y2134877D01*
X8178661Y2113123D01*
X8196423Y2095361D01*
X8218177Y2082802D01*
X8242440Y2076300D01*
X8267560D01*
X8291823Y2082802D01*
X8313577Y2095361D01*
X8331339Y2113123D01*
X8343898Y2134877D01*
X8350400Y2159140D01*
Y2184260D01*
X8343898Y2208523D01*
X8331339Y2230277D01*
X8313577Y2248039D01*
X8291823Y2260598D01*
X8267560Y2267100D01*
D02*
G37*
G36*
X2149826Y2033700D02*
X2144700D01*
Y1911000D01*
X2267400D01*
Y1916126D01*
X2258173Y1950563D01*
X2240347Y1981437D01*
X2215138Y2006647D01*
X2184263Y2024473D01*
X2149826Y2033700D01*
D02*
G37*
G36*
X2119300D02*
X2114174D01*
X2079738Y2024473D01*
X2048863Y2006647D01*
X2023653Y1981437D01*
X2005827Y1950563D01*
X1996600Y1916126D01*
Y1911000D01*
X2119300D01*
Y2033700D01*
D02*
G37*
G36*
X2267400Y1885600D02*
X2144700D01*
Y1762900D01*
X2149826D01*
X2184263Y1772127D01*
X2215138Y1789953D01*
X2240347Y1815162D01*
X2258173Y1846037D01*
X2267400Y1880474D01*
Y1885600D01*
D02*
G37*
G36*
X2119300D02*
X1996600D01*
Y1880474D01*
X2005827Y1846037D01*
X2023653Y1815162D01*
X2048863Y1789953D01*
X2079738Y1772127D01*
X2114174Y1762900D01*
X2119300D01*
Y1885600D01*
D02*
G37*
G36*
X349826Y2033700D02*
X314174D01*
X279738Y2024473D01*
X248863Y2006647D01*
X223653Y1981437D01*
X205827Y1950563D01*
X196600Y1916126D01*
Y1880474D01*
X205827Y1846037D01*
X223653Y1815162D01*
X248863Y1789953D01*
X279738Y1772127D01*
X314174Y1762900D01*
X349826D01*
X384263Y1772127D01*
X415138Y1789953D01*
X440347Y1815162D01*
X458173Y1846037D01*
X467400Y1880474D01*
Y1916126D01*
X458173Y1950563D01*
X440347Y1981437D01*
X415138Y2006647D01*
X384263Y2024473D01*
X349826Y2033700D01*
D02*
G37*
G36*
X4965700Y1668988D02*
Y1588500D01*
X5046188D01*
X5039942Y1611813D01*
X5027659Y1633088D01*
X5010288Y1650459D01*
X4989013Y1662742D01*
X4965700Y1668988D01*
D02*
G37*
G36*
X4940300D02*
X4916987Y1662742D01*
X4895712Y1650459D01*
X4878341Y1633088D01*
X4866058Y1611813D01*
X4859812Y1588500D01*
X4940300D01*
Y1668988D01*
D02*
G37*
G36*
X5046188Y1563100D02*
X4965700D01*
Y1482612D01*
X4989013Y1488858D01*
X5010288Y1501141D01*
X5027659Y1518512D01*
X5039942Y1539787D01*
X5046188Y1563100D01*
D02*
G37*
G36*
X4940300D02*
X4859812D01*
X4866058Y1539787D01*
X4878341Y1518512D01*
X4895712Y1501141D01*
X4916987Y1488858D01*
X4940300Y1482612D01*
Y1563100D01*
D02*
G37*
G36*
X8267700Y1505062D02*
Y1422400D01*
X8350362D01*
X8343898Y1446523D01*
X8331339Y1468277D01*
X8313577Y1486039D01*
X8291823Y1498598D01*
X8267700Y1505062D01*
D02*
G37*
G36*
X8242300D02*
X8218177Y1498598D01*
X8196423Y1486039D01*
X8178661Y1468277D01*
X8166102Y1446523D01*
X8159638Y1422400D01*
X8242300D01*
Y1505062D01*
D02*
G37*
G36*
X8350362Y1397000D02*
X8267700D01*
Y1314338D01*
X8291823Y1320802D01*
X8313577Y1333361D01*
X8331339Y1351123D01*
X8343898Y1372877D01*
X8350362Y1397000D01*
D02*
G37*
G36*
X8242300D02*
X8159638D01*
X8166102Y1372877D01*
X8178661Y1351123D01*
X8196423Y1333361D01*
X8218177Y1320802D01*
X8242300Y1314338D01*
Y1397000D01*
D02*
G37*
G36*
X8623160Y1505100D02*
X8598040D01*
X8573777Y1498598D01*
X8552023Y1486039D01*
X8534261Y1468277D01*
X8521702Y1446523D01*
X8515200Y1422260D01*
Y1397140D01*
X8521702Y1372877D01*
X8534261Y1351123D01*
X8552023Y1333361D01*
X8573777Y1320802D01*
X8598040Y1314300D01*
X8623160D01*
X8647423Y1320802D01*
X8669177Y1333361D01*
X8686939Y1351123D01*
X8699498Y1372877D01*
X8706000Y1397140D01*
Y1422260D01*
X8699498Y1446523D01*
X8686939Y1468277D01*
X8669177Y1486039D01*
X8647423Y1498598D01*
X8623160Y1505100D01*
D02*
G37*
G36*
X1701800Y1304209D02*
X1681537Y1298780D01*
X1662063Y1287537D01*
X1646163Y1271637D01*
X1634920Y1252163D01*
X1632174Y1241915D01*
X1619026D01*
X1616280Y1252163D01*
X1605037Y1271637D01*
X1589137Y1287537D01*
X1569663Y1298780D01*
X1549400Y1304209D01*
Y1219200D01*
X1536700D01*
Y1206500D01*
X1451691D01*
X1457120Y1186237D01*
X1468363Y1166763D01*
X1484263Y1150863D01*
X1503737Y1139620D01*
X1511146Y1137635D01*
Y1124487D01*
X1501724Y1121962D01*
X1482250Y1110719D01*
X1466350Y1094819D01*
X1455107Y1075345D01*
X1449677Y1055082D01*
X1534687D01*
Y1042382D01*
X1547387D01*
Y957373D01*
X1567650Y962802D01*
X1587124Y974045D01*
X1603024Y989945D01*
X1614267Y1009419D01*
X1617888Y1022933D01*
X1631036D01*
X1634920Y1008437D01*
X1646163Y988963D01*
X1662063Y973063D01*
X1681537Y961820D01*
X1701800Y956391D01*
Y1041400D01*
X1714500D01*
Y1054100D01*
X1799509D01*
X1794080Y1074363D01*
X1782837Y1093837D01*
X1766937Y1109737D01*
X1747463Y1120980D01*
X1737215Y1123726D01*
Y1136874D01*
X1747463Y1139620D01*
X1766937Y1150863D01*
X1782837Y1166763D01*
X1794080Y1186237D01*
X1799509Y1206500D01*
X1714500D01*
Y1219200D01*
X1701800D01*
Y1304209D01*
D02*
G37*
G36*
X1727200D02*
Y1231900D01*
X1799509D01*
X1794080Y1252163D01*
X1782837Y1271637D01*
X1766937Y1287537D01*
X1747463Y1298780D01*
X1727200Y1304209D01*
D02*
G37*
G36*
X1524000D02*
X1503737Y1298780D01*
X1484263Y1287537D01*
X1468363Y1271637D01*
X1457120Y1252163D01*
X1451691Y1231900D01*
X1524000D01*
Y1304209D01*
D02*
G37*
G36*
X1913410Y1302908D02*
Y1230599D01*
X1985720D01*
X1980290Y1250862D01*
X1969047Y1270335D01*
X1953147Y1286235D01*
X1933674Y1297478D01*
X1913410Y1302908D01*
D02*
G37*
G36*
X1888010D02*
X1867747Y1297478D01*
X1848274Y1286235D01*
X1832374Y1270335D01*
X1821130Y1250862D01*
X1815701Y1230599D01*
X1888010D01*
Y1302908D01*
D02*
G37*
G36*
X4965700Y1266109D02*
Y1193800D01*
X5038009D01*
X5032580Y1214063D01*
X5021337Y1233537D01*
X5005437Y1249437D01*
X4985963Y1260680D01*
X4965700Y1266109D01*
D02*
G37*
G36*
X4940300D02*
X4920037Y1260680D01*
X4900563Y1249437D01*
X4884663Y1233537D01*
X4873420Y1214063D01*
X4867991Y1193800D01*
X4940300D01*
Y1266109D01*
D02*
G37*
G36*
X5038009Y1168400D02*
X4965700D01*
Y1096091D01*
X4985963Y1101520D01*
X5005437Y1112763D01*
X5021337Y1128663D01*
X5032580Y1148137D01*
X5038009Y1168400D01*
D02*
G37*
G36*
X4940300D02*
X4867991D01*
X4873420Y1148137D01*
X4884663Y1128663D01*
X4900563Y1112763D01*
X4920037Y1101520D01*
X4940300Y1096091D01*
Y1168400D01*
D02*
G37*
G36*
X1985720Y1205199D02*
X1815701D01*
X1821130Y1184935D01*
X1832374Y1165462D01*
X1848274Y1149562D01*
X1867747Y1138319D01*
X1877712Y1135649D01*
Y1122500D01*
X1872037Y1120980D01*
X1852563Y1109737D01*
X1836663Y1093837D01*
X1825420Y1074363D01*
X1819991Y1054100D01*
X1990009D01*
X1984580Y1074363D01*
X1973337Y1093837D01*
X1957437Y1109737D01*
X1937963Y1120980D01*
X1927999Y1123650D01*
Y1136798D01*
X1933674Y1138319D01*
X1953147Y1149562D01*
X1969047Y1165462D01*
X1980290Y1184935D01*
X1985720Y1205199D01*
D02*
G37*
G36*
X7876100Y2064400D02*
X7262300D01*
Y1364600D01*
X7795759D01*
X7800700Y1363950D01*
X7812199D01*
X8109813Y1066335D01*
X8125564Y1054249D01*
X8143906Y1046651D01*
X8163589Y1044060D01*
X9053398D01*
X9059511Y1040531D01*
X9081232Y1034711D01*
X9103718D01*
X9125438Y1040531D01*
X9144911Y1051774D01*
X9160811Y1067674D01*
X9172055Y1087148D01*
X9177874Y1108868D01*
Y1131354D01*
X9172055Y1153074D01*
X9160811Y1172548D01*
X9144911Y1188448D01*
X9125438Y1199691D01*
X9103718Y1205511D01*
X9081232D01*
X9059511Y1199691D01*
X9053398Y1196161D01*
X8195091D01*
X7897476Y1493776D01*
X7881725Y1505862D01*
X7876100Y1508192D01*
Y2064400D01*
D02*
G37*
G36*
X1521987Y1029682D02*
X1449677D01*
X1455107Y1009419D01*
X1466350Y989945D01*
X1482250Y974045D01*
X1501724Y962802D01*
X1521987Y957373D01*
Y1029682D01*
D02*
G37*
G36*
X1990009Y1028700D02*
X1917700D01*
Y956391D01*
X1937963Y961820D01*
X1957437Y973063D01*
X1973337Y988963D01*
X1984580Y1008437D01*
X1990009Y1028700D01*
D02*
G37*
G36*
X1892300D02*
X1819991D01*
X1825420Y1008437D01*
X1836663Y988963D01*
X1852563Y973063D01*
X1872037Y961820D01*
X1892300Y956391D01*
Y1028700D01*
D02*
G37*
G36*
X1799509D02*
X1727200D01*
Y956391D01*
X1747463Y961820D01*
X1766937Y973063D01*
X1782837Y988963D01*
X1794080Y1008437D01*
X1799509Y1028700D01*
D02*
G37*
G36*
X2677940Y823370D02*
Y751060D01*
X2750249D01*
X2744820Y771323D01*
X2733577Y790797D01*
X2717677Y806697D01*
X2698203Y817940D01*
X2677940Y823370D01*
D02*
G37*
G36*
X2652540D02*
X2632277Y817940D01*
X2612803Y806697D01*
X2596903Y790797D01*
X2585660Y771323D01*
X2580230Y751060D01*
X2652540D01*
Y823370D01*
D02*
G37*
G36*
X2750249Y725660D02*
X2677940D01*
Y653351D01*
X2698203Y658780D01*
X2717677Y670023D01*
X2733577Y685923D01*
X2744820Y705397D01*
X2750249Y725660D01*
D02*
G37*
G36*
X2652540D02*
X2580230D01*
X2585660Y705397D01*
X2596903Y685923D01*
X2612803Y670023D01*
X2632277Y658780D01*
X2652540Y653351D01*
Y725660D01*
D02*
G37*
G36*
X7105093Y559900D02*
X7102600D01*
Y457200D01*
X7205300D01*
Y459693D01*
X7197435Y489043D01*
X7182243Y515357D01*
X7160757Y536843D01*
X7134443Y552035D01*
X7105093Y559900D01*
D02*
G37*
G36*
X7077200D02*
X7074707D01*
X7045357Y552035D01*
X7019043Y536843D01*
X6997557Y515357D01*
X6982364Y489043D01*
X6974500Y459693D01*
Y457200D01*
X7077200D01*
Y559900D01*
D02*
G37*
G36*
X1741405Y545400D02*
X1739900D01*
Y450200D01*
X1835100D01*
Y451705D01*
X1827747Y479148D01*
X1813541Y503752D01*
X1793452Y523841D01*
X1768848Y538047D01*
X1741405Y545400D01*
D02*
G37*
G36*
X1714500D02*
X1712995D01*
X1685552Y538047D01*
X1660948Y523841D01*
X1640859Y503752D01*
X1626653Y479148D01*
X1619300Y451705D01*
Y450200D01*
X1714500D01*
Y545400D01*
D02*
G37*
G36*
X2679996Y489921D02*
X2679478D01*
Y402221D01*
X2767178D01*
Y402739D01*
X2760336Y428274D01*
X2747118Y451168D01*
X2728425Y469861D01*
X2705531Y483079D01*
X2679996Y489921D01*
D02*
G37*
G36*
X2654078D02*
X2653560D01*
X2628025Y483079D01*
X2605131Y469861D01*
X2586438Y451168D01*
X2573220Y428274D01*
X2566378Y402739D01*
Y402221D01*
X2654078D01*
Y489921D01*
D02*
G37*
G36*
X1835100Y424800D02*
X1739900D01*
Y329600D01*
X1741405D01*
X1768848Y336953D01*
X1793452Y351159D01*
X1813541Y371248D01*
X1827747Y395852D01*
X1835100Y423295D01*
Y424800D01*
D02*
G37*
G36*
X1714500D02*
X1619300D01*
Y423295D01*
X1626653Y395852D01*
X1640859Y371248D01*
X1660948Y351159D01*
X1685552Y336953D01*
X1712995Y329600D01*
X1714500D01*
Y424800D01*
D02*
G37*
G36*
X1327100Y545400D02*
X1111300D01*
Y329600D01*
X1327100D01*
Y545400D01*
D02*
G37*
G36*
X9105093Y559900D02*
X9074707D01*
X9045357Y552035D01*
X9019043Y536843D01*
X8997557Y515357D01*
X8982365Y489043D01*
X8974500Y459693D01*
Y429307D01*
X8982365Y399957D01*
X8997557Y373643D01*
X9019043Y352157D01*
X9045357Y336965D01*
X9074707Y329100D01*
X9105093D01*
X9134443Y336965D01*
X9160757Y352157D01*
X9182243Y373643D01*
X9197436Y399957D01*
X9205300Y429307D01*
Y459693D01*
X9197436Y489043D01*
X9182243Y515357D01*
X9160757Y536843D01*
X9134443Y552035D01*
X9105093Y559900D01*
D02*
G37*
G36*
X8605093D02*
X8574707D01*
X8545357Y552035D01*
X8519043Y536843D01*
X8497557Y515357D01*
X8482365Y489043D01*
X8474500Y459693D01*
Y429307D01*
X8482365Y399957D01*
X8497557Y373643D01*
X8519043Y352157D01*
X8545357Y336965D01*
X8574707Y329100D01*
X8605093D01*
X8634443Y336965D01*
X8660757Y352157D01*
X8682243Y373643D01*
X8697435Y399957D01*
X8705300Y429307D01*
Y459693D01*
X8697435Y489043D01*
X8682243Y515357D01*
X8660757Y536843D01*
X8634443Y552035D01*
X8605093Y559900D01*
D02*
G37*
G36*
X8105093D02*
X8074707D01*
X8045357Y552035D01*
X8019043Y536843D01*
X7997557Y515357D01*
X7982365Y489043D01*
X7974500Y459693D01*
Y429307D01*
X7982365Y399957D01*
X7997557Y373643D01*
X8019043Y352157D01*
X8045357Y336965D01*
X8074707Y329100D01*
X8105093D01*
X8134443Y336965D01*
X8160757Y352157D01*
X8182243Y373643D01*
X8197435Y399957D01*
X8205300Y429307D01*
Y459693D01*
X8197435Y489043D01*
X8182243Y515357D01*
X8160757Y536843D01*
X8134443Y552035D01*
X8105093Y559900D01*
D02*
G37*
G36*
X7605093D02*
X7574707D01*
X7545357Y552035D01*
X7519043Y536843D01*
X7497557Y515357D01*
X7482365Y489043D01*
X7474500Y459693D01*
Y429307D01*
X7482365Y399957D01*
X7497557Y373643D01*
X7519043Y352157D01*
X7545357Y336965D01*
X7574707Y329100D01*
X7605093D01*
X7634443Y336965D01*
X7660757Y352157D01*
X7682243Y373643D01*
X7697435Y399957D01*
X7705300Y429307D01*
Y459693D01*
X7697435Y489043D01*
X7682243Y515357D01*
X7660757Y536843D01*
X7634443Y552035D01*
X7605093Y559900D01*
D02*
G37*
G36*
X7205300Y431800D02*
X7102600D01*
Y329100D01*
X7105093D01*
X7134443Y336965D01*
X7160757Y352157D01*
X7182243Y373643D01*
X7197435Y399957D01*
X7205300Y429307D01*
Y431800D01*
D02*
G37*
G36*
X7077200D02*
X6974500D01*
Y429307D01*
X6982364Y399957D01*
X6997557Y373643D01*
X7019043Y352157D01*
X7045357Y336965D01*
X7074707Y329100D01*
X7077200D01*
Y431800D01*
D02*
G37*
G36*
X6705300Y559900D02*
X6474500D01*
Y329100D01*
X6705300D01*
Y559900D01*
D02*
G37*
G36*
X9722200Y525400D02*
X9712700D01*
Y312700D01*
X9925400D01*
Y322200D01*
X9916738Y365747D01*
X9899747Y406767D01*
X9875080Y443684D01*
X9843684Y475080D01*
X9806767Y499747D01*
X9765747Y516738D01*
X9722200Y525400D01*
D02*
G37*
G36*
X9687300D02*
X9677800D01*
X9634253Y516738D01*
X9593233Y499747D01*
X9556316Y475080D01*
X9524920Y443684D01*
X9500253Y406767D01*
X9483262Y365747D01*
X9474600Y322200D01*
Y312700D01*
X9687300D01*
Y525400D01*
D02*
G37*
G36*
X4203996Y489921D02*
X4177560D01*
X4152025Y483079D01*
X4129131Y469861D01*
X4110438Y451168D01*
X4097220Y428274D01*
X4090378Y402739D01*
Y376303D01*
X4097220Y350768D01*
X4110438Y327874D01*
X4129131Y309181D01*
X4152025Y295963D01*
X4177560Y289121D01*
X4203996D01*
X4229531Y295963D01*
X4252425Y309181D01*
X4271118Y327874D01*
X4284336Y350768D01*
X4291178Y376303D01*
Y402739D01*
X4284336Y428274D01*
X4271118Y451168D01*
X4252425Y469861D01*
X4229531Y483079D01*
X4203996Y489921D01*
D02*
G37*
G36*
X3949996D02*
X3923560D01*
X3898025Y483079D01*
X3875131Y469861D01*
X3856438Y451168D01*
X3843220Y428274D01*
X3836378Y402739D01*
Y376303D01*
X3843220Y350768D01*
X3856438Y327874D01*
X3875131Y309181D01*
X3898025Y295963D01*
X3923560Y289121D01*
X3949996D01*
X3975531Y295963D01*
X3998425Y309181D01*
X4017118Y327874D01*
X4030336Y350768D01*
X4037178Y376303D01*
Y402739D01*
X4030336Y428274D01*
X4017118Y451168D01*
X3998425Y469861D01*
X3975531Y483079D01*
X3949996Y489921D01*
D02*
G37*
G36*
X3695996D02*
X3669560D01*
X3644025Y483079D01*
X3621131Y469861D01*
X3602438Y451168D01*
X3589220Y428274D01*
X3582378Y402739D01*
Y376303D01*
X3589220Y350768D01*
X3602438Y327874D01*
X3621131Y309181D01*
X3644025Y295963D01*
X3669560Y289121D01*
X3695996D01*
X3721531Y295963D01*
X3744425Y309181D01*
X3763118Y327874D01*
X3776336Y350768D01*
X3783178Y376303D01*
Y402739D01*
X3776336Y428274D01*
X3763118Y451168D01*
X3744425Y469861D01*
X3721531Y483079D01*
X3695996Y489921D01*
D02*
G37*
G36*
X3441996D02*
X3415560D01*
X3390025Y483079D01*
X3367131Y469861D01*
X3348438Y451168D01*
X3335220Y428274D01*
X3328378Y402739D01*
Y376303D01*
X3335220Y350768D01*
X3348438Y327874D01*
X3367131Y309181D01*
X3390025Y295963D01*
X3415560Y289121D01*
X3441996D01*
X3467531Y295963D01*
X3490425Y309181D01*
X3509118Y327874D01*
X3522336Y350768D01*
X3529178Y376303D01*
Y402739D01*
X3522336Y428274D01*
X3509118Y451168D01*
X3490425Y469861D01*
X3467531Y483079D01*
X3441996Y489921D01*
D02*
G37*
G36*
X3187996D02*
X3161560D01*
X3136025Y483079D01*
X3113131Y469861D01*
X3094438Y451168D01*
X3081220Y428274D01*
X3074378Y402739D01*
Y376303D01*
X3081220Y350768D01*
X3094438Y327874D01*
X3113131Y309181D01*
X3136025Y295963D01*
X3161560Y289121D01*
X3187996D01*
X3213531Y295963D01*
X3236425Y309181D01*
X3255118Y327874D01*
X3268336Y350768D01*
X3275178Y376303D01*
Y402739D01*
X3268336Y428274D01*
X3255118Y451168D01*
X3236425Y469861D01*
X3213531Y483079D01*
X3187996Y489921D01*
D02*
G37*
G36*
X2933996D02*
X2907560D01*
X2882025Y483079D01*
X2859131Y469861D01*
X2840438Y451168D01*
X2827220Y428274D01*
X2820378Y402739D01*
Y376303D01*
X2827220Y350768D01*
X2840438Y327874D01*
X2859131Y309181D01*
X2882025Y295963D01*
X2907560Y289121D01*
X2933996D01*
X2959531Y295963D01*
X2982425Y309181D01*
X3001118Y327874D01*
X3014336Y350768D01*
X3021178Y376303D01*
Y402739D01*
X3014336Y428274D01*
X3001118Y451168D01*
X2982425Y469861D01*
X2959531Y483079D01*
X2933996Y489921D01*
D02*
G37*
G36*
X2767178Y376821D02*
X2679478D01*
Y289121D01*
X2679996D01*
X2705531Y295963D01*
X2728425Y309181D01*
X2747118Y327874D01*
X2760336Y350768D01*
X2767178Y376303D01*
Y376821D01*
D02*
G37*
G36*
X2654078D02*
X2566378D01*
Y376303D01*
X2573220Y350768D01*
X2586438Y327874D01*
X2605131Y309181D01*
X2628025Y295963D01*
X2653560Y289121D01*
X2654078D01*
Y376821D01*
D02*
G37*
G36*
X2513178Y489921D02*
X2312378D01*
Y289121D01*
X2513178D01*
Y489921D01*
D02*
G37*
G36*
X9925400Y287300D02*
X9712700D01*
Y74600D01*
X9722200D01*
X9765747Y83262D01*
X9806767Y100253D01*
X9843684Y124920D01*
X9875080Y156316D01*
X9899747Y193233D01*
X9916738Y234253D01*
X9925400Y277800D01*
Y287300D01*
D02*
G37*
G36*
X9687300D02*
X9474600D01*
Y277800D01*
X9483262Y234253D01*
X9500253Y193233D01*
X9524920Y156316D01*
X9556316Y124920D01*
X9593233Y100253D01*
X9634253Y83262D01*
X9677800Y74600D01*
X9687300D01*
Y287300D01*
D02*
G37*
G36*
X322200Y525400D02*
X277800D01*
X234253Y516738D01*
X193233Y499747D01*
X156316Y475080D01*
X124920Y443684D01*
X100253Y406767D01*
X83262Y365747D01*
X74600Y322200D01*
Y277800D01*
X83262Y234253D01*
X100253Y193233D01*
X124920Y156316D01*
X156316Y124920D01*
X193233Y100253D01*
X234253Y83262D01*
X277800Y74600D01*
X322200D01*
X365747Y83262D01*
X406767Y100253D01*
X443684Y124920D01*
X475080Y156316D01*
X499747Y193233D01*
X516738Y234253D01*
X525400Y277800D01*
Y322200D01*
X516738Y365747D01*
X499747Y406767D01*
X475080Y443684D01*
X443684Y475080D01*
X406767Y499747D01*
X365747Y516738D01*
X322200Y525400D01*
D02*
G37*
%LPD*%
G36*
X4505390Y4723800D02*
X4507670Y4723800D01*
X4510412Y4723504D01*
X4517563Y4720763D01*
X4520304Y4713612D01*
X4520600Y4710870D01*
X4520600Y4708590D01*
Y4628800D01*
Y4570326D01*
X4514200Y4560490D01*
X4496486Y4556966D01*
X4481468Y4546932D01*
X4481468Y4546931D01*
X4450368Y4515832D01*
X4440334Y4500814D01*
X4436810Y4483100D01*
X4425712Y4478589D01*
X4210174D01*
X4061832Y4626932D01*
X4046814Y4636966D01*
X4029100Y4640490D01*
X4029099Y4640490D01*
X3861400D01*
X3861400Y4708590D01*
X3861400Y4710870D01*
X3861696Y4713612D01*
X3864437Y4720763D01*
X3871588Y4723504D01*
X3874330Y4723800D01*
X3876610Y4723800D01*
X4505390Y4723800D01*
D02*
G37*
G36*
X3862564Y4065764D02*
X3865600Y4057840D01*
Y4010490D01*
X3075201D01*
X3075200Y4010490D01*
X3057486Y4006966D01*
X3042468Y3996932D01*
X2510089Y3464553D01*
X2497389Y3468543D01*
Y3790826D01*
X2774474Y4067911D01*
X3761000D01*
X3765472Y4068800D01*
X3854640D01*
X3862564Y4065764D01*
D02*
G37*
G36*
X4446903Y3696166D02*
Y3678677D01*
X4440163Y3671937D01*
X4428920Y3652463D01*
X4423100Y3630743D01*
Y3608257D01*
X4428920Y3586537D01*
X4440163Y3567063D01*
X4456063Y3551163D01*
X4475537Y3539920D01*
X4497257Y3534100D01*
X4519743D01*
X4541463Y3539920D01*
X4560937Y3551163D01*
X4564110Y3554336D01*
X4575288Y3549719D01*
X4575513Y3538410D01*
X4570363Y3535437D01*
X4554463Y3519537D01*
X4543220Y3500063D01*
X4537400Y3478343D01*
Y3455857D01*
X4543220Y3434137D01*
X4554463Y3414663D01*
X4570363Y3398763D01*
X4589837Y3387520D01*
X4611557Y3381700D01*
X4634043D01*
X4655763Y3387520D01*
X4675237Y3398763D01*
X4679077Y3402604D01*
X4690811Y3397743D01*
Y3340407D01*
X4681800Y3331500D01*
X4536463D01*
X4277289Y3590674D01*
Y3645577D01*
X4289989Y3650837D01*
X4295863Y3644963D01*
X4315337Y3633720D01*
X4337057Y3627900D01*
X4359543D01*
X4381263Y3633720D01*
X4400737Y3644963D01*
X4416637Y3660863D01*
X4427880Y3680337D01*
X4430895Y3691588D01*
X4445518Y3697092D01*
X4446903Y3696166D01*
D02*
G37*
G36*
X2710847Y4135210D02*
X2418368Y3842732D01*
X2408334Y3827714D01*
X2404810Y3810000D01*
X2404811Y3809999D01*
Y2692401D01*
X2404810Y2692400D01*
X2406748Y2682659D01*
X2395043Y2676403D01*
X2383089Y2688357D01*
Y3841626D01*
X2689374Y4147910D01*
X2705587D01*
X2710847Y4135210D01*
D02*
G37*
D10*
X5143500Y4186300D02*
D03*
Y3916300D02*
D03*
D11*
X8128000Y3555797D02*
D03*
Y3098800D02*
D03*
D12*
X8830000Y3327298D02*
D03*
D13*
X5135902Y4473175D02*
D03*
Y4613175D02*
D03*
X5130800Y5035700D02*
D03*
Y4895700D02*
D03*
D14*
X7942200Y4775200D02*
D03*
X8212200D02*
D03*
X1711200Y5067300D02*
D03*
X1981200D02*
D03*
X1720937Y4680656D02*
D03*
X1990937D02*
D03*
D15*
X4621000Y4674200D02*
D03*
Y4594200D02*
D03*
Y4514200D02*
D03*
Y4434200D02*
D03*
Y4354200D02*
D03*
Y4274200D02*
D03*
Y4194200D02*
D03*
Y4114200D02*
D03*
X3761000Y4674200D02*
D03*
Y4594200D02*
D03*
Y4514200D02*
D03*
Y4434200D02*
D03*
Y4354200D02*
D03*
Y4274200D02*
D03*
Y4194200D02*
D03*
Y4114200D02*
D03*
D16*
X4471000Y3964200D02*
D03*
X4391000D02*
D03*
X4311000D02*
D03*
X4231000D02*
D03*
X4151000D02*
D03*
X4071000D02*
D03*
X3991000D02*
D03*
X3911000D02*
D03*
X4471000Y4824200D02*
D03*
X4391000D02*
D03*
X4311000D02*
D03*
X4231000D02*
D03*
X4151000D02*
D03*
X4071000D02*
D03*
X3991000D02*
D03*
X3911000D02*
D03*
D17*
X1363200Y4635100D02*
D03*
Y4864100D02*
D03*
Y5093100D02*
D03*
D18*
X694200Y4864100D02*
D03*
D19*
X4576400Y2936100D02*
D03*
Y3236100D02*
D03*
X3856400D02*
D03*
Y2936100D02*
D03*
D20*
X5727700Y4164810D02*
D03*
Y5182390D02*
D03*
D21*
X7569200Y1714500D02*
D03*
D22*
X7340702Y2416500D02*
D03*
X7797698D02*
D03*
D23*
X7759700Y5130800D02*
D03*
Y5257800D02*
D03*
Y5384800D02*
D03*
Y5511800D02*
D03*
Y5638800D02*
D03*
Y5765800D02*
D03*
Y5892800D02*
D03*
Y6019800D02*
D03*
X8309700D02*
D03*
Y5892800D02*
D03*
Y5765800D02*
D03*
Y5638800D02*
D03*
Y5511800D02*
D03*
Y5384800D02*
D03*
Y5257800D02*
D03*
Y5130800D02*
D03*
D24*
X2628900Y4495800D02*
Y4546600D01*
Y4495800D02*
X2770500Y4354200D01*
X1685400Y5093100D02*
X1711200Y5067300D01*
X1363200Y5093100D02*
X1685400D01*
X1361050Y5095250D02*
Y5446150D01*
Y5095250D02*
X1363200Y5093100D01*
X1358900Y5448300D02*
X1361050Y5446150D01*
X4071000Y1021700D02*
Y3964200D01*
Y1021700D02*
X4356100Y736600D01*
X8509000Y5257800D02*
X8788400Y4978400D01*
X8309700Y5257800D02*
X8509000D01*
X8590785Y5384800D02*
X8789800Y5185785D01*
X8309700Y5384800D02*
X8590785D01*
X4931477Y3202160D02*
Y4022023D01*
X4925840Y3202160D02*
X4929032Y3198968D01*
X4934670Y2354130D02*
X4953000Y2335800D01*
X4759300Y4194200D02*
X4931477Y4022023D01*
X4838700Y6819900D02*
X4951240Y6707360D01*
X4838700Y6819900D02*
Y6873700D01*
X803100D02*
X4838700D01*
X1231900Y6642100D02*
X1252947Y6621053D01*
X3340100Y4660900D02*
X3486800Y4514200D01*
X3340100Y4660900D02*
Y4673600D01*
X3517900D02*
X3528806D01*
X3608206Y4594200D02*
X3761000D01*
X3528806Y4673600D02*
X3608206Y4594200D01*
X3486800Y4514200D02*
X3761000D01*
X4231000Y4824200D02*
Y5098352D01*
X4076700Y5122395D02*
Y5143500D01*
X4231000Y5098352D02*
X4254500Y5121852D01*
X4311000Y5022200D02*
X4432300Y5143500D01*
X4254500Y5121852D02*
Y5143500D01*
X4151000Y4824200D02*
Y5048095D01*
X4311000Y4824200D02*
Y5022200D01*
X4076700Y5122395D02*
X4151000Y5048095D01*
X3122400Y5257800D02*
X3706000Y4674200D01*
X3111500Y5257800D02*
X3122400D01*
X3111500Y5918200D02*
X3114017D01*
X4071000Y4961217D01*
Y4824200D02*
Y4961217D01*
X3756800Y4879200D02*
X3911000D01*
X3991000Y4824200D02*
Y4890916D01*
X3987517Y4894399D02*
X3991000Y4890916D01*
X3171503Y5722902D02*
X3987517Y4906888D01*
Y4894399D02*
Y4906888D01*
X3632200Y3238500D02*
X3854000D01*
X3856400Y3236100D01*
X4231000Y3571500D02*
X4566400Y3236100D01*
X4576400D01*
X4231000Y3571500D02*
Y3964200D01*
X4311000Y3762448D02*
X4348300Y3725148D01*
Y3713300D02*
Y3725148D01*
X3873500Y3352800D02*
X3991000Y3470300D01*
Y3964200D01*
X4471000Y3841690D02*
X4622800Y3689889D01*
Y3467100D02*
Y3689889D01*
X4471000Y3841690D02*
Y3964200D01*
X4493193Y3634807D02*
X4508500Y3619500D01*
X4391000Y3829200D02*
X4493193Y3727008D01*
Y3634807D02*
Y3727008D01*
X4391000Y3829200D02*
Y3964200D01*
X4311000Y3762448D02*
Y3964200D01*
X8559800Y5638800D02*
X8794750Y5403850D01*
X8597900Y5765800D02*
X8769350Y5594350D01*
X8781363D01*
X8788400Y5397500D02*
X8801100Y5384800D01*
X3018250Y4605750D02*
X3189800Y4434200D01*
X977900Y5230400D02*
Y6261100D01*
X4432300Y876300D02*
Y2705100D01*
Y876300D02*
X4572000Y736600D01*
X6235700Y2133600D02*
X7340600Y1028700D01*
X4851400Y2133600D02*
X6235700D01*
X4911700Y4594200D02*
X4930675Y4613175D01*
X5664200Y6235700D02*
X5803900Y6375400D01*
X4673600Y5029200D02*
X5549900Y5905500D01*
X5664200Y5867400D02*
Y6235700D01*
X5549900Y5905500D02*
Y6375400D01*
X4930675Y4613175D02*
X5135902D01*
X4508500Y5029200D02*
X4673600D01*
X4621000Y4594200D02*
X4911700D01*
X4391000Y4911700D02*
X4508500Y5029200D01*
X4621000Y4824200D02*
X5664200Y5867400D01*
X4391000Y4824200D02*
Y4911700D01*
X4471000Y4824200D02*
X4621000D01*
X4029100Y4594200D02*
X4191000Y4432300D01*
X4483100D01*
X3761000Y4594200D02*
X4029100D01*
X3111500Y5524500D02*
X3756800Y4879200D01*
X3911000Y4824200D02*
Y4879200D01*
X3706000Y4674200D02*
X3761000D01*
X749300Y6819900D02*
X803100Y6873700D01*
X749300Y5787332D02*
Y6819900D01*
X486468Y5524500D02*
X749300Y5787332D01*
X486468Y4491932D02*
Y5524500D01*
Y4491932D02*
X704200Y4274200D01*
X3761000D01*
X2770500Y4354200D02*
X3761000D01*
X3189800Y4434200D02*
X3761000D01*
X7942200Y4775200D02*
Y5178800D01*
X8275200Y5511800D01*
X8309700D01*
Y5638800D02*
X8559800D01*
X8309700Y5765800D02*
X8597900D01*
X4151000Y2986400D02*
Y3964200D01*
Y2986400D02*
X4432300Y2705100D01*
X3937000Y736600D02*
Y1346200D01*
X2540000Y2743200D02*
X3937000Y1346200D01*
X2670200Y4194200D02*
X3761000D01*
X2336800Y3860800D02*
X2670200Y4194200D01*
X2451100Y3810000D02*
X2755300Y4114200D01*
X3761000D01*
X3429000Y736600D02*
Y1576983D01*
X2336800Y2669183D02*
X3429000Y1576983D01*
X2336800Y2669183D02*
Y3860800D01*
X2451100Y2692400D02*
X3683000Y1460500D01*
X2451100Y2692400D02*
Y3810000D01*
X3683000Y736600D02*
Y1460500D01*
X2540000Y2743200D02*
Y3429000D01*
X3075200Y3964200D01*
X3911000D01*
X977900Y5230400D02*
X1344200Y4864100D01*
X1363200D01*
X1720937Y4680656D02*
Y4710656D01*
X1363200Y4864100D02*
X1567493D01*
X1720937Y4710656D01*
X5727700Y4164810D02*
Y4216657D01*
X5626100Y4318257D02*
X5727700Y4216657D01*
X5274614Y4613175D02*
X5569532Y4318257D01*
X5626100D01*
X5135902Y4613175D02*
X5274614D01*
X4737100Y2247900D02*
Y3683000D01*
Y2247900D02*
X4851400Y2133600D01*
X4621000Y3799100D02*
X4737100Y3683000D01*
X4621000Y3799100D02*
Y4114200D01*
Y4194200D02*
X4759300D01*
X5033500Y4221300D02*
X5068500Y4186300D01*
X4621000Y4514200D02*
X4756000D01*
X5033500Y4236700D01*
Y4221300D02*
Y4236700D01*
X5068500Y4186300D02*
X5143500D01*
X4483100Y4377632D02*
Y4432300D01*
X4506531Y4354200D02*
X4621000D01*
X4483100Y4377632D02*
X4506531Y4354200D01*
X4483100Y4483100D02*
X4514200Y4514200D01*
X4621000D01*
X4483100Y4432300D02*
Y4483100D01*
X2908475Y3352800D02*
X3873500D01*
X4763100Y4674200D02*
X4984600Y4895700D01*
X5130800D01*
X4621000Y4674200D02*
X4763100D01*
X5237605Y4895700D02*
X5524295Y5182390D01*
X5727700D01*
X5130800Y4895700D02*
X5237605D01*
D25*
X7834198Y2380000D02*
X8042499Y2171700D01*
X8880902Y3378200D02*
X9436100D01*
X8163589Y1120111D02*
X9092475D01*
X7843700Y1440000D02*
X8163589Y1120111D01*
X8830000Y3327298D02*
X8880902Y3378200D01*
X8162500Y3555797D02*
X8531003Y3924300D01*
X8128000Y3555797D02*
X8162500D01*
X8531003Y3924300D02*
X8928100D01*
Y4279900D01*
X7797698Y2382000D02*
Y2416500D01*
Y2382000D02*
X7799698Y2380000D01*
X7834198D01*
X7569200Y1671500D02*
Y1714500D01*
Y1671500D02*
X7800700Y1440000D01*
X7843700D01*
D26*
X332000Y1898300D02*
D03*
X2132000D02*
D03*
X332000Y5948300D02*
D03*
X2132000D02*
D03*
D27*
X2032000Y5448300D02*
D03*
X432000Y2398300D02*
D03*
D28*
X8166100Y3924300D02*
D03*
X8928100D02*
D03*
Y4279900D02*
D03*
X8166100D02*
D03*
X3568700Y6654800D02*
D03*
Y5892800D02*
D03*
X3441700Y3581400D02*
D03*
Y2819400D02*
D03*
X8610600Y1409700D02*
D03*
Y2171700D02*
D03*
X8255000D02*
D03*
Y1409700D02*
D03*
D29*
X9680100Y3124200D02*
D03*
X4991100Y5816600D02*
D03*
X9677400Y3848100D02*
D03*
D30*
X9680100Y3378200D02*
D03*
X1231900Y6642100D02*
D03*
X1739900D02*
D03*
X1993900D02*
D03*
X2247900D02*
D03*
X2501900D02*
D03*
X2755900D02*
D03*
X3009900D02*
D03*
X3263900D02*
D03*
X1485900D02*
D03*
X4737100Y6324600D02*
D03*
X4991100D02*
D03*
X4737100Y6070600D02*
D03*
X4991100D02*
D03*
X4737100Y5816600D02*
D03*
X4190778Y389521D02*
D03*
X3936778D02*
D03*
X3682778D02*
D03*
X3428778D02*
D03*
X3174778D02*
D03*
X2920778D02*
D03*
X2666778D02*
D03*
X9677400Y4102100D02*
D03*
X5295900Y6629400D02*
D03*
X5549900D02*
D03*
X5803900D02*
D03*
X6057900D02*
D03*
D31*
X2908475Y3479800D02*
D03*
Y3225800D02*
D03*
Y3352800D02*
D03*
D32*
X977900Y6642100D02*
D03*
X2412778Y389521D02*
D03*
X6311900Y6629400D02*
D03*
D33*
X4025900Y6591300D02*
D03*
D34*
Y6337300D02*
D03*
D35*
X4953000Y1575800D02*
D03*
Y2335800D02*
D03*
D36*
X300000Y6700000D02*
D03*
X9700000D02*
D03*
Y300000D02*
D03*
X300000D02*
D03*
D37*
X2806701Y5317300D02*
D03*
D38*
X2806699Y4817300D02*
D03*
D39*
X9089900Y444500D02*
D03*
X8589900D02*
D03*
X8089900D02*
D03*
X7589900D02*
D03*
X7089900D02*
D03*
D40*
X6589900D02*
D03*
D41*
X1219200Y437500D02*
D03*
D42*
X1727200D02*
D03*
D43*
X9525000Y6210300D02*
D03*
Y5006300D02*
D03*
D44*
X9255000Y5733300D02*
D03*
Y5483300D02*
D03*
X9055000D02*
D03*
D45*
Y5733300D02*
D03*
D46*
X2641600Y4521200D02*
D03*
X1358900Y5448300D02*
D03*
X8039100Y2184400D02*
D03*
X9258300Y4711700D02*
D03*
X9372600Y6502400D02*
D03*
X8788400Y6083300D02*
D03*
X9436100Y3378200D02*
D03*
X1536700Y1219200D02*
D03*
X1714500D02*
D03*
X1900710Y1217899D02*
D03*
X1905000Y1041400D02*
D03*
X1714500D02*
D03*
X1534687Y1042382D02*
D03*
X2665240Y738360D02*
D03*
X4953000Y1181100D02*
D03*
X8788400Y4978400D02*
D03*
X8789800Y5185785D02*
D03*
X4925840Y3202160D02*
D03*
X4951240Y6707360D02*
D03*
X5549900Y6375400D02*
D03*
X5803900D02*
D03*
X3340100Y4673600D02*
D03*
X3162300Y3746500D02*
D03*
X3517900Y4673600D02*
D03*
X4432300Y5143500D02*
D03*
X4254500D02*
D03*
X4076700D02*
D03*
X3111500Y5257800D02*
D03*
Y5918200D02*
D03*
Y5524500D02*
D03*
Y5727700D02*
D03*
X9092475Y1120111D02*
D03*
X3632200Y3238500D02*
D03*
X4348300Y3713300D02*
D03*
X4508500Y3619500D02*
D03*
X4622800Y3467100D02*
D03*
X8788400Y5397500D02*
D03*
X8775700Y5600700D02*
D03*
X3022600Y4610100D02*
D03*
X977900Y6261100D02*
D03*
X4572000Y736600D02*
D03*
X4356100D02*
D03*
X3937000D02*
D03*
X3683000D02*
D03*
X3429000D02*
D03*
X7340600Y1016000D02*
D03*
%TF.MD5,a513f5b940b5b723dd4f310d473d0a4d*%
M02*
