%TF.GenerationSoftware,Altium Limited,Altium Designer,22.8.2 (66)*%
G04 Layer_Color=8421504*
%FSLAX45Y45*%
%MOMM*%
%TF.SameCoordinates,BD556100-397B-4985-8EB5-C039F1F1876F*%
%TF.FilePolarity,Positive*%
%TF.FileFunction,Paste,Top*%
%TF.Part,Single*%
G01*
G75*
%TA.AperFunction,SMDPad,CuDef*%
%ADD10R,2.60000X1.10000*%
%ADD11R,1.73000X0.96000*%
%ADD13R,0.90000X0.80000*%
%ADD14R,1.10000X1.70000*%
%ADD15R,1.50000X0.40000*%
%ADD16R,0.40000X1.50000*%
G04:AMPARAMS|DCode=17|XSize=1.31mm|YSize=0.93mm|CornerRadius=0.06975mm|HoleSize=0mm|Usage=FLASHONLY|Rotation=180.000|XOffset=0mm|YOffset=0mm|HoleType=Round|Shape=RoundedRectangle|*
%AMROUNDEDRECTD17*
21,1,1.31000,0.79050,0,0,180.0*
21,1,1.17050,0.93000,0,0,180.0*
1,1,0.13950,-0.58525,0.39525*
1,1,0.13950,0.58525,0.39525*
1,1,0.13950,0.58525,-0.39525*
1,1,0.13950,-0.58525,-0.39525*
%
%ADD17ROUNDEDRECTD17*%
G04:AMPARAMS|DCode=18|XSize=1.31mm|YSize=3.24mm|CornerRadius=0.09825mm|HoleSize=0mm|Usage=FLASHONLY|Rotation=180.000|XOffset=0mm|YOffset=0mm|HoleType=Round|Shape=RoundedRectangle|*
%AMROUNDEDRECTD18*
21,1,1.31000,3.04350,0,0,180.0*
21,1,1.11350,3.24000,0,0,180.0*
1,1,0.19650,-0.55675,1.52175*
1,1,0.19650,0.55675,1.52175*
1,1,0.19650,0.55675,-1.52175*
1,1,0.19650,-0.55675,-1.52175*
%
%ADD18ROUNDEDRECTD18*%
%ADD19R,1.60000X1.40000*%
%ADD20R,2.43200X5.91180*%
%ADD22R,0.96000X1.73000*%
G04:AMPARAMS|DCode=23|XSize=1.31mm|YSize=0.62mm|CornerRadius=0.0775mm|HoleSize=0mm|Usage=FLASHONLY|Rotation=180.000|XOffset=0mm|YOffset=0mm|HoleType=Round|Shape=RoundedRectangle|*
%AMROUNDEDRECTD23*
21,1,1.31000,0.46500,0,0,180.0*
21,1,1.15500,0.62000,0,0,180.0*
1,1,0.15500,-0.57750,0.23250*
1,1,0.15500,0.57750,0.23250*
1,1,0.15500,0.57750,-0.23250*
1,1,0.15500,-0.57750,-0.23250*
%
%ADD23ROUNDEDRECTD23*%
G36*
X7795700Y1860003D02*
X7624700D01*
Y2003003D01*
X7795700D01*
Y1860003D01*
D02*
G37*
G36*
X7513700D02*
X7342700D01*
Y2003003D01*
X7513700D01*
Y1860003D01*
D02*
G37*
G36*
X7795700Y1643003D02*
X7624700D01*
Y1786003D01*
X7795700D01*
Y1643003D01*
D02*
G37*
G36*
X7513700D02*
X7342700D01*
Y1786003D01*
X7513700D01*
Y1643003D01*
D02*
G37*
G36*
X7795700Y1426002D02*
X7624700D01*
Y1569003D01*
X7795700D01*
Y1426002D01*
D02*
G37*
G36*
X7513700D02*
X7342700D01*
Y1569003D01*
X7513700D01*
Y1426002D01*
D02*
G37*
G36*
X9118498Y3382798D02*
X8975497D01*
Y3553798D01*
X9118498D01*
Y3382798D01*
D02*
G37*
G36*
X8901498D02*
X8758498D01*
Y3553798D01*
X8901498D01*
Y3382798D01*
D02*
G37*
G36*
X8684497D02*
X8541498D01*
Y3553798D01*
X8684497D01*
Y3382798D01*
D02*
G37*
G36*
X9118498Y3100798D02*
X8975497D01*
Y3271798D01*
X9118498D01*
Y3100798D01*
D02*
G37*
G36*
X8901498D02*
X8758498D01*
Y3271798D01*
X8901498D01*
Y3100798D01*
D02*
G37*
G36*
X8684497D02*
X8541498D01*
Y3271798D01*
X8684497D01*
Y3100798D01*
D02*
G37*
D10*
X5143500Y4186300D02*
D03*
Y3916300D02*
D03*
D11*
X8128000Y3555797D02*
D03*
Y3098800D02*
D03*
D13*
X5135902Y4473175D02*
D03*
Y4613175D02*
D03*
X5130800Y5035700D02*
D03*
Y4895700D02*
D03*
D14*
X7942200Y4775200D02*
D03*
X8212200D02*
D03*
X1711200Y5067300D02*
D03*
X1981200D02*
D03*
X1720937Y4680656D02*
D03*
X1990937D02*
D03*
D15*
X4621000Y4674200D02*
D03*
Y4594200D02*
D03*
Y4514200D02*
D03*
Y4434200D02*
D03*
Y4354200D02*
D03*
Y4274200D02*
D03*
Y4194200D02*
D03*
Y4114200D02*
D03*
X3761000Y4674200D02*
D03*
Y4594200D02*
D03*
Y4514200D02*
D03*
Y4434200D02*
D03*
Y4354200D02*
D03*
Y4274200D02*
D03*
Y4194200D02*
D03*
Y4114200D02*
D03*
D16*
X4471000Y3964200D02*
D03*
X4391000D02*
D03*
X4311000D02*
D03*
X4231000D02*
D03*
X4151000D02*
D03*
X4071000D02*
D03*
X3991000D02*
D03*
X3911000D02*
D03*
X4471000Y4824200D02*
D03*
X4391000D02*
D03*
X4311000D02*
D03*
X4231000D02*
D03*
X4151000D02*
D03*
X4071000D02*
D03*
X3991000D02*
D03*
X3911000D02*
D03*
D17*
X1363200Y4635100D02*
D03*
Y4864100D02*
D03*
Y5093100D02*
D03*
D18*
X694200Y4864100D02*
D03*
D19*
X4576400Y2936100D02*
D03*
Y3236100D02*
D03*
X3856400D02*
D03*
Y2936100D02*
D03*
D20*
X5727700Y4164810D02*
D03*
Y5182390D02*
D03*
D22*
X7340702Y2416500D02*
D03*
X7797698D02*
D03*
D23*
X7759700Y5130800D02*
D03*
Y5257800D02*
D03*
Y5384800D02*
D03*
Y5511800D02*
D03*
Y5638800D02*
D03*
Y5765800D02*
D03*
Y5892800D02*
D03*
Y6019800D02*
D03*
X8309700D02*
D03*
Y5892800D02*
D03*
Y5765800D02*
D03*
Y5638800D02*
D03*
Y5511800D02*
D03*
Y5384800D02*
D03*
Y5257800D02*
D03*
Y5130800D02*
D03*
%TF.MD5,ff1a03924662c135cfdcf96aac8171b3*%
M02*
