%TF.GenerationSoftware,Altium Limited,Altium Designer,22.8.2 (66)*%
G04 Layer_Color=128*
%FSLAX45Y45*%
%MOMM*%
%TF.SameCoordinates,BD556100-397B-4985-8EB5-C039F1F1876F*%
%TF.FilePolarity,Positive*%
%TF.FileFunction,Drillmap*%
%TF.Part,Single*%
G01*
G75*
%TA.AperFunction,NonConductor*%
%ADD70C,0.12700*%
D70*
X272000Y1898300D02*
X392000D01*
X332000Y1838300D02*
Y1958300D01*
X1882000Y5448300D02*
X2182000D01*
X2032000Y5298300D02*
Y5598300D01*
X282000Y2398300D02*
X582000D01*
X432000Y2248300D02*
Y2548300D01*
X2072000Y1898300D02*
X2192000D01*
X2132000Y1838300D02*
Y1958300D01*
X272000Y5948300D02*
X392000D01*
X332000Y5888300D02*
Y6008300D01*
X2072000Y5948300D02*
X2192000D01*
X2132000Y5888300D02*
Y6008300D01*
X8123600Y3924300D02*
X8208600D01*
X8166100Y3881800D02*
Y3966800D01*
X8885600Y3924300D02*
X8970600D01*
X8928100Y3881800D02*
Y3966800D01*
X8885600Y4279900D02*
X8970600D01*
X8928100Y4237400D02*
Y4322400D01*
X8123600Y4279900D02*
X8208600D01*
X8166100Y4237400D02*
Y4322400D01*
X9635100Y3124200D02*
X9725100D01*
X9680100Y3079200D02*
Y3169200D01*
X9635100Y3378200D02*
X9725100D01*
X9680100Y3333200D02*
Y3423200D01*
X2868475Y3479800D02*
X2948475D01*
X2908475Y3439800D02*
Y3519800D01*
X2868475Y3225800D02*
X2948475D01*
X2908475Y3185800D02*
Y3265800D01*
X2868475Y3352800D02*
X2948475D01*
X2908475Y3312800D02*
Y3392800D01*
X932900Y6642100D02*
X1022900D01*
X977900Y6597100D02*
Y6687100D01*
X1186900Y6642100D02*
X1276900D01*
X1231900Y6597100D02*
Y6687100D01*
X1694900Y6642100D02*
X1784900D01*
X1739900Y6597100D02*
Y6687100D01*
X1948900Y6642100D02*
X2038900D01*
X1993900Y6597100D02*
Y6687100D01*
X2202900Y6642100D02*
X2292900D01*
X2247900Y6597100D02*
Y6687100D01*
X2456900Y6642100D02*
X2546900D01*
X2501900Y6597100D02*
Y6687100D01*
X2710900Y6642100D02*
X2800900D01*
X2755900Y6597100D02*
Y6687100D01*
X2964900Y6642100D02*
X3054900D01*
X3009900Y6597100D02*
Y6687100D01*
X3218900Y6642100D02*
X3308900D01*
X3263900Y6597100D02*
Y6687100D01*
X1440900Y6642100D02*
X1530900D01*
X1485900Y6597100D02*
Y6687100D01*
X3526200Y6654800D02*
X3611200D01*
X3568700Y6612300D02*
Y6697300D01*
X3526200Y5892800D02*
X3611200D01*
X3568700Y5850300D02*
Y5935300D01*
X4692100Y6324600D02*
X4782100D01*
X4737100Y6279600D02*
Y6369600D01*
X4946100Y6324600D02*
X5036100D01*
X4991100Y6279600D02*
Y6369600D01*
X4692100Y6070600D02*
X4782100D01*
X4737100Y6025600D02*
Y6115600D01*
X4946100Y6070600D02*
X5036100D01*
X4991100Y6025600D02*
Y6115600D01*
X4692100Y5816600D02*
X4782100D01*
X4737100Y5771600D02*
Y5861600D01*
X4946100Y5816600D02*
X5036100D01*
X4991100Y5771600D02*
Y5861600D01*
X3965400Y6591300D02*
X4086400D01*
X4025900Y6530800D02*
Y6651800D01*
X3965400Y6337300D02*
X4086400D01*
X4025900Y6276800D02*
Y6397800D01*
X3399200Y3581400D02*
X3484200D01*
X3441700Y3538900D02*
Y3623900D01*
X3399200Y2819400D02*
X3484200D01*
X3441700Y2776900D02*
Y2861900D01*
X4910500Y1575800D02*
X4995500D01*
X4953000Y1533300D02*
Y1618300D01*
X4910500Y2335800D02*
X4995500D01*
X4953000Y2293300D02*
Y2378300D01*
X4145778Y389521D02*
X4235778D01*
X4190778Y344521D02*
Y434521D01*
X3891778Y389521D02*
X3981778D01*
X3936778Y344521D02*
Y434521D01*
X3637778Y389521D02*
X3727778D01*
X3682778Y344521D02*
Y434521D01*
X3383778Y389521D02*
X3473778D01*
X3428778Y344521D02*
Y434521D01*
X3129778Y389521D02*
X3219778D01*
X3174778Y344521D02*
Y434521D01*
X2875778Y389521D02*
X2965778D01*
X2920778Y344521D02*
Y434521D01*
X2621778Y389521D02*
X2711778D01*
X2666778Y344521D02*
Y434521D01*
X2367778Y389521D02*
X2457778D01*
X2412778Y344521D02*
Y434521D01*
X150000Y6700000D02*
X450000D01*
X300000Y6550000D02*
Y6850000D01*
X9550000Y6700000D02*
X9850000D01*
X9700000Y6550000D02*
Y6850000D01*
X9550000Y300000D02*
X9850000D01*
X9700000Y150000D02*
Y450000D01*
X150000Y300000D02*
X450000D01*
X300000Y150000D02*
Y450000D01*
X9632400Y4102100D02*
X9722400D01*
X9677400Y4057100D02*
Y4147100D01*
X9632400Y3848100D02*
X9722400D01*
X9677400Y3803100D02*
Y3893100D01*
X2766701Y5317300D02*
X2846700D01*
X2806701Y5277300D02*
Y5357300D01*
X2766700Y4817300D02*
X2846699D01*
X2806699Y4777300D02*
Y4857300D01*
X9029900Y444500D02*
X9149900D01*
X9089900Y384500D02*
Y504500D01*
X8529900Y444500D02*
X8649900D01*
X8589900Y384500D02*
Y504500D01*
X8029900Y444500D02*
X8149900D01*
X8089900Y384500D02*
Y504500D01*
X7529900Y444500D02*
X7649900D01*
X7589900Y384500D02*
Y504500D01*
X7029900Y444500D02*
X7149900D01*
X7089900Y384500D02*
Y504500D01*
X6529900Y444500D02*
X6649900D01*
X6589900Y384500D02*
Y504500D01*
X5250900Y6629400D02*
X5340900D01*
X5295900Y6584400D02*
Y6674400D01*
X5504900Y6629400D02*
X5594900D01*
X5549900Y6584400D02*
Y6674400D01*
X5758900Y6629400D02*
X5848900D01*
X5803900Y6584400D02*
Y6674400D01*
X6012900Y6629400D02*
X6102900D01*
X6057900Y6584400D02*
Y6674400D01*
X6266900Y6629400D02*
X6356900D01*
X6311900Y6584400D02*
Y6674400D01*
X8568100Y1409700D02*
X8653100D01*
X8610600Y1367200D02*
Y1452200D01*
X8568100Y2171700D02*
X8653100D01*
X8610600Y2129200D02*
Y2214200D01*
X8212500Y2171700D02*
X8297500D01*
X8255000Y2129200D02*
Y2214200D01*
X8212500Y1409700D02*
X8297500D01*
X8255000Y1367200D02*
Y1452200D01*
X1164200Y437500D02*
X1274200D01*
X1219200Y382500D02*
Y492500D01*
X1672200Y437500D02*
X1782200D01*
X1727200Y382500D02*
Y492500D01*
X9410000Y6210300D02*
X9640000D01*
X9525000Y6095300D02*
Y6325300D01*
X9410000Y5006300D02*
X9640000D01*
X9525000Y4891300D02*
Y5121300D01*
X9210000Y5733300D02*
X9300000D01*
X9255000Y5688300D02*
Y5778300D01*
X9210000Y5483300D02*
X9300000D01*
X9255000Y5438300D02*
Y5528300D01*
X9010000Y5483300D02*
X9100000D01*
X9055000Y5438300D02*
Y5528300D01*
X9010000Y5733300D02*
X9100000D01*
X9055000Y5688300D02*
Y5778300D01*
X2611600Y4521200D02*
X2671600D01*
X2641600Y4491200D02*
Y4551200D01*
X1328900Y5448300D02*
X1388900D01*
X1358900Y5418300D02*
Y5478300D01*
X8009100Y2184400D02*
X8069100D01*
X8039100Y2154400D02*
Y2214400D01*
X9228300Y4711700D02*
X9288300D01*
X9258300Y4681700D02*
Y4741700D01*
X9342600Y6502400D02*
X9402600D01*
X9372600Y6472400D02*
Y6532400D01*
X8758400Y6083300D02*
X8818400D01*
X8788400Y6053300D02*
Y6113300D01*
X9406100Y3378200D02*
X9466100D01*
X9436100Y3348200D02*
Y3408200D01*
X1506700Y1219200D02*
X1566700D01*
X1536700Y1189200D02*
Y1249200D01*
X1684500Y1219200D02*
X1744500D01*
X1714500Y1189200D02*
Y1249200D01*
X1870711Y1217899D02*
X1930710D01*
X1900710Y1187899D02*
Y1247898D01*
X1875000Y1041400D02*
X1935000D01*
X1905000Y1011400D02*
Y1071400D01*
X1684500Y1041400D02*
X1744500D01*
X1714500Y1011400D02*
Y1071400D01*
X1504687Y1042382D02*
X1564687D01*
X1534687Y1012382D02*
Y1072382D01*
X2635240Y738360D02*
X2695240D01*
X2665240Y708360D02*
Y768360D01*
X4923000Y1181100D02*
X4983000D01*
X4953000Y1151100D02*
Y1211100D01*
X8758400Y4978400D02*
X8818400D01*
X8788400Y4948400D02*
Y5008400D01*
X8759800Y5185785D02*
X8819800D01*
X8789800Y5155785D02*
Y5215785D01*
X4895840Y3202160D02*
X4955840D01*
X4925840Y3172160D02*
Y3232160D01*
X4921240Y6707360D02*
X4981240D01*
X4951240Y6677360D02*
Y6737360D01*
X5519900Y6375400D02*
X5579900D01*
X5549900Y6345400D02*
Y6405400D01*
X5773900Y6375400D02*
X5833900D01*
X5803900Y6345400D02*
Y6405400D01*
X3310100Y4673600D02*
X3370100D01*
X3340100Y4643600D02*
Y4703600D01*
X3132300Y3746500D02*
X3192300D01*
X3162300Y3716500D02*
Y3776500D01*
X3487900Y4673600D02*
X3547900D01*
X3517900Y4643600D02*
Y4703600D01*
X4402300Y5143500D02*
X4462300D01*
X4432300Y5113500D02*
Y5173500D01*
X4224500Y5143500D02*
X4284500D01*
X4254500Y5113500D02*
Y5173500D01*
X4046700Y5143500D02*
X4106700D01*
X4076700Y5113500D02*
Y5173500D01*
X3081500Y5257800D02*
X3141500D01*
X3111500Y5227800D02*
Y5287800D01*
X3081500Y5918200D02*
X3141500D01*
X3111500Y5888200D02*
Y5948200D01*
X3081500Y5524500D02*
X3141500D01*
X3111500Y5494500D02*
Y5554500D01*
X3081500Y5727700D02*
X3141500D01*
X3111500Y5697700D02*
Y5757700D01*
X9062475Y1120111D02*
X9122475D01*
X9092475Y1090111D02*
Y1150111D01*
X3602200Y3238500D02*
X3662200D01*
X3632200Y3208500D02*
Y3268500D01*
X4318300Y3713300D02*
X4378300D01*
X4348300Y3683300D02*
Y3743300D01*
X4478500Y3619500D02*
X4538500D01*
X4508500Y3589500D02*
Y3649500D01*
X4592800Y3467100D02*
X4652800D01*
X4622800Y3437100D02*
Y3497100D01*
X8758400Y5397500D02*
X8818400D01*
X8788400Y5367500D02*
Y5427500D01*
X8745700Y5600700D02*
X8805700D01*
X8775700Y5570700D02*
Y5630700D01*
X2992600Y4610100D02*
X3052600D01*
X3022600Y4580100D02*
Y4640100D01*
X947900Y6261100D02*
X1007900D01*
X977900Y6231100D02*
Y6291100D01*
X4542000Y736600D02*
X4602000D01*
X4572000Y706600D02*
Y766600D01*
X4326100Y736600D02*
X4386100D01*
X4356100Y706600D02*
Y766600D01*
X3907000Y736600D02*
X3967000D01*
X3937000Y706600D02*
Y766600D01*
X3653000Y736600D02*
X3713000D01*
X3683000Y706600D02*
Y766600D01*
X3399000Y736600D02*
X3459000D01*
X3429000Y706600D02*
Y766600D01*
X7310600Y1016000D02*
X7370600D01*
X7340600Y986000D02*
Y1046000D01*
%TF.MD5,dd7182452498131454f33a4351369b1e*%
M02*
