%TF.GenerationSoftware,Altium Limited,Altium Designer,22.8.2 (66)*%
G04 Layer_Color=255*
%FSLAX45Y45*%
%MOMM*%
%TF.SameCoordinates,BD556100-397B-4985-8EB5-C039F1F1876F*%
%TF.FilePolarity,Positive*%
%TF.FileFunction,Pads,Bot*%
%TF.Part,Single*%
G01*
G75*
%TA.AperFunction,ComponentPad*%
%ADD26C,2.20000*%
%ADD27C,3.00000*%
%ADD28C,1.40000*%
%ADD29R,1.50000X1.50000*%
%ADD30C,1.50000*%
%ADD31O,2.22000X1.00000*%
%ADD32R,1.50000X1.50000*%
%ADD33C,1.81500*%
%ADD34R,1.81500X1.81500*%
%ADD35C,1.35800*%
%TA.AperFunction,ViaPad*%
%ADD36C,4.00000*%
%TA.AperFunction,ComponentPad*%
%ADD37C,1.35000*%
%ADD38R,1.35000X1.35000*%
%ADD39C,1.80000*%
%ADD40R,1.80000X1.80000*%
%ADD41R,1.65000X1.65000*%
%ADD42C,1.65000*%
%ADD43C,3.31600*%
%ADD44C,1.40800*%
%ADD45R,1.40800X1.40800*%
D26*
X332000Y1898300D02*
D03*
X2132000D02*
D03*
X332000Y5948300D02*
D03*
X2132000D02*
D03*
D27*
X2032000Y5448300D02*
D03*
X432000Y2398300D02*
D03*
D28*
X8166100Y3924300D02*
D03*
X8928100D02*
D03*
Y4279900D02*
D03*
X8166100D02*
D03*
X3568700Y6654800D02*
D03*
Y5892800D02*
D03*
X3441700Y3581400D02*
D03*
Y2819400D02*
D03*
X8610600Y1409700D02*
D03*
Y2171700D02*
D03*
X8255000D02*
D03*
Y1409700D02*
D03*
D29*
X9680100Y3124200D02*
D03*
X4991100Y5816600D02*
D03*
X9677400Y3848100D02*
D03*
D30*
X9680100Y3378200D02*
D03*
X1231900Y6642100D02*
D03*
X1739900D02*
D03*
X1993900D02*
D03*
X2247900D02*
D03*
X2501900D02*
D03*
X2755900D02*
D03*
X3009900D02*
D03*
X3263900D02*
D03*
X1485900D02*
D03*
X4737100Y6324600D02*
D03*
X4991100D02*
D03*
X4737100Y6070600D02*
D03*
X4991100D02*
D03*
X4737100Y5816600D02*
D03*
X4190778Y389521D02*
D03*
X3936778D02*
D03*
X3682778D02*
D03*
X3428778D02*
D03*
X3174778D02*
D03*
X2920778D02*
D03*
X2666778D02*
D03*
X9677400Y4102100D02*
D03*
X5295900Y6629400D02*
D03*
X5549900D02*
D03*
X5803900D02*
D03*
X6057900D02*
D03*
D31*
X2908475Y3479800D02*
D03*
Y3225800D02*
D03*
Y3352800D02*
D03*
D32*
X977900Y6642100D02*
D03*
X2412778Y389521D02*
D03*
X6311900Y6629400D02*
D03*
D33*
X4025900Y6591300D02*
D03*
D34*
Y6337300D02*
D03*
D35*
X4953000Y1575800D02*
D03*
Y2335800D02*
D03*
D36*
X300000Y6700000D02*
D03*
X9700000D02*
D03*
Y300000D02*
D03*
X300000D02*
D03*
D37*
X2806701Y5317300D02*
D03*
D38*
X2806699Y4817300D02*
D03*
D39*
X9089900Y444500D02*
D03*
X8589900D02*
D03*
X8089900D02*
D03*
X7589900D02*
D03*
X7089900D02*
D03*
D40*
X6589900D02*
D03*
D41*
X1219200Y437500D02*
D03*
D42*
X1727200D02*
D03*
D43*
X9525000Y6210300D02*
D03*
Y5006300D02*
D03*
D44*
X9255000Y5733300D02*
D03*
Y5483300D02*
D03*
X9055000D02*
D03*
D45*
Y5733300D02*
D03*
%TF.MD5,675a2f8ef5e529c0549cabe43281d4aa*%
M02*
