%TF.GenerationSoftware,Altium Limited,Altium Designer,22.8.2 (66)*%
G04 Layer_Physical_Order=2*
G04 Layer_Color=16711680*
%FSLAX45Y45*%
%MOMM*%
%TF.SameCoordinates,BD556100-397B-4985-8EB5-C039F1F1876F*%
%TF.FilePolarity,Positive*%
%TF.FileFunction,Copper,L2,Bot,Signal*%
%TF.Part,Single*%
G01*
G75*
%TA.AperFunction,Conductor*%
%ADD24C,0.40000*%
%ADD25C,1.00000*%
%TA.AperFunction,ComponentPad*%
%ADD26C,2.20000*%
%ADD27C,3.00000*%
%ADD28C,1.40000*%
%ADD29R,1.50000X1.50000*%
%ADD30C,1.50000*%
%ADD31O,2.22000X1.00000*%
%ADD32R,1.50000X1.50000*%
%ADD33C,1.81500*%
%ADD34R,1.81500X1.81500*%
%ADD35C,1.35800*%
%TA.AperFunction,ViaPad*%
%ADD36C,4.00000*%
%TA.AperFunction,ComponentPad*%
%ADD37C,1.35000*%
%ADD38R,1.35000X1.35000*%
%ADD39C,1.80000*%
%ADD40R,1.80000X1.80000*%
%ADD41R,1.65000X1.65000*%
%ADD42C,1.65000*%
%ADD43C,3.31600*%
%ADD44C,1.40800*%
%ADD45R,1.40800X1.40800*%
%TA.AperFunction,ViaPad*%
%ADD46C,1.20000*%
G36*
X10000022Y6999512D02*
Y0D01*
X0D01*
Y7000469D01*
X9999064D01*
X10000022Y6999512D01*
D02*
G37*
%LPC*%
G36*
X5702300Y6955090D02*
X5702299Y6955089D01*
X4902201D01*
X4902200Y6955090D01*
X4884486Y6951566D01*
X4869468Y6941532D01*
X4869468Y6941531D01*
X4720937Y6793000D01*
X4710902Y6777983D01*
X4707379Y6760268D01*
X4707379Y6760267D01*
Y6676034D01*
X4707379Y6676033D01*
X4710902Y6658319D01*
X4720937Y6643301D01*
X4923812Y6440426D01*
Y6399299D01*
X4910760Y6386247D01*
X4897542Y6363353D01*
X4890700Y6337818D01*
Y6311382D01*
X4897542Y6285847D01*
X4910760Y6262953D01*
X4929453Y6244260D01*
X4952347Y6231042D01*
X4977882Y6224200D01*
X5004318D01*
X5029853Y6231042D01*
X5052747Y6244260D01*
X5071440Y6262953D01*
X5084658Y6285847D01*
X5091500Y6311382D01*
Y6337818D01*
X5084658Y6363353D01*
X5071440Y6386247D01*
X5052747Y6404940D01*
X5029853Y6418158D01*
X5016391Y6421765D01*
Y6459599D01*
X5016391Y6459600D01*
X5012868Y6477314D01*
X5002833Y6492332D01*
X4799958Y6695207D01*
Y6741094D01*
X4921374Y6862511D01*
X5031333D01*
X5033365Y6849966D01*
X5018348Y6839932D01*
X4969339Y6790923D01*
X4962483Y6792760D01*
X4939997D01*
X4918277Y6786940D01*
X4898803Y6775697D01*
X4882903Y6759797D01*
X4871660Y6740323D01*
X4865840Y6718603D01*
Y6696117D01*
X4871660Y6674397D01*
X4882903Y6654923D01*
X4898803Y6639023D01*
X4918277Y6627780D01*
X4939997Y6621960D01*
X4962483D01*
X4984203Y6627780D01*
X5003677Y6639023D01*
X5019577Y6654923D01*
X5030820Y6674397D01*
X5036640Y6696117D01*
Y6718603D01*
X5034802Y6725459D01*
X5070254Y6760911D01*
X5619626D01*
X5711089Y6669447D01*
X5710342Y6668153D01*
X5703500Y6642618D01*
Y6616182D01*
X5710342Y6590647D01*
X5723560Y6567753D01*
X5742253Y6549060D01*
X5765147Y6535842D01*
X5790682Y6529000D01*
X5817118D01*
X5842653Y6535842D01*
X5865547Y6549060D01*
X5884240Y6567753D01*
X5897458Y6590647D01*
X5904300Y6616182D01*
Y6642618D01*
X5897458Y6668153D01*
X5884240Y6691047D01*
X5865547Y6709740D01*
X5842653Y6722958D01*
X5817118Y6729800D01*
X5790682D01*
X5783569Y6727894D01*
X5671532Y6839932D01*
X5656514Y6849966D01*
X5658547Y6862511D01*
X5683126D01*
X5745768Y6799868D01*
X5760786Y6789834D01*
X5778500Y6786310D01*
X5778501Y6786311D01*
X8426326D01*
X9732711Y5479926D01*
Y4707189D01*
X9601200D01*
X9583486Y4703666D01*
X9568468Y4693632D01*
X9568468Y4693631D01*
X9192568Y4317732D01*
X9182534Y4302714D01*
X9179010Y4285000D01*
X9179011Y4284999D01*
Y1166426D01*
X9166311Y1163023D01*
X9160811Y1172548D01*
X9144911Y1188448D01*
X9125438Y1199691D01*
X9103718Y1205511D01*
X9081232D01*
X9059511Y1199691D01*
X9040038Y1188448D01*
X9024138Y1172548D01*
X9012895Y1153074D01*
X9007075Y1131354D01*
Y1108868D01*
X9012895Y1087148D01*
X9015137Y1083264D01*
Y532936D01*
X8997557Y515357D01*
X8982365Y489043D01*
X8974500Y459693D01*
Y429307D01*
X8982365Y399957D01*
X8997557Y373643D01*
X9019043Y352157D01*
X9031631Y344890D01*
X9028228Y332190D01*
X8651572D01*
X8648169Y344890D01*
X8660757Y352157D01*
X8682243Y373643D01*
X8697435Y399957D01*
X8705300Y429307D01*
Y459693D01*
X8697435Y489043D01*
X8682243Y515357D01*
X8660757Y536843D01*
X8634443Y552035D01*
X8605093Y559900D01*
X8574707D01*
X8545357Y552035D01*
X8519043Y536843D01*
X8497557Y515357D01*
X8482365Y489043D01*
X8474500Y459693D01*
Y429307D01*
X8482365Y399957D01*
X8497557Y373643D01*
X8519043Y352157D01*
X8531631Y344890D01*
X8528228Y332190D01*
X8151572D01*
X8148169Y344890D01*
X8160757Y352157D01*
X8182243Y373643D01*
X8197435Y399957D01*
X8205300Y429307D01*
Y459693D01*
X8197435Y489043D01*
X8182243Y515357D01*
X8160757Y536843D01*
X8136189Y551027D01*
Y1130300D01*
X8132666Y1148014D01*
X8122632Y1163032D01*
X8122631Y1163032D01*
X4238146Y5047517D01*
X4245524Y5058100D01*
X4265743D01*
X4272599Y5059937D01*
X5085368Y4247169D01*
X5085368Y4247168D01*
X5100386Y4237134D01*
X5118100Y4233610D01*
X5118101Y4233611D01*
X8082667D01*
X8089761Y4221323D01*
X8107523Y4203561D01*
X8129277Y4191002D01*
X8153540Y4184500D01*
X8178660D01*
X8202923Y4191002D01*
X8224677Y4203561D01*
X8242439Y4221323D01*
X8254998Y4243077D01*
X8261500Y4267340D01*
Y4292460D01*
X8254998Y4316723D01*
X8243690Y4336311D01*
X8247986Y4349011D01*
X8361726D01*
X8729411Y3981326D01*
Y1593974D01*
X8636864Y1501428D01*
X8623160Y1505100D01*
X8598040D01*
X8573777Y1498598D01*
X8552023Y1486039D01*
X8534261Y1468277D01*
X8521702Y1446523D01*
X8515200Y1422260D01*
Y1397140D01*
X8521702Y1372877D01*
X8534261Y1351123D01*
X8552023Y1333361D01*
X8573777Y1320802D01*
X8598040Y1314300D01*
X8623160D01*
X8647423Y1320802D01*
X8669177Y1333361D01*
X8686939Y1351123D01*
X8699498Y1372877D01*
X8706000Y1397140D01*
Y1422260D01*
X8702328Y1435964D01*
X8808431Y1542068D01*
X8808432Y1542068D01*
X8818466Y1557086D01*
X8821990Y1574800D01*
X8821989Y1574801D01*
Y3902644D01*
X8834689Y3904316D01*
X8839202Y3887477D01*
X8851761Y3865723D01*
X8869523Y3847961D01*
X8891277Y3835402D01*
X8915540Y3828900D01*
X8940660D01*
X8964923Y3835402D01*
X8986677Y3847961D01*
X9004439Y3865723D01*
X9016998Y3887477D01*
X9023500Y3911740D01*
Y3936860D01*
X9016998Y3961123D01*
X9004439Y3982877D01*
X8986677Y4000639D01*
X8964923Y4013198D01*
X8940660Y4019700D01*
X8915540D01*
X8891277Y4013198D01*
X8869523Y4000639D01*
X8851761Y3982877D01*
X8839202Y3961123D01*
X8834689Y3944284D01*
X8821989Y3945956D01*
Y4000499D01*
X8821990Y4000500D01*
X8818466Y4018214D01*
X8808432Y4033232D01*
X8413632Y4428032D01*
X8398614Y4438066D01*
X8380900Y4441590D01*
X8380899Y4441590D01*
X5187942D01*
X5186266Y4450014D01*
X5176232Y4465032D01*
X4515863Y5125401D01*
X4517700Y5132257D01*
Y5154743D01*
X4511880Y5176463D01*
X4500637Y5195937D01*
X4496796Y5199777D01*
X4501657Y5211511D01*
X7054726D01*
X7320568Y4945669D01*
X7320568Y4945668D01*
X7335586Y4935634D01*
X7353300Y4932110D01*
X7353301Y4932111D01*
X8716514D01*
X8720063Y4925963D01*
X8735963Y4910063D01*
X8755437Y4898820D01*
X8777157Y4893000D01*
X8799643D01*
X8821363Y4898820D01*
X8840837Y4910063D01*
X8856737Y4925963D01*
X8867980Y4945437D01*
X8873800Y4967157D01*
Y4989643D01*
X8867980Y5011363D01*
X8856737Y5030837D01*
X8840837Y5046737D01*
X8821363Y5057980D01*
X8799643Y5063800D01*
X8777157D01*
X8755437Y5057980D01*
X8735963Y5046737D01*
X8720063Y5030837D01*
X8716514Y5024689D01*
X7372474D01*
X7121186Y5275977D01*
X7126046Y5287711D01*
X8622411D01*
X8706237Y5203884D01*
X8704400Y5197028D01*
Y5174542D01*
X8710220Y5152822D01*
X8721463Y5133348D01*
X8737363Y5117448D01*
X8756837Y5106205D01*
X8778557Y5100385D01*
X8801043D01*
X8822763Y5106205D01*
X8842237Y5117448D01*
X8858137Y5133348D01*
X8869380Y5152822D01*
X8875200Y5174542D01*
Y5197028D01*
X8869380Y5218748D01*
X8858137Y5238222D01*
X8842237Y5254122D01*
X8822763Y5265365D01*
X8801043Y5271185D01*
X8778557D01*
X8771701Y5269348D01*
X8674317Y5366732D01*
X8659299Y5376766D01*
X8641585Y5380290D01*
X8641584Y5380289D01*
X5652846D01*
X5647986Y5392023D01*
X6344632Y6088668D01*
X6354666Y6103686D01*
X6358190Y6121400D01*
X6358189Y6121401D01*
Y6529000D01*
X6412300D01*
Y6729800D01*
X6211500D01*
Y6529000D01*
X6265611D01*
Y6140574D01*
X5581526Y5456489D01*
X5134115D01*
X5129255Y5468223D01*
X5227032Y5566000D01*
X5237066Y5581017D01*
X5240590Y5598732D01*
X5240589Y5598733D01*
Y5867399D01*
X5240590Y5867400D01*
X5237066Y5885114D01*
X5227032Y5900132D01*
X5227031Y5900132D01*
X5086910Y6040253D01*
X5091500Y6057382D01*
Y6083818D01*
X5084658Y6109353D01*
X5071440Y6132247D01*
X5052747Y6150940D01*
X5029853Y6164158D01*
X5004318Y6171000D01*
X4977882D01*
X4952347Y6164158D01*
X4929453Y6150940D01*
X4910760Y6132247D01*
X4897542Y6109353D01*
X4890700Y6083818D01*
Y6057382D01*
X4897542Y6031847D01*
X4910760Y6008953D01*
X4929453Y5990260D01*
X4952347Y5977042D01*
X4977882Y5970200D01*
X5004318D01*
X5021447Y5974790D01*
X5067503Y5928733D01*
X5062643Y5917000D01*
X4890700D01*
Y5716200D01*
X4944811D01*
Y5696074D01*
X4908426Y5659689D01*
X3200401D01*
X3200400Y5659690D01*
X3182686Y5656166D01*
X3167668Y5646132D01*
X3167668Y5646131D01*
X3129600Y5608063D01*
X3122743Y5609900D01*
X3100257D01*
X3093400Y5608063D01*
X3053625Y5647838D01*
X3061423Y5658001D01*
X3078537Y5648120D01*
X3100257Y5642300D01*
X3122743D01*
X3144463Y5648120D01*
X3163937Y5659363D01*
X3179837Y5675263D01*
X3183386Y5681411D01*
X4114799D01*
X4114800Y5681410D01*
X4132514Y5684934D01*
X4147532Y5694968D01*
X4464174Y6011611D01*
X4655226D01*
X4656760Y6008953D01*
X4675453Y5990260D01*
X4698347Y5977042D01*
X4723882Y5970200D01*
X4750318D01*
X4775853Y5977042D01*
X4798747Y5990260D01*
X4817440Y6008953D01*
X4830658Y6031847D01*
X4837500Y6057382D01*
Y6083818D01*
X4830658Y6109353D01*
X4817440Y6132247D01*
X4798747Y6150940D01*
X4775853Y6164158D01*
X4750318Y6171000D01*
X4723882D01*
X4698347Y6164158D01*
X4675453Y6150940D01*
X4656760Y6132247D01*
X4643542Y6109353D01*
X4642159Y6104189D01*
X4445001D01*
X4445000Y6104190D01*
X4427286Y6100666D01*
X4412268Y6090632D01*
X4412268Y6090631D01*
X4095626Y5773989D01*
X3183386D01*
X3179837Y5780137D01*
X3163937Y5796037D01*
X3144463Y5807280D01*
X3122743Y5813100D01*
X3115804D01*
X3109700Y5820834D01*
X3114985Y5832800D01*
X3122743D01*
X3144463Y5838620D01*
X3163937Y5849863D01*
X3179837Y5865763D01*
X3191080Y5885237D01*
X3196900Y5906957D01*
Y5929443D01*
X3191080Y5951163D01*
X3179837Y5970637D01*
X3163937Y5986537D01*
X3152089Y5993377D01*
Y6038199D01*
X3152090Y6038200D01*
X3148566Y6055914D01*
X3138532Y6070932D01*
X3138531Y6070932D01*
X2597710Y6611753D01*
X2602300Y6628882D01*
Y6655318D01*
X2595458Y6680853D01*
X2582240Y6703747D01*
X2563547Y6722440D01*
X2540653Y6735658D01*
X2542875Y6748211D01*
X2714925D01*
X2717147Y6735658D01*
X2694253Y6722440D01*
X2675560Y6703747D01*
X2662342Y6680853D01*
X2655500Y6655318D01*
Y6628882D01*
X2662342Y6603347D01*
X2675560Y6580453D01*
X2694253Y6561760D01*
X2717147Y6548542D01*
X2742682Y6541700D01*
X2769118D01*
X2794653Y6548542D01*
X2817547Y6561760D01*
X2836240Y6580453D01*
X2849458Y6603347D01*
X2856300Y6628882D01*
Y6655318D01*
X2849458Y6680853D01*
X2836240Y6703747D01*
X2817547Y6722440D01*
X2794653Y6735658D01*
X2796875Y6748211D01*
X2968925D01*
X2971147Y6735658D01*
X2948253Y6722440D01*
X2929560Y6703747D01*
X2916342Y6680853D01*
X2909500Y6655318D01*
Y6628882D01*
X2916342Y6603347D01*
X2929560Y6580453D01*
X2948253Y6561760D01*
X2971147Y6548542D01*
X2996682Y6541700D01*
X3023118D01*
X3048653Y6548542D01*
X3071547Y6561760D01*
X3090240Y6580453D01*
X3103458Y6603347D01*
X3110300Y6628882D01*
Y6655318D01*
X3103458Y6680853D01*
X3090240Y6703747D01*
X3071547Y6722440D01*
X3048653Y6735658D01*
X3050875Y6748211D01*
X3222925D01*
X3225147Y6735658D01*
X3202253Y6722440D01*
X3183560Y6703747D01*
X3170342Y6680853D01*
X3163500Y6655318D01*
Y6628882D01*
X3170342Y6603347D01*
X3183560Y6580453D01*
X3202253Y6561760D01*
X3225147Y6548542D01*
X3250682Y6541700D01*
X3277118D01*
X3302653Y6548542D01*
X3325547Y6561760D01*
X3344240Y6580453D01*
X3357458Y6603347D01*
X3364300Y6628882D01*
Y6655318D01*
X3357458Y6680853D01*
X3344240Y6703747D01*
X3325547Y6722440D01*
X3302653Y6735658D01*
X3304875Y6748211D01*
X3514292D01*
X3517695Y6735511D01*
X3510123Y6731139D01*
X3492361Y6713377D01*
X3479802Y6691623D01*
X3473300Y6667360D01*
Y6642240D01*
X3479802Y6617977D01*
X3492361Y6596223D01*
X3510123Y6578461D01*
X3531877Y6565902D01*
X3556140Y6559400D01*
X3581260D01*
X3605523Y6565902D01*
X3627277Y6578461D01*
X3645039Y6596223D01*
X3652133Y6608511D01*
X3689226D01*
X3909750Y6387986D01*
Y6221150D01*
X4142050D01*
Y6453450D01*
X3975214D01*
X3741132Y6687532D01*
X3726114Y6697566D01*
X3708400Y6701090D01*
X3708399Y6701089D01*
X3652133D01*
X3645039Y6713377D01*
X3627277Y6731139D01*
X3619705Y6735511D01*
X3623108Y6748211D01*
X3803526D01*
X3917230Y6634507D01*
X3909750Y6606591D01*
Y6576009D01*
X3917666Y6546468D01*
X3932957Y6519982D01*
X3954582Y6498357D01*
X3981068Y6483066D01*
X4010609Y6475150D01*
X4041191D01*
X4070732Y6483066D01*
X4097218Y6498357D01*
X4118843Y6519982D01*
X4134134Y6546468D01*
X4142050Y6576009D01*
Y6606591D01*
X4134134Y6636132D01*
X4118843Y6662618D01*
X4097218Y6684243D01*
X4070732Y6699534D01*
X4041191Y6707450D01*
X4010609D01*
X3982693Y6699970D01*
X3855432Y6827232D01*
X3840414Y6837266D01*
X3822700Y6840790D01*
X3822699Y6840789D01*
X1130301D01*
X1130300Y6840790D01*
X1112586Y6837266D01*
X1097568Y6827232D01*
X1097568Y6827231D01*
X1012836Y6742500D01*
X877500D01*
Y6541700D01*
X931611D01*
Y6332986D01*
X925463Y6329437D01*
X909563Y6313537D01*
X898320Y6294063D01*
X892500Y6272343D01*
Y6249857D01*
X898320Y6228137D01*
X909563Y6208663D01*
X925463Y6192763D01*
X944937Y6181520D01*
X966657Y6175700D01*
X989143D01*
X1010863Y6181520D01*
X1030337Y6192763D01*
X1046237Y6208663D01*
X1057480Y6228137D01*
X1063300Y6249857D01*
Y6272343D01*
X1057480Y6294063D01*
X1046237Y6313537D01*
X1030337Y6329437D01*
X1024189Y6332986D01*
Y6541700D01*
X1078300D01*
Y6677036D01*
X1149474Y6748211D01*
X1190925D01*
X1193147Y6735658D01*
X1170253Y6722440D01*
X1151560Y6703747D01*
X1138342Y6680853D01*
X1131500Y6655318D01*
Y6628882D01*
X1138342Y6603347D01*
X1151560Y6580453D01*
X1170253Y6561760D01*
X1193147Y6548542D01*
X1206658Y6544922D01*
Y5922554D01*
X1206658Y5922553D01*
X1210181Y5904839D01*
X1220216Y5889821D01*
X2560721Y4549316D01*
X2556200Y4532443D01*
Y4509957D01*
X2562020Y4488237D01*
X2573263Y4468763D01*
X2589163Y4452863D01*
X2608637Y4441620D01*
X2630357Y4435800D01*
X2652843D01*
X2674563Y4441620D01*
X2694037Y4452863D01*
X2709937Y4468763D01*
X2721180Y4488237D01*
X2727000Y4509957D01*
Y4532443D01*
X2721180Y4554163D01*
X2709937Y4573637D01*
X2694037Y4589537D01*
X2674563Y4600780D01*
X2652843Y4606600D01*
X2634364D01*
X1970990Y5269973D01*
X1978184Y5280740D01*
X1980838Y5279641D01*
X2014725Y5272900D01*
X2049275D01*
X2083162Y5279641D01*
X2115083Y5292863D01*
X2143811Y5312058D01*
X2168242Y5336489D01*
X2187437Y5365217D01*
X2200659Y5397138D01*
X2207400Y5431025D01*
Y5465575D01*
X2200659Y5499462D01*
X2187437Y5531383D01*
X2168242Y5560111D01*
X2143811Y5584542D01*
X2115083Y5603737D01*
X2083162Y5616959D01*
X2049275Y5623700D01*
X2014725D01*
X1980838Y5616959D01*
X1948917Y5603737D01*
X1920189Y5584542D01*
X1895758Y5560111D01*
X1876563Y5531383D01*
X1863341Y5499462D01*
X1856600Y5465575D01*
Y5431025D01*
X1863341Y5397138D01*
X1864440Y5394485D01*
X1853673Y5387290D01*
X1299237Y5941727D01*
Y6567450D01*
X1312240Y6580453D01*
X1325458Y6603347D01*
X1332300Y6628882D01*
Y6655318D01*
X1325458Y6680853D01*
X1312240Y6703747D01*
X1293547Y6722440D01*
X1270653Y6735658D01*
X1272875Y6748211D01*
X1444925D01*
X1447147Y6735658D01*
X1424253Y6722440D01*
X1405560Y6703747D01*
X1392342Y6680853D01*
X1385500Y6655318D01*
Y6628882D01*
X1392342Y6603347D01*
X1405560Y6580453D01*
X1424253Y6561760D01*
X1439611Y6552893D01*
Y6172201D01*
X1439610Y6172200D01*
X1443134Y6154486D01*
X1453168Y6139468D01*
X1757968Y5834669D01*
X1757968Y5834668D01*
X1772986Y5824634D01*
X1790700Y5821111D01*
X1931260D01*
X2580702Y5171669D01*
X2580702Y5171668D01*
X2595720Y5161634D01*
X2613434Y5158110D01*
X2613435Y5158111D01*
X2713562D01*
X3154111Y4717562D01*
Y4619654D01*
X3154110Y4619653D01*
X3157634Y4601939D01*
X3167668Y4586921D01*
X4320221Y3434369D01*
X4320221Y3434368D01*
X4335239Y3424334D01*
X4352953Y3420810D01*
X4352954Y3420811D01*
X4550914D01*
X4554463Y3414663D01*
X4570363Y3398763D01*
X4589837Y3387520D01*
X4611557Y3381700D01*
X4634043D01*
X4655763Y3387520D01*
X4675237Y3398763D01*
X4691137Y3414663D01*
X4702380Y3434137D01*
X4708200Y3455857D01*
Y3478343D01*
X4702380Y3500063D01*
X4691137Y3519537D01*
X4675237Y3535437D01*
X4655763Y3546680D01*
X4634043Y3552500D01*
X4611557D01*
X4589837Y3546680D01*
X4570363Y3535437D01*
X4554463Y3519537D01*
X4550914Y3513389D01*
X4372127D01*
X4335639Y3549877D01*
X4340499Y3561611D01*
X4445616D01*
X4456063Y3551163D01*
X4475537Y3539920D01*
X4497257Y3534100D01*
X4519743D01*
X4541463Y3539920D01*
X4560937Y3551163D01*
X4576837Y3567063D01*
X4588080Y3586537D01*
X4593900Y3608257D01*
Y3630743D01*
X4588080Y3652463D01*
X4576837Y3671937D01*
X4560937Y3687837D01*
X4541463Y3699080D01*
X4519743Y3704900D01*
X4497257D01*
X4475537Y3699080D01*
X4456063Y3687837D01*
X4440163Y3671937D01*
X4435936Y3664615D01*
X4433478Y3664632D01*
X4426175Y3677384D01*
X4427880Y3680337D01*
X4433700Y3702057D01*
Y3724543D01*
X4427880Y3746263D01*
X4416637Y3765737D01*
X4400737Y3781637D01*
X4389689Y3788015D01*
Y4601610D01*
X4389690Y4601611D01*
X4386166Y4619325D01*
X4376132Y4634343D01*
X4376131Y4634343D01*
X3983289Y5027185D01*
Y5113084D01*
X3995989Y5114756D01*
X3997120Y5110537D01*
X4008363Y5091063D01*
X4024263Y5075163D01*
X4043737Y5063920D01*
X4065457Y5058100D01*
X4087943D01*
X4094799Y5059937D01*
X8043611Y1111126D01*
Y551027D01*
X8019043Y536843D01*
X7997557Y515357D01*
X7982365Y489043D01*
X7974500Y459693D01*
Y429307D01*
X7982365Y399957D01*
X7997557Y373643D01*
X8019043Y352157D01*
X8031631Y344890D01*
X8028228Y332190D01*
X7651572D01*
X7648169Y344890D01*
X7660757Y352157D01*
X7682243Y373643D01*
X7697435Y399957D01*
X7705300Y429307D01*
Y459693D01*
X7697435Y489043D01*
X7682243Y515357D01*
X7660757Y536843D01*
X7636189Y551027D01*
Y768669D01*
X7632666Y786383D01*
X7622632Y801400D01*
X7622631Y801401D01*
X7591200Y832832D01*
X7585267Y836796D01*
X7424163Y997901D01*
X7426000Y1004757D01*
Y1027243D01*
X7420180Y1048963D01*
X7408937Y1068437D01*
X7393037Y1084337D01*
X7373563Y1095580D01*
X7351843Y1101400D01*
X7329357D01*
X7307637Y1095580D01*
X7288163Y1084337D01*
X7272263Y1068437D01*
X7261020Y1048963D01*
X7255200Y1027243D01*
Y1004757D01*
X7261020Y983037D01*
X7272263Y963563D01*
X7288163Y947663D01*
X7307637Y936420D01*
X7329357Y930600D01*
X7351843D01*
X7358699Y932437D01*
X7523768Y767369D01*
X7523768Y767368D01*
X7529701Y763404D01*
X7543611Y749495D01*
Y551027D01*
X7519043Y536843D01*
X7497557Y515357D01*
X7482365Y489043D01*
X7474500Y459693D01*
Y429307D01*
X7482365Y399957D01*
X7497557Y373643D01*
X7519043Y352157D01*
X7531631Y344890D01*
X7528228Y332190D01*
X7151572D01*
X7148169Y344890D01*
X7160757Y352157D01*
X7182243Y373643D01*
X7197435Y399957D01*
X7205300Y429307D01*
Y459693D01*
X7197435Y489043D01*
X7182243Y515357D01*
X7160757Y536843D01*
X7134443Y552035D01*
X7105093Y559900D01*
X7074707D01*
X7045357Y552035D01*
X7019043Y536843D01*
X6997557Y515357D01*
X6982364Y489043D01*
X6974500Y459693D01*
Y429307D01*
X6982364Y399957D01*
X6997557Y373643D01*
X7019043Y352157D01*
X7031631Y344890D01*
X7028228Y332190D01*
X6705300D01*
Y431800D01*
X6474500D01*
Y332190D01*
X6197574D01*
X5468332Y1061432D01*
X5453314Y1071466D01*
X5435600Y1074990D01*
X5435599Y1074989D01*
X4565774D01*
X3678489Y1962274D01*
Y3166614D01*
X3684637Y3170163D01*
X3700537Y3186063D01*
X3711780Y3205537D01*
X3717600Y3227257D01*
Y3249743D01*
X3711780Y3271463D01*
X3700537Y3290937D01*
X3684637Y3306837D01*
X3665163Y3318080D01*
X3643443Y3323900D01*
X3620957D01*
X3614100Y3322063D01*
X3487989Y3448174D01*
Y3497967D01*
X3500277Y3505061D01*
X3518039Y3522823D01*
X3530598Y3544577D01*
X3537100Y3568840D01*
Y3593960D01*
X3530598Y3618223D01*
X3518039Y3639977D01*
X3500277Y3657739D01*
X3478523Y3670298D01*
X3454260Y3676800D01*
X3429140D01*
X3404877Y3670298D01*
X3383123Y3657739D01*
X3365361Y3639977D01*
X3352802Y3618223D01*
X3346300Y3593960D01*
Y3568840D01*
X3352802Y3544577D01*
X3365361Y3522823D01*
X3383123Y3505061D01*
X3395411Y3497967D01*
Y3429001D01*
X3395410Y3429000D01*
X3398934Y3411286D01*
X3408968Y3396268D01*
X3548637Y3256600D01*
X3546800Y3249743D01*
Y3227257D01*
X3552620Y3205537D01*
X3563863Y3186063D01*
X3579763Y3170163D01*
X3585911Y3166614D01*
Y1943101D01*
X3585910Y1943100D01*
X3589434Y1925386D01*
X3599468Y1910368D01*
X4513868Y995969D01*
X4513868Y995968D01*
X4528886Y985934D01*
X4546600Y982410D01*
X4546601Y982411D01*
X5416426D01*
X6145668Y253169D01*
X6145668Y253168D01*
X6160686Y243134D01*
X6178400Y239610D01*
X6178401Y239611D01*
X9136067D01*
X9136069Y239610D01*
X9153783Y243134D01*
X9168800Y253168D01*
X9258031Y342399D01*
X9258032Y342400D01*
X9268066Y357417D01*
X9271590Y375132D01*
Y4265826D01*
X9620374Y4614611D01*
X9755567D01*
X9755568Y4614610D01*
X9773283Y4618134D01*
X9788300Y4628168D01*
X9811731Y4651599D01*
X9811732Y4651600D01*
X9821766Y4666617D01*
X9825289Y4684331D01*
Y5499100D01*
X9821766Y5516814D01*
X9811732Y5531832D01*
X9811731Y5531832D01*
X8478232Y6865332D01*
X8463214Y6875366D01*
X8445500Y6878890D01*
X8445499Y6878889D01*
X5797674D01*
X5735032Y6941532D01*
X5720014Y6951566D01*
X5702300Y6955090D01*
D02*
G37*
G36*
X6071118Y6729800D02*
X6044682D01*
X6019147Y6722958D01*
X5996253Y6709740D01*
X5977560Y6691047D01*
X5964342Y6668153D01*
X5957500Y6642618D01*
Y6616182D01*
X5962090Y6599053D01*
X5821999Y6458963D01*
X5815143Y6460800D01*
X5792657D01*
X5770937Y6454980D01*
X5751463Y6443737D01*
X5735563Y6427837D01*
X5724320Y6408363D01*
X5718500Y6386643D01*
Y6364157D01*
X5724320Y6342437D01*
X5735563Y6322963D01*
X5751463Y6307063D01*
X5770937Y6295820D01*
X5792657Y6290000D01*
X5815143D01*
X5836863Y6295820D01*
X5856337Y6307063D01*
X5872237Y6322963D01*
X5883480Y6342437D01*
X5889300Y6364157D01*
Y6386643D01*
X5887463Y6393499D01*
X6027553Y6533590D01*
X6044682Y6529000D01*
X6071118D01*
X6096653Y6535842D01*
X6119547Y6549060D01*
X6138240Y6567753D01*
X6151458Y6590647D01*
X6158300Y6616182D01*
Y6642618D01*
X6151458Y6668153D01*
X6138240Y6691047D01*
X6119547Y6709740D01*
X6096653Y6722958D01*
X6071118Y6729800D01*
D02*
G37*
G36*
X5309118D02*
X5282682D01*
X5257147Y6722958D01*
X5234253Y6709740D01*
X5215560Y6691047D01*
X5202342Y6668153D01*
X5195500Y6642618D01*
Y6616182D01*
X5202342Y6590647D01*
X5215560Y6567753D01*
X5234253Y6549060D01*
X5257147Y6535842D01*
X5282682Y6529000D01*
X5309118D01*
X5334653Y6535842D01*
X5357547Y6549060D01*
X5376240Y6567753D01*
X5389458Y6590647D01*
X5396300Y6616182D01*
Y6642618D01*
X5389458Y6668153D01*
X5376240Y6691047D01*
X5357547Y6709740D01*
X5334653Y6722958D01*
X5309118Y6729800D01*
D02*
G37*
G36*
X9722200Y6925400D02*
X9677800D01*
X9634253Y6916738D01*
X9593233Y6899747D01*
X9556316Y6875080D01*
X9524920Y6843684D01*
X9500253Y6806767D01*
X9483262Y6765747D01*
X9474600Y6722200D01*
Y6677800D01*
X9483262Y6634253D01*
X9500253Y6593233D01*
X9524920Y6556316D01*
X9556316Y6524920D01*
X9593233Y6500253D01*
X9634253Y6483262D01*
X9677800Y6474600D01*
X9722200D01*
X9765747Y6483262D01*
X9806767Y6500253D01*
X9843684Y6524920D01*
X9875080Y6556316D01*
X9899747Y6593233D01*
X9916738Y6634253D01*
X9925400Y6677800D01*
Y6722200D01*
X9916738Y6765747D01*
X9899747Y6806767D01*
X9875080Y6843684D01*
X9843684Y6875080D01*
X9806767Y6899747D01*
X9765747Y6916738D01*
X9722200Y6925400D01*
D02*
G37*
G36*
X322200D02*
X277800D01*
X234253Y6916738D01*
X193233Y6899747D01*
X156316Y6875080D01*
X124920Y6843684D01*
X100253Y6806767D01*
X83262Y6765747D01*
X74600Y6722200D01*
Y6677800D01*
X83262Y6634253D01*
X100253Y6593233D01*
X124920Y6556316D01*
X156316Y6524920D01*
X193233Y6500253D01*
X234253Y6483262D01*
X277800Y6474600D01*
X322200D01*
X365747Y6483262D01*
X406767Y6500253D01*
X443684Y6524920D01*
X475080Y6556316D01*
X499747Y6593233D01*
X516738Y6634253D01*
X525400Y6677800D01*
Y6722200D01*
X516738Y6765747D01*
X499747Y6806767D01*
X475080Y6843684D01*
X443684Y6875080D01*
X406767Y6899747D01*
X365747Y6916738D01*
X322200Y6925400D01*
D02*
G37*
G36*
X5563118Y6729800D02*
X5536682D01*
X5511147Y6722958D01*
X5488253Y6709740D01*
X5469560Y6691047D01*
X5456342Y6668153D01*
X5449500Y6642618D01*
Y6616182D01*
X5456342Y6590647D01*
X5469560Y6567753D01*
X5488253Y6549060D01*
X5503611Y6540193D01*
Y6447286D01*
X5497463Y6443737D01*
X5481563Y6427837D01*
X5470320Y6408363D01*
X5464500Y6386643D01*
Y6364157D01*
X5470320Y6342437D01*
X5481563Y6322963D01*
X5497463Y6307063D01*
X5516937Y6295820D01*
X5538657Y6290000D01*
X5561143D01*
X5582863Y6295820D01*
X5602337Y6307063D01*
X5618237Y6322963D01*
X5629480Y6342437D01*
X5635300Y6364157D01*
Y6386643D01*
X5629480Y6408363D01*
X5618237Y6427837D01*
X5602337Y6443737D01*
X5596189Y6447286D01*
Y6540193D01*
X5611547Y6549060D01*
X5630240Y6567753D01*
X5643458Y6590647D01*
X5650300Y6616182D01*
Y6642618D01*
X5643458Y6668153D01*
X5630240Y6691047D01*
X5611547Y6709740D01*
X5588653Y6722958D01*
X5563118Y6729800D01*
D02*
G37*
G36*
X4750318Y6425000D02*
X4723882D01*
X4698347Y6418158D01*
X4675453Y6404940D01*
X4656760Y6386247D01*
X4643542Y6363353D01*
X4636700Y6337818D01*
Y6311382D01*
X4643542Y6285847D01*
X4656760Y6262953D01*
X4675453Y6244260D01*
X4698347Y6231042D01*
X4723882Y6224200D01*
X4750318D01*
X4775853Y6231042D01*
X4798747Y6244260D01*
X4817440Y6262953D01*
X4830658Y6285847D01*
X4837500Y6311382D01*
Y6337818D01*
X4830658Y6363353D01*
X4817440Y6386247D01*
X4798747Y6404940D01*
X4775853Y6418158D01*
X4750318Y6425000D01*
D02*
G37*
G36*
X9383843Y6587800D02*
X9361357D01*
X9339637Y6581980D01*
X9320163Y6570737D01*
X9304263Y6554837D01*
X9293020Y6535363D01*
X9287200Y6513643D01*
Y6491157D01*
X9293020Y6469437D01*
X9300376Y6456696D01*
Y6421544D01*
X9302967Y6401860D01*
X9310565Y6383518D01*
X9322651Y6367768D01*
X9369176Y6321243D01*
X9355561Y6300867D01*
X9341148Y6266071D01*
X9333800Y6229132D01*
Y6191468D01*
X9341148Y6154529D01*
X9355561Y6119733D01*
X9376485Y6088417D01*
X9403117Y6061785D01*
X9434433Y6040861D01*
X9469229Y6026448D01*
X9506168Y6019100D01*
X9543832D01*
X9580771Y6026448D01*
X9615567Y6040861D01*
X9646883Y6061785D01*
X9673515Y6088417D01*
X9694439Y6119733D01*
X9708852Y6154529D01*
X9716200Y6191468D01*
Y6229132D01*
X9708852Y6266071D01*
X9694439Y6300867D01*
X9673515Y6332183D01*
X9646883Y6358815D01*
X9615567Y6379739D01*
X9580771Y6394152D01*
X9543832Y6401500D01*
X9506168D01*
X9504378Y6401144D01*
X9452477Y6453045D01*
Y6470547D01*
X9458000Y6491157D01*
Y6513643D01*
X9452180Y6535363D01*
X9440937Y6554837D01*
X9425037Y6570737D01*
X9405563Y6581980D01*
X9383843Y6587800D01*
D02*
G37*
G36*
X349826Y6083700D02*
X344700D01*
Y5961000D01*
X467400D01*
Y5966126D01*
X458173Y6000563D01*
X440347Y6031438D01*
X415138Y6056647D01*
X384263Y6074473D01*
X349826Y6083700D01*
D02*
G37*
G36*
X319300D02*
X314174D01*
X279738Y6074473D01*
X248863Y6056647D01*
X223653Y6031438D01*
X205827Y6000563D01*
X196600Y5966126D01*
Y5961000D01*
X319300D01*
Y6083700D01*
D02*
G37*
G36*
X4750318Y5917000D02*
X4749800D01*
Y5829300D01*
X4837500D01*
Y5829818D01*
X4830658Y5855353D01*
X4817440Y5878247D01*
X4798747Y5896940D01*
X4775853Y5910158D01*
X4750318Y5917000D01*
D02*
G37*
G36*
X4724400D02*
X4723882D01*
X4698347Y5910158D01*
X4675453Y5896940D01*
X4656760Y5878247D01*
X4643542Y5855353D01*
X4636700Y5829818D01*
Y5829300D01*
X4724400D01*
Y5917000D01*
D02*
G37*
G36*
X467400Y5935600D02*
X344700D01*
Y5812900D01*
X349826D01*
X384263Y5822127D01*
X415138Y5839953D01*
X440347Y5865163D01*
X458173Y5896037D01*
X467400Y5930474D01*
Y5935600D01*
D02*
G37*
G36*
X319300D02*
X196600D01*
Y5930474D01*
X205827Y5896037D01*
X223653Y5865163D01*
X248863Y5839953D01*
X279738Y5822127D01*
X314174Y5812900D01*
X319300D01*
Y5935600D01*
D02*
G37*
G36*
X3581260Y5988200D02*
X3556140D01*
X3531877Y5981698D01*
X3510123Y5969139D01*
X3492361Y5951377D01*
X3479802Y5929623D01*
X3473300Y5905360D01*
Y5880240D01*
X3479802Y5855977D01*
X3492361Y5834223D01*
X3510123Y5816461D01*
X3531877Y5803902D01*
X3556140Y5797400D01*
X3581260D01*
X3605523Y5803902D01*
X3627277Y5816461D01*
X3645039Y5834223D01*
X3657598Y5855977D01*
X3664100Y5880240D01*
Y5905360D01*
X3657598Y5929623D01*
X3645039Y5951377D01*
X3627277Y5969139D01*
X3605523Y5981698D01*
X3581260Y5988200D01*
D02*
G37*
G36*
X9042301Y5829100D02*
X8959200D01*
Y5746000D01*
X9042301D01*
Y5829100D01*
D02*
G37*
G36*
X4837500Y5803900D02*
X4749800D01*
Y5716200D01*
X4750318D01*
X4775853Y5723042D01*
X4798747Y5736260D01*
X4817440Y5754953D01*
X4830658Y5777847D01*
X4837500Y5803382D01*
Y5803900D01*
D02*
G37*
G36*
X4724400D02*
X4636700D01*
Y5803382D01*
X4643542Y5777847D01*
X4656760Y5754953D01*
X4675453Y5736260D01*
X4698347Y5723042D01*
X4723882Y5716200D01*
X4724400D01*
Y5803900D01*
D02*
G37*
G36*
X9042301Y5720600D02*
X8959200D01*
Y5654981D01*
X8946500Y5645219D01*
X8937600Y5646990D01*
X8937599Y5646989D01*
X8847586D01*
X8844037Y5653137D01*
X8828137Y5669037D01*
X8808663Y5680280D01*
X8786943Y5686100D01*
X8764457D01*
X8742737Y5680280D01*
X8723263Y5669037D01*
X8707363Y5653137D01*
X8696120Y5633663D01*
X8690300Y5611943D01*
Y5589457D01*
X8696120Y5567737D01*
X8707363Y5548263D01*
X8723263Y5532363D01*
X8742737Y5521120D01*
X8764457Y5515300D01*
X8786943D01*
X8808663Y5521120D01*
X8828137Y5532363D01*
X8844037Y5548263D01*
X8847586Y5554411D01*
X8918426D01*
X8962945Y5509891D01*
X8959200Y5495912D01*
Y5470688D01*
X8965729Y5446323D01*
X8977179Y5426489D01*
X8972996Y5413789D01*
X8872448D01*
X8867980Y5430463D01*
X8856737Y5449937D01*
X8840837Y5465837D01*
X8821363Y5477080D01*
X8799643Y5482900D01*
X8777157D01*
X8755437Y5477080D01*
X8735963Y5465837D01*
X8720063Y5449937D01*
X8708820Y5430463D01*
X8703000Y5408743D01*
Y5386257D01*
X8708820Y5364537D01*
X8720063Y5345063D01*
X8735963Y5329163D01*
X8755437Y5317920D01*
X8777157Y5312100D01*
X8799643D01*
X8821363Y5317920D01*
X8830390Y5323131D01*
X8840048Y5321210D01*
X8840049Y5321210D01*
X9139199D01*
X9139200Y5321210D01*
X9156914Y5324734D01*
X9171932Y5334768D01*
X9228409Y5391246D01*
X9242388Y5387500D01*
X9267612D01*
X9291977Y5394029D01*
X9313823Y5406641D01*
X9331659Y5424477D01*
X9344271Y5446323D01*
X9350800Y5470688D01*
Y5495912D01*
X9344271Y5520277D01*
X9331659Y5542123D01*
X9313823Y5559959D01*
X9291977Y5572571D01*
X9267612Y5579100D01*
X9242388D01*
X9218023Y5572571D01*
X9196177Y5559959D01*
X9178341Y5542123D01*
X9165729Y5520277D01*
X9161574Y5504772D01*
X9148426D01*
X9144271Y5520277D01*
X9131659Y5542123D01*
X9113823Y5559959D01*
X9091977Y5572571D01*
X9067612Y5579100D01*
X9042388D01*
X9028409Y5575354D01*
X8978963Y5624800D01*
X8984224Y5637500D01*
X9042301D01*
Y5720600D01*
D02*
G37*
G36*
X8799643Y6168700D02*
X8777157D01*
X8755437Y6162880D01*
X8735963Y6151637D01*
X8720063Y6135737D01*
X8708820Y6116263D01*
X8703000Y6094543D01*
Y6072057D01*
X8708820Y6050337D01*
X8720063Y6030863D01*
X8735963Y6014963D01*
X8755437Y6003720D01*
X8777157Y5997900D01*
X8799643D01*
X8821363Y6003720D01*
X8840837Y6014963D01*
X8856737Y6030863D01*
X8860286Y6037011D01*
X8890831D01*
X9087009Y5840833D01*
X9082149Y5829100D01*
X9067701D01*
Y5733300D01*
Y5637500D01*
X9150800D01*
Y5702969D01*
X9163500Y5704641D01*
X9165729Y5696323D01*
X9178341Y5674477D01*
X9196177Y5656641D01*
X9218023Y5644029D01*
X9242388Y5637500D01*
X9267612D01*
X9291977Y5644029D01*
X9313823Y5656641D01*
X9331659Y5674477D01*
X9344271Y5696323D01*
X9350800Y5720688D01*
Y5745912D01*
X9344271Y5770277D01*
X9331659Y5792123D01*
X9313823Y5809959D01*
X9291977Y5822571D01*
X9267612Y5829100D01*
X9242388D01*
X9232356Y5826412D01*
X8942737Y6116032D01*
X8927720Y6126066D01*
X8910005Y6129590D01*
X8910004Y6129589D01*
X8860286D01*
X8856737Y6135737D01*
X8840837Y6151637D01*
X8821363Y6162880D01*
X8799643Y6168700D01*
D02*
G37*
G36*
X1371600Y5533309D02*
Y5461000D01*
X1443909D01*
X1438480Y5481263D01*
X1427237Y5500737D01*
X1411337Y5516637D01*
X1391863Y5527880D01*
X1371600Y5533309D01*
D02*
G37*
G36*
X1346200D02*
X1325937Y5527880D01*
X1306463Y5516637D01*
X1290563Y5500737D01*
X1279320Y5481263D01*
X1273891Y5461000D01*
X1346200D01*
Y5533309D01*
D02*
G37*
G36*
X1443909Y5435600D02*
X1371600D01*
Y5363291D01*
X1391863Y5368720D01*
X1411337Y5379963D01*
X1427237Y5395863D01*
X1438480Y5415337D01*
X1443909Y5435600D01*
D02*
G37*
G36*
X1346200D02*
X1273891D01*
X1279320Y5415337D01*
X1290563Y5395863D01*
X1306463Y5379963D01*
X1325937Y5368720D01*
X1346200Y5363291D01*
Y5435600D01*
D02*
G37*
G36*
X9543832Y5197500D02*
X9506168D01*
X9469229Y5190152D01*
X9434433Y5175739D01*
X9403117Y5154815D01*
X9376485Y5128183D01*
X9355561Y5096867D01*
X9341148Y5062071D01*
X9333800Y5025131D01*
Y4987468D01*
X9341148Y4950529D01*
X9355561Y4915733D01*
X9366519Y4899333D01*
X9264286Y4797100D01*
X9247057D01*
X9225337Y4791280D01*
X9205863Y4780037D01*
X9189963Y4764137D01*
X9178720Y4744663D01*
X9172900Y4722943D01*
Y4700457D01*
X9178720Y4678737D01*
X9189963Y4659263D01*
X9205863Y4643363D01*
X9225337Y4632120D01*
X9247057Y4626300D01*
X9269543D01*
X9291263Y4632120D01*
X9310737Y4643363D01*
X9326637Y4659263D01*
X9337880Y4678737D01*
X9343700Y4700457D01*
Y4722943D01*
X9338915Y4740802D01*
X9434815Y4836702D01*
X9469229Y4822448D01*
X9506168Y4815100D01*
X9543832D01*
X9580771Y4822448D01*
X9615567Y4836861D01*
X9646883Y4857785D01*
X9673515Y4884417D01*
X9694439Y4915733D01*
X9708852Y4950529D01*
X9716200Y4987468D01*
Y5025131D01*
X9708852Y5062071D01*
X9694439Y5096867D01*
X9673515Y5128183D01*
X9646883Y5154815D01*
X9615567Y5175739D01*
X9580771Y5190152D01*
X9543832Y5197500D01*
D02*
G37*
G36*
X2899599Y4910200D02*
X2713800D01*
Y4724400D01*
X2834136D01*
X2937200Y4621336D01*
Y4598857D01*
X2943020Y4577137D01*
X2954263Y4557663D01*
X2970163Y4541763D01*
X2989637Y4530520D01*
X3011357Y4524700D01*
X3033843D01*
X3055563Y4530520D01*
X3075037Y4541763D01*
X3090937Y4557663D01*
X3102180Y4577137D01*
X3108000Y4598857D01*
Y4621343D01*
X3102180Y4643063D01*
X3090937Y4662537D01*
X3075037Y4678437D01*
X3055563Y4689680D01*
X3033843Y4695500D01*
X3011357D01*
X2997639Y4691824D01*
X2899599Y4789863D01*
Y4910200D01*
D02*
G37*
G36*
X8940660Y4375300D02*
X8915540D01*
X8891277Y4368798D01*
X8869523Y4356239D01*
X8851761Y4338477D01*
X8839202Y4316723D01*
X8832700Y4292460D01*
Y4267340D01*
X8839202Y4243077D01*
X8851761Y4221323D01*
X8869523Y4203561D01*
X8891277Y4191002D01*
X8915540Y4184500D01*
X8940660D01*
X8964923Y4191002D01*
X8986677Y4203561D01*
X9004439Y4221323D01*
X9016998Y4243077D01*
X9023500Y4267340D01*
Y4292460D01*
X9016998Y4316723D01*
X9004439Y4338477D01*
X8986677Y4356239D01*
X8964923Y4368798D01*
X8940660Y4375300D01*
D02*
G37*
G36*
X8178660Y4019700D02*
X8153540D01*
X8129277Y4013198D01*
X8107523Y4000639D01*
X8089761Y3982877D01*
X8077202Y3961123D01*
X8070700Y3936860D01*
Y3911740D01*
X8077202Y3887477D01*
X8089761Y3865723D01*
X8107523Y3847961D01*
X8129277Y3835402D01*
X8153540Y3828900D01*
X8178660D01*
X8202923Y3835402D01*
X8224677Y3847961D01*
X8242439Y3865723D01*
X8254998Y3887477D01*
X8261500Y3911740D01*
Y3936860D01*
X8254998Y3961123D01*
X8242439Y3982877D01*
X8224677Y4000639D01*
X8202923Y4013198D01*
X8178660Y4019700D01*
D02*
G37*
G36*
X3173543Y3831900D02*
X3151057D01*
X3129337Y3826080D01*
X3109863Y3814837D01*
X3093963Y3798937D01*
X3082720Y3779463D01*
X3076900Y3757743D01*
Y3735257D01*
X3082720Y3713537D01*
X3093963Y3694063D01*
X3099382Y3688644D01*
Y3675170D01*
X2978830Y3554619D01*
X2969475Y3555851D01*
X2847475D01*
X2827791Y3553259D01*
X2809450Y3545662D01*
X2793699Y3533576D01*
X2781613Y3517825D01*
X2774016Y3499483D01*
X2771424Y3479800D01*
X2774016Y3460117D01*
X2781613Y3441775D01*
X2793699Y3426024D01*
X2798096Y3422650D01*
Y3409950D01*
X2793699Y3406576D01*
X2781613Y3390825D01*
X2774016Y3372483D01*
X2771424Y3352800D01*
X2774016Y3333117D01*
X2781613Y3314775D01*
X2793699Y3299024D01*
X2798096Y3295650D01*
Y3282950D01*
X2793699Y3279576D01*
X2781613Y3263825D01*
X2774016Y3245483D01*
X2773096Y3238500D01*
X3043854D01*
X3042934Y3245483D01*
X3035337Y3263825D01*
X3023251Y3279576D01*
X3018854Y3282950D01*
Y3295650D01*
X3023251Y3299024D01*
X3035337Y3314775D01*
X3042934Y3333117D01*
X3045526Y3352800D01*
X3042934Y3372483D01*
X3035337Y3390825D01*
X3023251Y3406576D01*
X3018854Y3409950D01*
Y3422650D01*
X3023251Y3426024D01*
X3035337Y3441775D01*
X3042934Y3460117D01*
X3045526Y3479800D01*
X3044294Y3489156D01*
X3179724Y3624586D01*
X3179724Y3624586D01*
X3189759Y3639604D01*
X3193282Y3657318D01*
Y3666389D01*
X3195263Y3666920D01*
X3214737Y3678163D01*
X3230637Y3694063D01*
X3241880Y3713537D01*
X3247700Y3735257D01*
Y3757743D01*
X3241880Y3779463D01*
X3230637Y3798937D01*
X3214737Y3814837D01*
X3195263Y3826080D01*
X3173543Y3831900D01*
D02*
G37*
G36*
X9690618Y4202500D02*
X9664182D01*
X9638647Y4195658D01*
X9615753Y4182440D01*
X9597060Y4163747D01*
X9583842Y4140853D01*
X9577000Y4115318D01*
Y4088882D01*
X9583842Y4063347D01*
X9597060Y4040453D01*
X9615753Y4021760D01*
X9638647Y4008542D01*
X9664182Y4001700D01*
X9690618D01*
X9716153Y4008542D01*
X9729906Y4016482D01*
X9777820D01*
X9791849Y4002453D01*
Y3398130D01*
X9779149Y3396458D01*
X9773658Y3416953D01*
X9760440Y3439847D01*
X9756151Y3444136D01*
Y3747700D01*
X9777800D01*
Y3948500D01*
X9577000D01*
Y3747700D01*
X9604049D01*
Y3454251D01*
X9475176D01*
X9469063Y3457780D01*
X9447343Y3463600D01*
X9424857D01*
X9403137Y3457780D01*
X9383663Y3446537D01*
X9367763Y3430637D01*
X9356520Y3411163D01*
X9350700Y3389443D01*
Y3366957D01*
X9356520Y3345237D01*
X9367763Y3325763D01*
X9383663Y3309863D01*
X9403137Y3298620D01*
X9424857Y3292800D01*
X9447343D01*
X9469063Y3298620D01*
X9475176Y3302149D01*
X9614164D01*
X9618453Y3297860D01*
X9641347Y3284642D01*
X9666882Y3277800D01*
X9693318D01*
X9713631Y3283243D01*
X9720205Y3271856D01*
X9672948Y3224600D01*
X9579700D01*
Y3023800D01*
X9604049D01*
Y974001D01*
X9331524Y701476D01*
X9319438Y685725D01*
X9311840Y667383D01*
X9309249Y647700D01*
Y336301D01*
X9154226Y181277D01*
X6146619D01*
X6126935Y178686D01*
X6124436Y177651D01*
X4603107D01*
X4598247Y189384D01*
X4604731Y195868D01*
X4604732Y195868D01*
X4614766Y210886D01*
X4618290Y228600D01*
X4618289Y228601D01*
Y664714D01*
X4624437Y668263D01*
X4640337Y684163D01*
X4651580Y703637D01*
X4657400Y725357D01*
Y747843D01*
X4651580Y769563D01*
X4640337Y789037D01*
X4624437Y804937D01*
X4604963Y816180D01*
X4583243Y822000D01*
X4560757D01*
X4539037Y816180D01*
X4519563Y804937D01*
X4503663Y789037D01*
X4492420Y769563D01*
X4486600Y747843D01*
Y725357D01*
X4492420Y703637D01*
X4503663Y684163D01*
X4519563Y668263D01*
X4525711Y664714D01*
Y247774D01*
X4521226Y243290D01*
X4396388D01*
X4394313Y245984D01*
X4390763Y255990D01*
X4398866Y268117D01*
X4402389Y285832D01*
Y664714D01*
X4408537Y668263D01*
X4424437Y684163D01*
X4435680Y703637D01*
X4441500Y725357D01*
Y747843D01*
X4435680Y769563D01*
X4424437Y789037D01*
X4408537Y804937D01*
X4389063Y816180D01*
X4367343Y822000D01*
X4344857D01*
X4323137Y816180D01*
X4303663Y804937D01*
X4287763Y789037D01*
X4276520Y769563D01*
X4270700Y747843D01*
Y725357D01*
X4276520Y703637D01*
X4287763Y684163D01*
X4303663Y668263D01*
X4309811Y664714D01*
Y308690D01*
X4269894D01*
X4264634Y321390D01*
X4271118Y327874D01*
X4284336Y350768D01*
X4291178Y376303D01*
Y402739D01*
X4284336Y428274D01*
X4271118Y451168D01*
X4252425Y469861D01*
X4229531Y483079D01*
X4203996Y489921D01*
X4177560D01*
X4152025Y483079D01*
X4129131Y469861D01*
X4110438Y451168D01*
X4097220Y428274D01*
X4090378Y402739D01*
Y376303D01*
X4097220Y350768D01*
X4110438Y327874D01*
X4116922Y321390D01*
X4111662Y308690D01*
X4015894D01*
X4010634Y321390D01*
X4017118Y327874D01*
X4030336Y350768D01*
X4037178Y376303D01*
Y402739D01*
X4030336Y428274D01*
X4017118Y451168D01*
X3998425Y469861D01*
X3983289Y478599D01*
Y664714D01*
X3989437Y668263D01*
X4005337Y684163D01*
X4016580Y703637D01*
X4022400Y725357D01*
Y747843D01*
X4016580Y769563D01*
X4005337Y789037D01*
X3989437Y804937D01*
X3969963Y816180D01*
X3948243Y822000D01*
X3925757D01*
X3904037Y816180D01*
X3884563Y804937D01*
X3868663Y789037D01*
X3857420Y769563D01*
X3851600Y747843D01*
Y725357D01*
X3857420Y703637D01*
X3868663Y684163D01*
X3884563Y668263D01*
X3890711Y664714D01*
Y478856D01*
X3875131Y469861D01*
X3856438Y451168D01*
X3843220Y428274D01*
X3836378Y402739D01*
Y376303D01*
X3843220Y350768D01*
X3856438Y327874D01*
X3862922Y321390D01*
X3857662Y308690D01*
X3761894D01*
X3756634Y321390D01*
X3763118Y327874D01*
X3776336Y350768D01*
X3783178Y376303D01*
Y402739D01*
X3776336Y428274D01*
X3763118Y451168D01*
X3744425Y469861D01*
X3729289Y478599D01*
Y664714D01*
X3735437Y668263D01*
X3751337Y684163D01*
X3762580Y703637D01*
X3768400Y725357D01*
Y747843D01*
X3762580Y769563D01*
X3751337Y789037D01*
X3735437Y804937D01*
X3715963Y816180D01*
X3694243Y822000D01*
X3671757D01*
X3650037Y816180D01*
X3630563Y804937D01*
X3614663Y789037D01*
X3603420Y769563D01*
X3597600Y747843D01*
Y725357D01*
X3603420Y703637D01*
X3614663Y684163D01*
X3630563Y668263D01*
X3636711Y664714D01*
Y478856D01*
X3621131Y469861D01*
X3602438Y451168D01*
X3589220Y428274D01*
X3582378Y402739D01*
Y376303D01*
X3589220Y350768D01*
X3602438Y327874D01*
X3608922Y321390D01*
X3603662Y308690D01*
X3507894D01*
X3502634Y321390D01*
X3509118Y327874D01*
X3522336Y350768D01*
X3529178Y376303D01*
Y402739D01*
X3522336Y428274D01*
X3509118Y451168D01*
X3490425Y469861D01*
X3475289Y478599D01*
Y664714D01*
X3481437Y668263D01*
X3497337Y684163D01*
X3508580Y703637D01*
X3514400Y725357D01*
Y747843D01*
X3508580Y769563D01*
X3497337Y789037D01*
X3481437Y804937D01*
X3461963Y816180D01*
X3440243Y822000D01*
X3417757D01*
X3396037Y816180D01*
X3376563Y804937D01*
X3360663Y789037D01*
X3349420Y769563D01*
X3343600Y747843D01*
Y725357D01*
X3349420Y703637D01*
X3360663Y684163D01*
X3376563Y668263D01*
X3382711Y664714D01*
Y478856D01*
X3367131Y469861D01*
X3348438Y451168D01*
X3335220Y428274D01*
X3328378Y402739D01*
Y376303D01*
X3335220Y350768D01*
X3348438Y327874D01*
X3354922Y321390D01*
X3349662Y308690D01*
X3321073D01*
X3270588Y359174D01*
X3275178Y376303D01*
Y402739D01*
X3268336Y428274D01*
X3255118Y451168D01*
X3236425Y469861D01*
X3213531Y483079D01*
X3187996Y489921D01*
X3161560D01*
X3136025Y483079D01*
X3113131Y469861D01*
X3094438Y451168D01*
X3081220Y428274D01*
X3074378Y402739D01*
Y376303D01*
X3081220Y350768D01*
X3094438Y327874D01*
X3113131Y309181D01*
X3136025Y295963D01*
X3161560Y289121D01*
X3187996D01*
X3205125Y293710D01*
X3243812Y255023D01*
X3238952Y243290D01*
X3132472D01*
X3016588Y359174D01*
X3021178Y376303D01*
Y402739D01*
X3014336Y428274D01*
X3001118Y451168D01*
X2982425Y469861D01*
X2959531Y483079D01*
X2933996Y489921D01*
X2907560D01*
X2882025Y483079D01*
X2859131Y469861D01*
X2840438Y451168D01*
X2827220Y428274D01*
X2820378Y402739D01*
Y376303D01*
X2827220Y350768D01*
X2840438Y327874D01*
X2859131Y309181D01*
X2882025Y295963D01*
X2907560Y289121D01*
X2933996D01*
X2951125Y293710D01*
X3055451Y189384D01*
X3050591Y177651D01*
X2111401D01*
X2104763Y190351D01*
X2106726Y193289D01*
X2108698Y203200D01*
Y471873D01*
X2532912Y896088D01*
X2538526Y904489D01*
X2540498Y914400D01*
Y2133600D01*
X2538526Y2143511D01*
X2532912Y2151912D01*
X2524511Y2157526D01*
X2514600Y2159498D01*
X1346200D01*
X1336289Y2157526D01*
X1327888Y2151912D01*
X1322274Y2143511D01*
X1320302Y2133600D01*
Y952500D01*
X1322274Y942589D01*
X1327888Y934188D01*
X1485402Y776673D01*
Y728183D01*
X1472702Y722922D01*
X1270498Y925127D01*
Y2120900D01*
X1268526Y2130811D01*
X1262912Y2139212D01*
X1254511Y2144826D01*
X1244600Y2146798D01*
X190500D01*
X180589Y2144826D01*
X172188Y2139212D01*
X166574Y2130811D01*
X164602Y2120900D01*
Y1942429D01*
X165263Y1939106D01*
X165485Y1935727D01*
X166240Y1934195D01*
X166574Y1932519D01*
X168456Y1929702D01*
X169954Y1926664D01*
X171238Y1925537D01*
X172188Y1924117D01*
X175004Y1922235D01*
X177551Y1920001D01*
X179169Y1919452D01*
X180589Y1918503D01*
X183911Y1917842D01*
X187120Y1916753D01*
X196600Y1915505D01*
Y1881095D01*
X187120Y1879847D01*
X183911Y1878758D01*
X180589Y1878097D01*
X179169Y1877148D01*
X177551Y1876599D01*
X175004Y1874365D01*
X172188Y1872483D01*
X171238Y1871063D01*
X169954Y1869936D01*
X168456Y1866898D01*
X166574Y1864081D01*
X166240Y1862405D01*
X165485Y1860873D01*
X165263Y1857493D01*
X164602Y1854171D01*
Y749300D01*
X166574Y739389D01*
X172188Y730988D01*
X180589Y725374D01*
X190500Y723402D01*
X192473D01*
X399282Y516594D01*
X392088Y505827D01*
X365747Y516738D01*
X322200Y525400D01*
X277800D01*
X234253Y516738D01*
X193233Y499747D01*
X156316Y475080D01*
X124920Y443684D01*
X100253Y406767D01*
X83262Y365747D01*
X74600Y322200D01*
Y277800D01*
X83262Y234253D01*
X100253Y193233D01*
X124920Y156316D01*
X156316Y124920D01*
X193233Y100253D01*
X234253Y83262D01*
X277800Y74600D01*
X322200D01*
X365747Y83262D01*
X406767Y100253D01*
X443684Y124920D01*
X475080Y156316D01*
X499747Y193233D01*
X516738Y234253D01*
X525400Y277800D01*
Y322200D01*
X516738Y365747D01*
X505827Y392088D01*
X516594Y399282D01*
X558302Y357573D01*
Y215900D01*
X560274Y205989D01*
X565888Y197588D01*
X578588Y184888D01*
X586989Y179274D01*
X596900Y177302D01*
X1143149D01*
Y160179D01*
X1145741Y140495D01*
X1153338Y122153D01*
X1165424Y106403D01*
X1224003Y47824D01*
X1239753Y35738D01*
X1247351Y32591D01*
X1258095Y28141D01*
X1277779Y25549D01*
X6142992D01*
X6162676Y28141D01*
X6165175Y29176D01*
X9185727D01*
X9205410Y31767D01*
X9223752Y39365D01*
X9239502Y51451D01*
X9439076Y251024D01*
X9451162Y266774D01*
X9454308Y274372D01*
X9458759Y285116D01*
X9461350Y304800D01*
Y616199D01*
X9733876Y888724D01*
X9745962Y904475D01*
X9749109Y912072D01*
X9753559Y922817D01*
X9756151Y942500D01*
Y3023800D01*
X9780500D01*
Y3117048D01*
X9921676Y3258224D01*
X9933762Y3273975D01*
X9936909Y3281572D01*
X9941359Y3292317D01*
X9943951Y3312000D01*
Y4033954D01*
X9941359Y4053638D01*
X9936909Y4064382D01*
X9933762Y4071980D01*
X9921676Y4087730D01*
X9863097Y4146309D01*
X9847347Y4158395D01*
X9829005Y4165992D01*
X9809321Y4168584D01*
X9752903D01*
X9739047Y4182440D01*
X9716153Y4195658D01*
X9690618Y4202500D01*
D02*
G37*
G36*
X3043854Y3213100D02*
X2921175D01*
Y3149749D01*
X2969475D01*
X2989159Y3152341D01*
X3007500Y3159938D01*
X3023251Y3172024D01*
X3035337Y3187775D01*
X3042934Y3206117D01*
X3043854Y3213100D01*
D02*
G37*
G36*
X2895775D02*
X2773096D01*
X2774016Y3206117D01*
X2781613Y3187775D01*
X2793699Y3172024D01*
X2809450Y3159938D01*
X2827791Y3152341D01*
X2847475Y3149749D01*
X2895775D01*
Y3213100D01*
D02*
G37*
G36*
X3454400Y2914762D02*
Y2832100D01*
X3537062D01*
X3530598Y2856223D01*
X3518039Y2877977D01*
X3500277Y2895739D01*
X3478523Y2908298D01*
X3454400Y2914762D01*
D02*
G37*
G36*
X3429000D02*
X3404877Y2908298D01*
X3383123Y2895739D01*
X3365361Y2877977D01*
X3352802Y2856223D01*
X3346338Y2832100D01*
X3429000D01*
Y2914762D01*
D02*
G37*
G36*
X3537062Y2806700D02*
X3454400D01*
Y2724038D01*
X3478523Y2730502D01*
X3500277Y2743061D01*
X3518039Y2760823D01*
X3530598Y2782577D01*
X3537062Y2806700D01*
D02*
G37*
G36*
X3429000D02*
X3346338D01*
X3352802Y2782577D01*
X3365361Y2760823D01*
X3383123Y2743061D01*
X3404877Y2730502D01*
X3429000Y2724038D01*
Y2806700D01*
D02*
G37*
G36*
X4937083Y3287560D02*
X4914597D01*
X4892877Y3281740D01*
X4873403Y3270497D01*
X4857503Y3254597D01*
X4846260Y3235123D01*
X4840440Y3213403D01*
Y3190917D01*
X4846260Y3169197D01*
X4857503Y3149723D01*
X4873403Y3133823D01*
X4892877Y3122580D01*
X4893130Y3122512D01*
Y2407877D01*
X4878341Y2393088D01*
X4866058Y2371813D01*
X4859700Y2348083D01*
Y2323517D01*
X4866058Y2299787D01*
X4878341Y2278512D01*
X4895712Y2261141D01*
X4916987Y2248858D01*
X4940717Y2242500D01*
X4965283D01*
X4989013Y2248858D01*
X5010288Y2261141D01*
X5027659Y2278512D01*
X5039942Y2299787D01*
X5046300Y2323517D01*
Y2348083D01*
X5039942Y2371813D01*
X5027659Y2393088D01*
X5010288Y2410459D01*
X4989013Y2422742D01*
X4985709Y2423627D01*
Y3141256D01*
X4994177Y3149723D01*
X5005420Y3169197D01*
X5011240Y3190917D01*
Y3213403D01*
X5005420Y3235123D01*
X4994177Y3254597D01*
X4978277Y3270497D01*
X4958803Y3281740D01*
X4937083Y3287560D01*
D02*
G37*
G36*
X449275Y2573700D02*
X414725D01*
X380838Y2566959D01*
X348917Y2553737D01*
X320189Y2534542D01*
X295758Y2510111D01*
X276563Y2481383D01*
X263341Y2449462D01*
X256600Y2415575D01*
Y2381025D01*
X263341Y2347138D01*
X276563Y2315217D01*
X295758Y2286489D01*
X320189Y2262058D01*
X348917Y2242863D01*
X380838Y2229641D01*
X414725Y2222900D01*
X449275D01*
X483162Y2229641D01*
X515083Y2242863D01*
X543811Y2262058D01*
X568242Y2286489D01*
X587437Y2315217D01*
X600659Y2347138D01*
X607400Y2381025D01*
Y2415575D01*
X600659Y2449462D01*
X587437Y2481383D01*
X568242Y2510111D01*
X543811Y2534542D01*
X515083Y2553737D01*
X483162Y2566959D01*
X449275Y2573700D01*
D02*
G37*
G36*
X8050343Y2269800D02*
X8027857D01*
X8006137Y2263980D01*
X7986663Y2252737D01*
X7970763Y2236837D01*
X7959520Y2217363D01*
X7953700Y2195643D01*
Y2173157D01*
X7959520Y2151437D01*
X7970763Y2131963D01*
X7986663Y2116063D01*
X8006137Y2104820D01*
X8008387Y2104217D01*
X8022815Y2098241D01*
X8042499Y2095649D01*
X8196135D01*
X8196423Y2095361D01*
X8218177Y2082802D01*
X8242440Y2076300D01*
X8267560D01*
X8291823Y2082802D01*
X8313577Y2095361D01*
X8313865Y2095649D01*
X8551735D01*
X8552023Y2095361D01*
X8573777Y2082802D01*
X8598040Y2076300D01*
X8623160D01*
X8647423Y2082802D01*
X8669177Y2095361D01*
X8686939Y2113123D01*
X8699498Y2134877D01*
X8706000Y2159140D01*
Y2184260D01*
X8699498Y2208523D01*
X8686939Y2230277D01*
X8669177Y2248039D01*
X8647423Y2260598D01*
X8623160Y2267100D01*
X8598040D01*
X8573777Y2260598D01*
X8552023Y2248039D01*
X8551735Y2247751D01*
X8313865D01*
X8313577Y2248039D01*
X8291823Y2260598D01*
X8267560Y2267100D01*
X8242440D01*
X8218177Y2260598D01*
X8196423Y2248039D01*
X8196135Y2247751D01*
X8096523D01*
X8091537Y2252737D01*
X8072063Y2263980D01*
X8050343Y2269800D01*
D02*
G37*
G36*
X8267560Y1505100D02*
X8242440D01*
X8218177Y1498598D01*
X8196423Y1486039D01*
X8178661Y1468277D01*
X8166102Y1446523D01*
X8159600Y1422260D01*
Y1397140D01*
X8166102Y1372877D01*
X8178661Y1351123D01*
X8196423Y1333361D01*
X8218177Y1320802D01*
X8242440Y1314300D01*
X8267560D01*
X8291823Y1320802D01*
X8313577Y1333361D01*
X8331339Y1351123D01*
X8343898Y1372877D01*
X8350400Y1397140D01*
Y1422260D01*
X8343898Y1446523D01*
X8331339Y1468277D01*
X8313577Y1486039D01*
X8291823Y1498598D01*
X8267560Y1505100D01*
D02*
G37*
G36*
X4965283Y1669100D02*
X4940717D01*
X4916987Y1662742D01*
X4895712Y1650459D01*
X4878341Y1633088D01*
X4866058Y1611813D01*
X4859700Y1588083D01*
Y1563517D01*
X4866058Y1539787D01*
X4878341Y1518512D01*
X4895712Y1501141D01*
X4906711Y1494792D01*
Y1252986D01*
X4900563Y1249437D01*
X4884663Y1233537D01*
X4873420Y1214063D01*
X4867600Y1192343D01*
Y1169857D01*
X4873420Y1148137D01*
X4884663Y1128663D01*
X4900563Y1112763D01*
X4920037Y1101520D01*
X4941757Y1095700D01*
X4964243D01*
X4985963Y1101520D01*
X5005437Y1112763D01*
X5021337Y1128663D01*
X5032580Y1148137D01*
X5038400Y1169857D01*
Y1192343D01*
X5032580Y1214063D01*
X5021337Y1233537D01*
X5005437Y1249437D01*
X4999289Y1252986D01*
Y1494792D01*
X5010288Y1501141D01*
X5027659Y1518512D01*
X5039942Y1539787D01*
X5046300Y1563517D01*
Y1588083D01*
X5039942Y1611813D01*
X5027659Y1633088D01*
X5010288Y1650459D01*
X4989013Y1662742D01*
X4965283Y1669100D01*
D02*
G37*
G36*
X6705300Y559900D02*
X6602600D01*
Y457200D01*
X6705300D01*
Y559900D01*
D02*
G37*
G36*
X6577200D02*
X6474500D01*
Y457200D01*
X6577200D01*
Y559900D01*
D02*
G37*
G36*
X2513178Y489921D02*
X2425478D01*
Y402221D01*
X2513178D01*
Y489921D01*
D02*
G37*
G36*
X2400078D02*
X2312378D01*
Y402221D01*
X2400078D01*
Y489921D01*
D02*
G37*
G36*
X2676483Y823760D02*
X2653997D01*
X2632277Y817940D01*
X2612803Y806697D01*
X2596903Y790797D01*
X2585660Y771323D01*
X2579840Y749603D01*
Y727117D01*
X2585660Y705397D01*
X2596903Y685923D01*
X2612803Y670023D01*
X2619830Y665966D01*
Y478347D01*
X2605131Y469861D01*
X2586438Y451168D01*
X2573220Y428274D01*
X2566378Y402739D01*
Y376303D01*
X2573220Y350768D01*
X2586438Y327874D01*
X2605131Y309181D01*
X2628025Y295963D01*
X2653560Y289121D01*
X2679996D01*
X2705531Y295963D01*
X2728425Y309181D01*
X2747118Y327874D01*
X2760336Y350768D01*
X2767178Y376303D01*
Y402739D01*
X2760336Y428274D01*
X2747118Y451168D01*
X2728425Y469861D01*
X2712409Y479107D01*
Y666982D01*
X2717677Y670023D01*
X2733577Y685923D01*
X2744820Y705397D01*
X2750640Y727117D01*
Y749603D01*
X2744820Y771323D01*
X2733577Y790797D01*
X2717677Y806697D01*
X2698203Y817940D01*
X2676483Y823760D01*
D02*
G37*
G36*
X2513178Y376821D02*
X2425478D01*
Y289121D01*
X2513178D01*
Y376821D01*
D02*
G37*
G36*
X2400078D02*
X2312378D01*
Y289121D01*
X2400078D01*
Y376821D01*
D02*
G37*
G36*
X9722200Y525400D02*
X9677800D01*
X9634253Y516738D01*
X9593233Y499747D01*
X9556316Y475080D01*
X9524920Y443684D01*
X9500253Y406767D01*
X9483262Y365747D01*
X9474600Y322200D01*
Y277800D01*
X9483262Y234253D01*
X9500253Y193233D01*
X9524920Y156316D01*
X9556316Y124920D01*
X9593233Y100253D01*
X9634253Y83262D01*
X9677800Y74600D01*
X9722200D01*
X9765747Y83262D01*
X9806767Y100253D01*
X9843684Y124920D01*
X9875080Y156316D01*
X9899747Y193233D01*
X9916738Y234253D01*
X9925400Y277800D01*
Y322200D01*
X9916738Y365747D01*
X9899747Y406767D01*
X9875080Y443684D01*
X9843684Y475080D01*
X9806767Y499747D01*
X9765747Y516738D01*
X9722200Y525400D01*
D02*
G37*
%LPD*%
G36*
X2463147Y6735658D02*
X2440253Y6722440D01*
X2421560Y6703747D01*
X2408342Y6680853D01*
X2401500Y6655318D01*
Y6628882D01*
X2408342Y6603347D01*
X2421560Y6580453D01*
X2440253Y6561760D01*
X2463147Y6548542D01*
X2488682Y6541700D01*
X2515118D01*
X2532247Y6546290D01*
X3059511Y6019026D01*
Y5986795D01*
X3059063Y5986537D01*
X3043163Y5970637D01*
X3031920Y5951163D01*
X3026100Y5929443D01*
Y5918171D01*
X3013400Y5912911D01*
X2334689Y6591622D01*
X2341458Y6603347D01*
X2348300Y6628882D01*
Y6655318D01*
X2341458Y6680853D01*
X2328240Y6703747D01*
X2309547Y6722440D01*
X2286653Y6735658D01*
X2288875Y6748211D01*
X2460925D01*
X2463147Y6735658D01*
D02*
G37*
G36*
X1701147D02*
X1678253Y6722440D01*
X1659560Y6703747D01*
X1646342Y6680853D01*
X1639500Y6655318D01*
Y6628882D01*
X1646342Y6603347D01*
X1659560Y6580453D01*
X1678253Y6561760D01*
X1701147Y6548542D01*
X1726682Y6541700D01*
X1753118D01*
X1765239Y6544948D01*
X3029279Y5280908D01*
X3026100Y5269043D01*
Y5246557D01*
X3031920Y5224837D01*
X3043163Y5205363D01*
X3059063Y5189463D01*
X3078537Y5178220D01*
X3100257Y5172400D01*
X3122743D01*
X3144463Y5178220D01*
X3163937Y5189463D01*
X3179837Y5205363D01*
X3183386Y5211511D01*
X3642187D01*
X3646410Y5204993D01*
X3647769Y5199132D01*
X3294969Y4846332D01*
X3284935Y4831315D01*
X3281411Y4813600D01*
X3281411Y4813599D01*
Y4735685D01*
X3271763Y4726037D01*
X3260520Y4706563D01*
X3259389Y4702344D01*
X3246689Y4704016D01*
Y4736735D01*
X3246690Y4736736D01*
X3243166Y4754450D01*
X3233132Y4769468D01*
X3233131Y4769468D01*
X2788515Y5214085D01*
X2789273Y5215399D01*
X2796160Y5224400D01*
X2818931D01*
X2842558Y5230731D01*
X2863743Y5242962D01*
X2881039Y5260258D01*
X2893270Y5281442D01*
X2899601Y5305069D01*
Y5329531D01*
X2893270Y5353158D01*
X2881039Y5374342D01*
X2863743Y5391638D01*
X2842558Y5403869D01*
X2818931Y5410200D01*
X2794470D01*
X2770843Y5403869D01*
X2749658Y5391638D01*
X2732362Y5374342D01*
X2720131Y5353158D01*
X2713801Y5329531D01*
Y5305069D01*
X2720131Y5281442D01*
X2730554Y5263390D01*
X2726849Y5253973D01*
X2723970Y5250690D01*
X2632608D01*
X2070504Y5812793D01*
X2078302Y5822956D01*
X2079738Y5822127D01*
X2114174Y5812900D01*
X2149826D01*
X2184263Y5822127D01*
X2215138Y5839953D01*
X2240347Y5865163D01*
X2258173Y5896037D01*
X2267400Y5930474D01*
Y5966126D01*
X2258173Y6000563D01*
X2240347Y6031438D01*
X2215138Y6056647D01*
X2184263Y6074473D01*
X2149826Y6083700D01*
X2114174D01*
X2079738Y6074473D01*
X2048863Y6056647D01*
X2023653Y6031438D01*
X2005827Y6000563D01*
X1996600Y5966126D01*
Y5930474D01*
X2005827Y5896037D01*
X2006656Y5894602D01*
X1996493Y5886804D01*
X1983166Y5900132D01*
X1968148Y5910166D01*
X1950434Y5913690D01*
X1950433Y5913689D01*
X1809874D01*
X1532189Y6191374D01*
Y6552893D01*
X1547547Y6561760D01*
X1566240Y6580453D01*
X1579458Y6603347D01*
X1586300Y6628882D01*
Y6655318D01*
X1579458Y6680853D01*
X1566240Y6703747D01*
X1547547Y6722440D01*
X1524653Y6735658D01*
X1526875Y6748211D01*
X1698925D01*
X1701147Y6735658D01*
D02*
G37*
G36*
X2209147D02*
X2186253Y6722440D01*
X2167560Y6703747D01*
X2154342Y6680853D01*
X2147500Y6655318D01*
Y6628882D01*
X2154342Y6603347D01*
X2167560Y6580453D01*
X2186253Y6561760D01*
X2209147Y6548542D01*
X2234682Y6541700D01*
X2253684D01*
X3032945Y5762439D01*
X3031920Y5760663D01*
X3026100Y5738943D01*
Y5716457D01*
X3031920Y5694737D01*
X3041801Y5677623D01*
X3031638Y5669825D01*
X2089710Y6611753D01*
X2094300Y6628882D01*
Y6655318D01*
X2087458Y6680853D01*
X2074240Y6703747D01*
X2055547Y6722440D01*
X2032653Y6735658D01*
X2034875Y6748211D01*
X2206925D01*
X2209147Y6735658D01*
D02*
G37*
G36*
X1955147D02*
X1932253Y6722440D01*
X1913560Y6703747D01*
X1900342Y6680853D01*
X1893500Y6655318D01*
Y6628882D01*
X1900342Y6603347D01*
X1913560Y6580453D01*
X1932253Y6561760D01*
X1955147Y6548542D01*
X1980682Y6541700D01*
X2007118D01*
X2024247Y6546290D01*
X3027937Y5542600D01*
X3026100Y5535743D01*
Y5513257D01*
X3031920Y5491537D01*
X3043163Y5472063D01*
X3059063Y5456163D01*
X3078537Y5444920D01*
X3100257Y5439100D01*
X3122743D01*
X3144463Y5444920D01*
X3163937Y5456163D01*
X3179837Y5472063D01*
X3191080Y5491537D01*
X3196900Y5513257D01*
Y5535743D01*
X3195063Y5542600D01*
X3219574Y5567111D01*
X4927599D01*
X4927600Y5567110D01*
X4945314Y5570634D01*
X4960332Y5580668D01*
X5023831Y5644168D01*
X5023832Y5644168D01*
X5033866Y5659186D01*
X5037389Y5676900D01*
Y5716200D01*
X5091500D01*
Y5888143D01*
X5103233Y5893003D01*
X5148011Y5848226D01*
Y5617905D01*
X5062795Y5532689D01*
X3873500D01*
X3855786Y5529166D01*
X3840768Y5519132D01*
X3840768Y5519131D01*
X3625726Y5304089D01*
X3183386D01*
X3179837Y5310237D01*
X3163937Y5326137D01*
X3144463Y5337380D01*
X3122743Y5343200D01*
X3100257D01*
X3098409Y5342705D01*
X1834368Y6606745D01*
X1840300Y6628882D01*
Y6655318D01*
X1833458Y6680853D01*
X1820240Y6703747D01*
X1801547Y6722440D01*
X1778653Y6735658D01*
X1780875Y6748211D01*
X1952925D01*
X1955147Y6735658D01*
D02*
G37*
G36*
X3789111Y5192954D02*
Y4112999D01*
X3777377Y4108139D01*
X3303479Y4582037D01*
X3310306Y4593171D01*
X3328857Y4588200D01*
X3351343D01*
X3373063Y4594020D01*
X3392537Y4605263D01*
X3408437Y4621163D01*
X3419680Y4640637D01*
X3422426Y4650885D01*
X3435574D01*
X3438320Y4640637D01*
X3449563Y4621163D01*
X3465463Y4605263D01*
X3484937Y4594020D01*
X3505200Y4588591D01*
Y4673600D01*
Y4758609D01*
X3484937Y4753180D01*
X3465463Y4741937D01*
X3449563Y4726037D01*
X3438320Y4706563D01*
X3435574Y4696315D01*
X3422426D01*
X3419680Y4706563D01*
X3408437Y4726037D01*
X3392537Y4741937D01*
X3373990Y4752645D01*
Y4794427D01*
X3777377Y5197814D01*
X3789111Y5192954D01*
D02*
G37*
G36*
X5098818Y4411519D02*
X5100734Y4401886D01*
X5110768Y4386868D01*
X5135068Y4362569D01*
X5135068Y4362568D01*
X5150085Y4352534D01*
X5167800Y4349011D01*
X8084214D01*
X8088448Y4336495D01*
X8081775Y4326189D01*
X5137274D01*
X4415946Y5047517D01*
X4423324Y5058100D01*
X4443543D01*
X4450399Y5059937D01*
X5098818Y4411519D01*
D02*
G37*
G36*
X3904268Y4975279D02*
X4297111Y4582437D01*
Y3782357D01*
X4295863Y3781637D01*
X4279963Y3765737D01*
X4268720Y3746263D01*
X4264701Y3731265D01*
X4250702Y3727303D01*
X3881689Y4096316D01*
Y4988264D01*
X3894234Y4990296D01*
X3904268Y4975279D01*
D02*
G37*
%LPC*%
G36*
X3530600Y4758609D02*
Y4686300D01*
X3602909D01*
X3597480Y4706563D01*
X3586237Y4726037D01*
X3570337Y4741937D01*
X3550863Y4753180D01*
X3530600Y4758609D01*
D02*
G37*
G36*
X3602909Y4660900D02*
X3530600D01*
Y4588591D01*
X3550863Y4594020D01*
X3570337Y4605263D01*
X3586237Y4621163D01*
X3597480Y4640637D01*
X3602909Y4660900D01*
D02*
G37*
%LPD*%
G36*
X1244600Y914400D02*
X1460500Y698500D01*
Y203200D01*
X596900D01*
X584200Y215900D01*
Y368300D01*
X203200Y749300D01*
X190500D01*
Y1854171D01*
X203200Y1855843D01*
X205827Y1846037D01*
X223653Y1815162D01*
X248863Y1789953D01*
X279738Y1772127D01*
X314174Y1762900D01*
X319300D01*
Y1898300D01*
X332000D01*
D01*
X319300D01*
Y2033700D01*
X314174D01*
X279738Y2024473D01*
X248863Y2006647D01*
X223653Y1981437D01*
X205827Y1950563D01*
X203200Y1940757D01*
X190500Y1942429D01*
Y2120900D01*
X1244600D01*
Y914400D01*
D02*
G37*
G36*
X2514600D02*
X2082800Y482600D01*
Y203200D01*
X1511300D01*
Y787400D01*
X1346200Y952500D01*
Y2133600D01*
X2514600D01*
Y914400D01*
D02*
G37*
%LPC*%
G36*
X349826Y2033700D02*
X344700D01*
Y1911000D01*
X467400D01*
Y1916126D01*
X458173Y1950563D01*
X440347Y1981437D01*
X415138Y2006647D01*
X384263Y2024473D01*
X349826Y2033700D01*
D02*
G37*
G36*
X467400Y1885600D02*
X344700D01*
Y1762900D01*
X349826D01*
X384263Y1772127D01*
X415138Y1789953D01*
X440347Y1815162D01*
X458173Y1846037D01*
X467400Y1880474D01*
Y1885600D01*
D02*
G37*
G36*
X1327100Y545400D02*
X1231900D01*
Y450200D01*
X1327100D01*
Y545400D01*
D02*
G37*
G36*
X1206500D02*
X1111300D01*
Y450200D01*
X1206500D01*
Y545400D01*
D02*
G37*
G36*
X1327100Y424800D02*
X1231900D01*
Y329600D01*
X1327100D01*
Y424800D01*
D02*
G37*
G36*
X1206500D02*
X1111300D01*
Y329600D01*
X1206500D01*
Y424800D01*
D02*
G37*
G36*
X2149826Y2033700D02*
X2144700D01*
Y1911000D01*
X2267400D01*
Y1916126D01*
X2258173Y1950563D01*
X2240347Y1981437D01*
X2215138Y2006647D01*
X2184263Y2024473D01*
X2149826Y2033700D01*
D02*
G37*
G36*
X2119300D02*
X2114174D01*
X2079738Y2024473D01*
X2048863Y2006647D01*
X2023653Y1981437D01*
X2005827Y1950563D01*
X1996600Y1916126D01*
Y1911000D01*
X2119300D01*
Y2033700D01*
D02*
G37*
G36*
X2267400Y1885600D02*
X2144700D01*
Y1762900D01*
X2149826D01*
X2184263Y1772127D01*
X2215138Y1789953D01*
X2240347Y1815162D01*
X2258173Y1846037D01*
X2267400Y1880474D01*
Y1885600D01*
D02*
G37*
G36*
X2119300D02*
X1996600D01*
Y1880474D01*
X2005827Y1846037D01*
X2023653Y1815162D01*
X2048863Y1789953D01*
X2079738Y1772127D01*
X2114174Y1762900D01*
X2119300D01*
Y1885600D01*
D02*
G37*
G36*
X1701800Y1304209D02*
X1681537Y1298780D01*
X1662063Y1287537D01*
X1646163Y1271637D01*
X1634920Y1252163D01*
X1632174Y1241915D01*
X1619026D01*
X1616280Y1252163D01*
X1605037Y1271637D01*
X1589137Y1287537D01*
X1569663Y1298780D01*
X1549400Y1304209D01*
Y1219200D01*
X1536700D01*
Y1206500D01*
X1451691D01*
X1457120Y1186237D01*
X1468363Y1166763D01*
X1484263Y1150863D01*
X1503737Y1139620D01*
X1511146Y1137635D01*
Y1124487D01*
X1501724Y1121962D01*
X1482250Y1110719D01*
X1466350Y1094819D01*
X1455107Y1075345D01*
X1449677Y1055082D01*
X1534687D01*
Y1042382D01*
X1547387D01*
Y957373D01*
X1567650Y962802D01*
X1587124Y974045D01*
X1603024Y989945D01*
X1614267Y1009419D01*
X1617888Y1022933D01*
X1631036D01*
X1634920Y1008437D01*
X1646163Y988963D01*
X1662063Y973063D01*
X1681537Y961820D01*
X1701800Y956391D01*
Y1041400D01*
X1714500D01*
Y1054100D01*
X1799509D01*
X1794080Y1074363D01*
X1782837Y1093837D01*
X1766937Y1109737D01*
X1747463Y1120980D01*
X1737215Y1123726D01*
Y1136874D01*
X1747463Y1139620D01*
X1766937Y1150863D01*
X1782837Y1166763D01*
X1794080Y1186237D01*
X1799509Y1206500D01*
X1714500D01*
Y1219200D01*
X1701800D01*
Y1304209D01*
D02*
G37*
G36*
X1727200D02*
Y1231900D01*
X1799509D01*
X1794080Y1252163D01*
X1782837Y1271637D01*
X1766937Y1287537D01*
X1747463Y1298780D01*
X1727200Y1304209D01*
D02*
G37*
G36*
X1524000D02*
X1503737Y1298780D01*
X1484263Y1287537D01*
X1468363Y1271637D01*
X1457120Y1252163D01*
X1451691Y1231900D01*
X1524000D01*
Y1304209D01*
D02*
G37*
G36*
X1913410Y1302908D02*
Y1230599D01*
X1985720D01*
X1980290Y1250862D01*
X1969047Y1270335D01*
X1953147Y1286235D01*
X1933674Y1297478D01*
X1913410Y1302908D01*
D02*
G37*
G36*
X1888010D02*
X1867747Y1297478D01*
X1848274Y1286235D01*
X1832374Y1270335D01*
X1821130Y1250862D01*
X1815701Y1230599D01*
X1888010D01*
Y1302908D01*
D02*
G37*
G36*
X1985720Y1205199D02*
X1815701D01*
X1821130Y1184935D01*
X1832374Y1165462D01*
X1848274Y1149562D01*
X1867747Y1138319D01*
X1877712Y1135649D01*
Y1122500D01*
X1872037Y1120980D01*
X1852563Y1109737D01*
X1836663Y1093837D01*
X1825420Y1074363D01*
X1819991Y1054100D01*
X1990009D01*
X1984580Y1074363D01*
X1973337Y1093837D01*
X1957437Y1109737D01*
X1937963Y1120980D01*
X1927999Y1123650D01*
Y1136798D01*
X1933674Y1138319D01*
X1953147Y1149562D01*
X1969047Y1165462D01*
X1980290Y1184935D01*
X1985720Y1205199D01*
D02*
G37*
G36*
X1521987Y1029682D02*
X1449677D01*
X1455107Y1009419D01*
X1466350Y989945D01*
X1482250Y974045D01*
X1501724Y962802D01*
X1521987Y957373D01*
Y1029682D01*
D02*
G37*
G36*
X1990009Y1028700D02*
X1917700D01*
Y956391D01*
X1937963Y961820D01*
X1957437Y973063D01*
X1973337Y988963D01*
X1984580Y1008437D01*
X1990009Y1028700D01*
D02*
G37*
G36*
X1892300D02*
X1819991D01*
X1825420Y1008437D01*
X1836663Y988963D01*
X1852563Y973063D01*
X1872037Y961820D01*
X1892300Y956391D01*
Y1028700D01*
D02*
G37*
G36*
X1799509D02*
X1727200D01*
Y956391D01*
X1747463Y961820D01*
X1766937Y973063D01*
X1782837Y988963D01*
X1794080Y1008437D01*
X1799509Y1028700D01*
D02*
G37*
G36*
X1741405Y545400D02*
X1739900D01*
Y450200D01*
X1835100D01*
Y451705D01*
X1827747Y479148D01*
X1813541Y503752D01*
X1793452Y523841D01*
X1768848Y538047D01*
X1741405Y545400D01*
D02*
G37*
G36*
X1714500D02*
X1712995D01*
X1685552Y538047D01*
X1660948Y523841D01*
X1640859Y503752D01*
X1626653Y479148D01*
X1619300Y451705D01*
Y450200D01*
X1714500D01*
Y545400D01*
D02*
G37*
G36*
X1835100Y424800D02*
X1739900D01*
Y329600D01*
X1741405D01*
X1768848Y336953D01*
X1793452Y351159D01*
X1813541Y371248D01*
X1827747Y395852D01*
X1835100Y423295D01*
Y424800D01*
D02*
G37*
G36*
X1714500D02*
X1619300D01*
Y423295D01*
X1626653Y395852D01*
X1640859Y371248D01*
X1660948Y351159D01*
X1685552Y336953D01*
X1712995Y329600D01*
X1714500D01*
Y424800D01*
D02*
G37*
%LPD*%
D24*
X1252947Y5922553D02*
Y6621053D01*
Y5922553D02*
X2628900Y4546600D01*
X9258300Y4725650D02*
X9525000Y4992350D01*
Y5006300D01*
X9258300Y4711700D02*
Y4725650D01*
X8788400Y6083300D02*
X8910005D01*
X9255000Y5733300D02*
Y5738305D01*
X8910005Y6083300D02*
X9255000Y5738305D01*
X3113299Y197000D02*
X4540400D01*
X4332668Y262400D02*
X4356100Y285832D01*
X3301899Y262400D02*
X4332668D01*
X3208699Y355600D02*
X3301899Y262400D01*
X2921000Y355600D02*
X2954699D01*
X3113299Y197000D01*
X4356100Y285832D02*
Y736600D01*
X4540400Y197000D02*
X4572000Y228600D01*
X3175000Y355600D02*
X3208699D01*
X4572000Y228600D02*
Y736600D01*
X6178400Y285900D02*
X9136069D01*
X9225300Y375132D01*
X5435600Y1028700D02*
X6178400Y285900D01*
X9225300Y4285000D02*
X9601200Y4660900D01*
X9225300Y375132D02*
Y4285000D01*
X4546600Y1028700D02*
X5435600D01*
X2666120Y356480D02*
X2667000Y355600D01*
X2665240Y738360D02*
X2666120Y737480D01*
Y356480D02*
Y737480D01*
X4953000Y1181100D02*
Y1575800D01*
X7353300Y4978400D02*
X8788400D01*
X7073900Y5257800D02*
X7353300Y4978400D01*
X8641585Y5334000D02*
X8789800Y5185785D01*
X3945555Y5334000D02*
X8641585D01*
X4939420Y2349380D02*
Y3188580D01*
Y2349380D02*
X4953000Y2335800D01*
X4925840Y3202160D02*
X4939420Y3188580D01*
X4970102Y6345598D02*
X4991100Y6324600D01*
X4970102Y6345598D02*
Y6459600D01*
X4753668Y6760268D02*
X4902200Y6908800D01*
X4753668Y6676033D02*
X4970102Y6459600D01*
X4753668Y6676033D02*
Y6760268D01*
X4902200Y6908800D02*
X5702300D01*
X5778500Y6832600D01*
X5051080Y6807200D02*
X5638800D01*
X4951240Y6707360D02*
X5051080Y6807200D01*
X5638800D02*
X5803900Y6642100D01*
Y6629400D02*
Y6642100D01*
X5778500Y6832600D02*
X8445500D01*
X9601200Y4660900D02*
X9755568D01*
X9779000Y4684331D01*
Y5499100D01*
X8445500Y6832600D02*
X9779000Y5499100D01*
X3632200Y1943100D02*
Y3238500D01*
Y1943100D02*
X4546600Y1028700D01*
X5803900Y6375400D02*
X6057900Y6629400D01*
X5549900Y6375400D02*
Y6629400D01*
X3327700Y4686000D02*
Y4813600D01*
X3924300Y5410200D01*
X3327700Y4686000D02*
X3340100Y4673600D01*
X4013200Y5257800D02*
X7073900D01*
X3937000Y5008011D02*
Y5181600D01*
Y5008011D02*
X4343400Y4601611D01*
X3937000Y5181600D02*
X4013200Y5257800D01*
X3835400Y4077142D02*
Y5223845D01*
X3945555Y5334000D01*
X5600700Y5410200D02*
X6311900Y6121400D01*
X3924300Y5410200D02*
X5600700D01*
X6311900Y6121400D02*
Y6629400D01*
X3146993Y3731193D02*
X3162300Y3746500D01*
X2908475Y3479800D02*
X2969475D01*
X3146993Y3657318D01*
Y3731193D01*
X3835400Y4077142D02*
X4304642Y3607900D01*
X3644900Y5257800D02*
X3873500Y5486400D01*
X5081968D01*
X5194300Y5598732D01*
Y5867400D01*
X8089900Y444500D02*
Y1130300D01*
X5143500Y4419600D02*
Y4432300D01*
X5118100Y4279900D02*
X8166100D01*
X5143500Y4419600D02*
X5167800Y4395300D01*
X4076700Y5143500D02*
X8089900Y1130300D01*
X4432300Y5143500D02*
X5143500Y4432300D01*
X4254500Y5143500D02*
X5118100Y4279900D01*
X3111500Y5257800D02*
X3644900D01*
X4991100Y6070600D02*
X5194300Y5867400D01*
X4927600Y5613400D02*
X4991100Y5676900D01*
Y5816600D01*
X3111500Y5524500D02*
X3200400Y5613400D01*
X4927600D01*
X3111500Y5727700D02*
X4114800D01*
X4445000Y6057900D01*
X4724400D02*
X4737100Y6070600D01*
X4445000Y6057900D02*
X4724400D01*
X1739900Y6635750D02*
X3111500Y5264150D01*
X1739900Y6635750D02*
Y6642100D01*
X3111500Y5257800D02*
Y5264150D01*
X1993900Y6642100D02*
X3111500Y5524500D01*
X2247900Y6612948D02*
Y6642100D01*
Y6612948D02*
X3111500Y5749348D01*
Y5727700D02*
Y5749348D01*
X3105800Y5923900D02*
Y6038200D01*
Y5923900D02*
X3111500Y5918200D01*
X2501900Y6642100D02*
X3105800Y6038200D01*
X2613434Y5204400D02*
X2732736D01*
X3200400Y4619653D02*
Y4736736D01*
X2732736Y5204400D02*
X3200400Y4736736D01*
X1485900Y6172200D02*
X1790700Y5867400D01*
X1485900Y6172200D02*
Y6642100D01*
X1790700Y5867400D02*
X1950434D01*
X2613434Y5204400D01*
X4352953Y3467100D02*
X4622800D01*
X3200400Y4619653D02*
X4352953Y3467100D01*
X3441700Y3429000D02*
Y3581400D01*
Y3429000D02*
X3632200Y3238500D01*
X4304642Y3607900D02*
X4496900D01*
X4508500Y3619500D01*
X4343400Y3718200D02*
X4348300Y3713300D01*
X4343400Y3718200D02*
Y4601611D01*
X5167800Y4395300D02*
X8380900D01*
X8775700Y4000500D01*
X9139200Y5367500D02*
X9255000Y5483300D01*
X8840048Y5367500D02*
X9139200D01*
X8810048Y5397500D02*
X8840048Y5367500D01*
X8788400Y5397500D02*
X8810048D01*
X8937600Y5600700D02*
X9055000Y5483300D01*
X8775700Y5600700D02*
X8937600D01*
X8775700Y1574800D02*
Y4000500D01*
X8610600Y1409700D02*
X8775700Y1574800D01*
X2806699Y4817300D02*
X3013899Y4610100D01*
X3022600D01*
X3568700Y6654800D02*
X3708400D01*
X4025900Y6337300D01*
X1130300Y6794500D02*
X3822700D01*
X4025900Y6591300D01*
X977900Y6642100D02*
X1130300Y6794500D01*
X977900Y6261100D02*
Y6642100D01*
X3937000Y355600D02*
Y736600D01*
X3683000Y355600D02*
Y736600D01*
X3429000Y355600D02*
Y736600D01*
X7558468Y800100D02*
X7589900Y768669D01*
X7556500Y800100D02*
X7558468D01*
X7589900Y444500D02*
Y768669D01*
X7340600Y1016000D02*
X7556500Y800100D01*
D25*
X8042499Y2171700D02*
X8255000D01*
X8610600D01*
X9376427Y6421544D02*
X9525000Y6272970D01*
X9376427Y6421544D02*
Y6498573D01*
X9372600Y6502400D02*
X9376427Y6498573D01*
X9525000Y6210300D02*
Y6272970D01*
X9436100Y3378200D02*
X9680100D01*
X6142992Y101600D02*
X6146619Y105227D01*
X9185727D01*
X9385300Y304800D01*
X1277779Y101600D02*
X6142992D01*
X1219200Y160179D02*
Y437500D01*
Y160179D02*
X1277779Y101600D01*
X9385300Y304800D02*
Y647700D01*
X9680100Y942500D02*
Y3124200D01*
X9385300Y647700D02*
X9680100Y942500D01*
Y3378200D02*
Y3845400D01*
X9677400Y4102100D02*
X9686967Y4092533D01*
X9867900Y3312000D02*
Y4033954D01*
X9680100Y3124200D02*
X9867900Y3312000D01*
X9809321Y4092533D02*
X9867900Y4033954D01*
X9686967Y4092533D02*
X9809321D01*
X9091187Y445787D02*
Y1118824D01*
X9092475Y1120111D01*
X9089900Y444500D02*
X9091187Y445787D01*
D26*
X332000Y1898300D02*
D03*
X2132000D02*
D03*
X332000Y5948300D02*
D03*
X2132000D02*
D03*
D27*
X2032000Y5448300D02*
D03*
X432000Y2398300D02*
D03*
D28*
X8166100Y3924300D02*
D03*
X8928100D02*
D03*
Y4279900D02*
D03*
X8166100D02*
D03*
X3568700Y6654800D02*
D03*
Y5892800D02*
D03*
X3441700Y3581400D02*
D03*
Y2819400D02*
D03*
X8610600Y1409700D02*
D03*
Y2171700D02*
D03*
X8255000D02*
D03*
Y1409700D02*
D03*
D29*
X9680100Y3124200D02*
D03*
X4991100Y5816600D02*
D03*
X9677400Y3848100D02*
D03*
D30*
X9680100Y3378200D02*
D03*
X1231900Y6642100D02*
D03*
X1739900D02*
D03*
X1993900D02*
D03*
X2247900D02*
D03*
X2501900D02*
D03*
X2755900D02*
D03*
X3009900D02*
D03*
X3263900D02*
D03*
X1485900D02*
D03*
X4737100Y6324600D02*
D03*
X4991100D02*
D03*
X4737100Y6070600D02*
D03*
X4991100D02*
D03*
X4737100Y5816600D02*
D03*
X4190778Y389521D02*
D03*
X3936778D02*
D03*
X3682778D02*
D03*
X3428778D02*
D03*
X3174778D02*
D03*
X2920778D02*
D03*
X2666778D02*
D03*
X9677400Y4102100D02*
D03*
X5295900Y6629400D02*
D03*
X5549900D02*
D03*
X5803900D02*
D03*
X6057900D02*
D03*
D31*
X2908475Y3479800D02*
D03*
Y3225800D02*
D03*
Y3352800D02*
D03*
D32*
X977900Y6642100D02*
D03*
X2412778Y389521D02*
D03*
X6311900Y6629400D02*
D03*
D33*
X4025900Y6591300D02*
D03*
D34*
Y6337300D02*
D03*
D35*
X4953000Y1575800D02*
D03*
Y2335800D02*
D03*
D36*
X300000Y6700000D02*
D03*
X9700000D02*
D03*
Y300000D02*
D03*
X300000D02*
D03*
D37*
X2806701Y5317300D02*
D03*
D38*
X2806699Y4817300D02*
D03*
D39*
X9089900Y444500D02*
D03*
X8589900D02*
D03*
X8089900D02*
D03*
X7589900D02*
D03*
X7089900D02*
D03*
D40*
X6589900D02*
D03*
D41*
X1219200Y437500D02*
D03*
D42*
X1727200D02*
D03*
D43*
X9525000Y6210300D02*
D03*
Y5006300D02*
D03*
D44*
X9255000Y5733300D02*
D03*
Y5483300D02*
D03*
X9055000D02*
D03*
D45*
Y5733300D02*
D03*
D46*
X2641600Y4521200D02*
D03*
X1358900Y5448300D02*
D03*
X8039100Y2184400D02*
D03*
X9258300Y4711700D02*
D03*
X9372600Y6502400D02*
D03*
X8788400Y6083300D02*
D03*
X9436100Y3378200D02*
D03*
X1536700Y1219200D02*
D03*
X1714500D02*
D03*
X1900710Y1217899D02*
D03*
X1905000Y1041400D02*
D03*
X1714500D02*
D03*
X1534687Y1042382D02*
D03*
X2665240Y738360D02*
D03*
X4953000Y1181100D02*
D03*
X8788400Y4978400D02*
D03*
X8789800Y5185785D02*
D03*
X4925840Y3202160D02*
D03*
X4951240Y6707360D02*
D03*
X5549900Y6375400D02*
D03*
X5803900D02*
D03*
X3340100Y4673600D02*
D03*
X3162300Y3746500D02*
D03*
X3517900Y4673600D02*
D03*
X4432300Y5143500D02*
D03*
X4254500D02*
D03*
X4076700D02*
D03*
X3111500Y5257800D02*
D03*
Y5918200D02*
D03*
Y5524500D02*
D03*
Y5727700D02*
D03*
X9092475Y1120111D02*
D03*
X3632200Y3238500D02*
D03*
X4348300Y3713300D02*
D03*
X4508500Y3619500D02*
D03*
X4622800Y3467100D02*
D03*
X8788400Y5397500D02*
D03*
X8775700Y5600700D02*
D03*
X3022600Y4610100D02*
D03*
X977900Y6261100D02*
D03*
X4572000Y736600D02*
D03*
X4356100D02*
D03*
X3937000D02*
D03*
X3683000D02*
D03*
X3429000D02*
D03*
X7340600Y1016000D02*
D03*
%TF.MD5,43a9437132ceeda1ac044c54ef342bd3*%
M02*
